<svg xmlns="http://www.w3.org/2000/svg" width="187.603" height="62.527" viewBox="0 0 187.603 62.527">
  <g id="alamat-icon" transform="translate(9146.218 9491)">
    <path id="Path_3091" data-name="Path 3091" d="M5.544-30.8H12.1L17.116,0h-4.84L11.4-6.116v.088H5.9L5.016,0H.528Zm5.28,20.592L8.668-25.432H8.58L6.468-10.208ZM19.448-30.8h4.84V-4.4h7.964V0h-12.8Zm19.052,0h6.556L50.072,0h-4.84l-.88-6.116v.088h-5.5L37.972,0H33.484Zm5.28,20.592L41.624-25.432h-.088L39.424-10.208ZM52.4-30.8h6.908l3.08,22.044h.088L65.56-30.8h6.908V0H67.892V-23.32H67.8L64.284,0H60.236l-3.52-23.32h-.088V0H52.4Zm27.412,0h6.556L91.388,0h-4.84l-.88-6.116v.088h-5.5L79.288,0H74.8ZM85.1-10.208,82.94-25.432h-.088L80.74-10.208ZM93.28-26.4H88.22v-4.4h14.96v4.4H98.12V0H93.28Z" transform="translate(-9061.795 -9444.2)" fill="#525e6e"/>
    <g id="Group_2258" data-name="Group 2258" transform="translate(0 0.1)">
      <path id="Path_3107" data-name="Path 3107" d="M146.267,313.683c-8.4-1.084-24.946,2.806-30.964,16.16s-1.626,30.848,9.851,38.3c14.05,9.135,32.551,1.645,32.551,1.645s5.3,3.871,6.328,3.038S162.1,365.8,162.1,365.8s16.3-15.308,7.857-34.08C163.24,316.605,152.576,314.457,146.267,313.683Z" transform="translate(-9258.825 -9801.515)" fill="#5a287f" opacity="0.4"/>
      <path id="Path_3108" data-name="Path 3108" d="M146.267,312.083c-8.4-1.084-24.946,2.826-30.964,16.179s-1.626,30.848,9.851,38.3c14.05,9.135,32.551,1.626,32.551,1.626s5.3,3.871,6.328,3.058-1.935-7.025-1.935-7.025,16.3-15.308,7.857-34.1C163.24,315.063,152.576,312.954,146.267,312.083Z" transform="translate(-9258.825 -9803.011)" fill="#fff"/>
      <path id="Path_3109" data-name="Path 3109" d="M133.528,319.3A11.4,11.4,0,0,1,145,330.8c-.213,10.1-9.135,20.843-11.3,20.475-3.232-.561-11.341-10.818-11.612-20.475a11.36,11.36,0,0,1,11.438-11.5Zm5.806,11.5a5.806,5.806,0,1,0-5.806,5.806A5.806,5.806,0,0,0,139.334,330.8Z" transform="translate(-9249.956 -9796.101)" fill="#fac300"/>
    </g>
  </g>
</svg>
