<svg xmlns="http://www.w3.org/2000/svg" width="164.767" height="62.467" viewBox="0 0 164.767 62.467">
  <g id="email-icon" transform="translate(9146.218 9608)">
    <path id="Path_3090" data-name="Path 3090" d="M1.8-30.8H15v4.4H6.644v8.14h6.644v4.4H6.644V-4.4H15V0H1.8Zm15.972,0h6.908l3.08,22.044h.088L30.932-30.8H37.84V0H33.264V-23.32h-.088L29.656,0H25.608l-3.52-23.32H22V0H17.776Zm27.412,0h6.556L56.76,0H51.92l-.88-6.116v.088h-5.5L44.66,0H40.172Zm5.28,20.592L48.312-25.432h-.088L46.112-10.208ZM59.092-30.8h4.84V0h-4.84Zm8.448,0h4.84V-4.4h7.964V0H67.54Z" transform="translate(-9061.795 -9561.2)" fill="#525e6e"/>
    <g id="Group_2257" data-name="Group 2257" transform="translate(0 -0.416)">
      <path id="Path_3104" data-name="Path 3104" d="M146.267,253.475c-8.4-1.1-24.946,2.806-30.964,16.16s-1.626,30.848,9.851,38.3c14.05,9.135,32.551,1.645,32.551,1.645s5.3,3.774,6.328,3.038-1.935-7.025-1.935-7.025,16.3-15.308,7.857-34.08C163.24,256.4,152.576,254.288,146.267,253.475Z" transform="translate(-9258.825 -9857.83)" fill="#5a287f" opacity="0.4"/>
      <path id="Path_3105" data-name="Path 3105" d="M146.267,251.893c-8.4-1.084-24.946,2.806-30.964,16.16s-1.626,30.868,9.851,38.319C139.2,315.506,157.7,308,157.7,308s5.3,3.871,6.328,3.058-1.935-7.025-1.935-7.025,16.3-15.308,7.857-34.1C163.24,254.835,152.576,252.725,146.267,251.893Z" transform="translate(-9258.825 -9859.306)" fill="#fff"/>
      <path id="Path_3106" data-name="Path 3106" d="M138.11,282.974a5.283,5.283,0,0,1-5.187,2.826c-3.735-.1-5.341-2.69-4.8-7.3l.581-4.78c.542-4.625,2.787-7.141,6.522-7.006a4.413,4.413,0,0,1,4.393,2.942s.252-.968.523-2.051,4.838-.7,4.741.619c-.116,1.761-1.413,12.366-1.413,12.366-.116.813.213,1.18,1.064,1.18,3,0,4.277-5.806,4.277-10.7,0-5.9-3.213-9.986-10.644-9.986-9.522,0-14.5,6.735-14.5,17.514,0,7.625,3.871,12.366,12.463,12.366a20.63,20.63,0,0,0,11.07-3.213c2.787-1.935,2.69,2.593-.426,4.548a20.765,20.765,0,0,1-10.954,2.651c-12.037,0-17.166-6.774-17.166-16.585,0-11.612,6.522-21.288,19.721-21.288,11.283,0,14.863,6.251,14.863,13.915,0,11.612-6.309,15.115-10.412,15.115C140.1,286.09,138.322,285.18,138.11,282.974Zm-4.8-4.761c-.271,2.187.639,3.077,2.3,3.135s2.709-.813,2.98-2.98l.542-4.509a2.129,2.129,0,0,0-2.3-2.651c-1.664,0-2.787.755-3.038,2.98Z" transform="translate(-9253.164 -9854.294)" fill="#fac300"/>
    </g>
  </g>
</svg>
