<svg xmlns="http://www.w3.org/2000/svg" width="635.898" height="485.764" viewBox="0 0 635.898 485.764">
  <g id="hubungi-kami-banner" transform="translate(7299.112 10203.57)">
    <path id="Path_3033" data-name="Path 3033" d="M381.664,363.571a24.668,24.668,0,0,1-2.213-1.092,23.784,23.784,0,0,1-8.2-8,15.766,15.766,0,0,1-1.955-7.579c-.531-10.05,3.729-25.769,14.719-34.865,1.228-1.031,2.4-2.031,3.5-3.032,16.568-14.931,18.6-25.466,18.706-26.148,2.38,1.728,18.812-100.562-9.717-120.4a62.267,62.267,0,0,0-10.944-6.063l.212-.485s34.107-1.895,46.234,26.527,8.246,72.5,16.3,96.636c14.78,44.339,46.234,53.055,38.654,81.477-6.458,24.254-14.492,18.372-18.569,26.527s5.184,27.695-13.825,30.09c-1.516-19.539-4.093-39.9-8.534-49.038-4.972-10.262-11.49-14.4-13.643-15.568-9.1,6.776-13.006,28.589-25,30.317a19.9,19.9,0,0,1-12.809-1.728,15.72,15.72,0,0,1-7.655-12.672C386.712,365.344,384.681,364.9,381.664,363.571Z" transform="translate(-7171.996 -10220.341)" fill="#532a22"/>
    <path id="Path_3039" data-name="Path 3039" d="M375.555,331.287a8.96,8.96,0,0,0-3.274,1.379c-2.9-.3-20.449-1.182-45.476,15.962-16.8,11.52-27,22.025-33.7,24.329v-.076c-6.063-10.611-13.142-27.407,5.548-52.161s17.826-41.5,14.658-84.388c-3.032-40.928,16.28-60.225,25.269-66.955a72.761,72.761,0,0,1,29.165-13.294h0a66.893,66.893,0,0,1,22.586-.834c3.229,0,34.956.788,53.783,25.012,13.643,17.493,16.674,42.141,17.2,57.6h-.273a16.583,16.583,0,0,0-12.9,4.957c-55.132-24.784-50.023-79.81-49.765-81.72-.44,1.516-13.794,48.416-62.893,56.708,0,3.032.364,28.18-.758,32.682-1.895,7.579-7.231,12.369-6.063,25.77,1.592,18.387,27.285,34.759,50.266,39.958l-.758,14.249a6.23,6.23,0,0,0-2.653.819Z" transform="translate(-7214.638 -10220.966)" fill="#532a22"/>
    <path id="Path_3092" data-name="Path 3092" d="M373.84,159.305s-.136.273-.364.8-.621,1.334-1.137,2.289-1.152,2.122-1.88,3.456a50.394,50.394,0,0,1-2.683,4.35l-1.607,2.441-1.849,2.531c-1.228,1.758-2.683,3.487-4.154,5.306s-3.123,3.608-4.836,5.381l-2.622,2.607a36.583,36.583,0,0,1-2.744,2.562l-2.835,2.456c-.94.834-1.971,1.516-2.941,2.3L341.25,198l-3.032,1.94-2.926,1.864-2.941,1.516-2.789,1.516c-.894.485-1.834.788-2.7,1.167-1.743.728-3.335,1.364-4.775,1.895l-3.79,1.107c-2.107.606-3.32.925-3.32.925a1.206,1.206,0,0,1-.834-2.259h.106s1.122-.485,3.032-1.273l3.532-1.41,4.411-2.2c.788-.424,1.667-.773,2.486-1.288l2.592-1.516,2.729-1.607,2.729-1.895,2.941-1.955c.894-.728,1.819-1.516,2.744-2.183a33.877,33.877,0,0,0,2.789-2.228l2.7-2.4c1.834-1.516,3.486-3.3,5.215-4.927s3.244-3.4,4.775-5.078,2.956-3.32,4.229-4.957,2.547-3.153,3.638-4.548,2.062-2.8,2.956-3.987,1.592-2.259,2.168-3.153l1.334-2.046.47-.728h0a1.2,1.2,0,0,1,2.107,1.137Z" transform="translate(-7200.797 -10219.397)" fill="#421c15"/>
    <path id="Path_3093" data-name="Path 3093" d="M354.445,162.916l-.455.167-1.243.5c-1.091.44-2.638,1.091-4.548,1.88a64.43,64.43,0,0,0-6.063,2.941c-1.122.531-2.2,1.228-3.365,1.819a37.812,37.812,0,0,0-3.335,2.046,32.515,32.515,0,0,0-3.214,2.213c-.985.819-2.077,1.516-2.956,2.319a33.831,33.831,0,0,0-2.622,2.365c-.758.8-1.607,1.516-2.2,2.243s-1.228,1.425-1.758,2.016l-1.213,1.667-1.107,1.516-.076.121a1.2,1.2,0,0,1-1.683.227,1.182,1.182,0,0,1-.364-1.44l.8-1.789c.273-.546.576-1.258.985-2.031s1-1.516,1.592-2.456a23.517,23.517,0,0,1,2.122-2.744,28.5,28.5,0,0,1,2.653-2.8,33.826,33.826,0,0,1,3.123-2.7c1.076-.925,2.289-1.652,3.441-2.486a53.6,53.6,0,0,1,7.306-3.926c1.2-.546,2.38-1.031,3.532-1.425s2.213-.758,3.229-1.061a43.138,43.138,0,0,1,4.942-1.182c.606-.106,1.091-.167,1.425-.212h.5a1.228,1.228,0,0,1,1.349,1.061,1.2,1.2,0,0,1-.773,1.258Z" transform="translate(-7198.363 -10217.853)" fill="#421c15"/>
    <path id="Path_3094" data-name="Path 3094" d="M368.79,162.955l.212.819c.136.531.349,1.3.606,2.274.515,1.986,1.395,4.76,2.456,8.095.576,1.652,1.137,3.456,1.849,5.321l1.061,2.9,1.2,3.032c.758,2.046,1.774,4.047,2.653,6.154s2.031,4.123,3.032,6.185a53.91,53.91,0,0,0,3.426,5.972c1.243,1.895,2.319,3.85,3.684,5.533s2.425,3.471,3.79,4.9l1.88,2.183a16.224,16.224,0,0,0,1.895,1.834c1.243,1.2,2.35,2.3,3.35,3.3a34.314,34.314,0,0,0,2.819,2.289c1.516,1.258,2.471,2,2.471,2l.106.106a1.184,1.184,0,1,1-1.379,1.925s-1.031-.606-2.82-1.743c-.879-.591-2.016-1.243-3.2-2.122s-2.456-1.971-3.85-3.138a20.482,20.482,0,0,1-2.077-1.94l-2.107-2.183a51.9,51.9,0,0,1-4.244-4.987,29.228,29.228,0,0,1-2.062-2.774l-1.971-2.941c-1.334-1.971-2.425-4.123-3.668-6.215a63.086,63.086,0,0,1-3.123-6.458c-.97-2.153-1.865-4.32-2.592-6.442l-1.122-3.123-.94-3.032c-.637-1.955-1.091-3.85-1.516-5.594-.849-3.486-1.364-6.442-1.7-8.5-.182-1.031-.258-1.864-.333-2.425l-.091-.864a1.2,1.2,0,0,1,2.365-.409Z" transform="translate(-7173.433 -10217.239)" fill="#421c15"/>
    <path id="Path_3095" data-name="Path 3095" d="M385.826,173.505l2.274,6.867c.682,2.046,1.516,4.441,2.334,7s1.819,5.26,2.88,7.913c.5,1.334,1,2.668,1.516,3.941s1.076,2.547,1.637,3.744,1.137,2.334,1.7,3.411,1.137,2.016,1.667,2.926a23.85,23.85,0,0,0,1.516,2.334l.682.955c.227.288.455.5.652.728.8.864,1.258,1.395,1.258,1.395l.152.167a1.2,1.2,0,0,1-1.516,1.758l-1.728-1.258c-.273-.212-.591-.44-.91-.712l-.925-.925a20.491,20.491,0,0,1-2.107-2.35,30.663,30.663,0,0,1-2.152-3.032,40.257,40.257,0,0,1-2.077-3.5c-.667-1.243-1.349-2.531-1.925-3.881s-1.182-2.713-1.728-4.108-1-2.789-1.516-4.169-.849-2.759-1.258-4.093c-.743-2.668-1.334-5.184-1.758-7.352a67.966,67.966,0,0,1-1.091-7.306h0a1.213,1.213,0,0,1,2.35-.47Z" transform="translate(-7164.698 -10211.663)" fill="#421c15"/>
    <path id="Path_3040" data-name="Path 3040" d="M414.767,247.993a11,11,0,0,1,.091,1.167,22.287,22.287,0,0,1-.106,3.153,30.166,30.166,0,0,1-.985,4.775c-.227.91-.637,1.834-.985,2.835a17.133,17.133,0,0,1-1.516,3.032,31.159,31.159,0,0,1-1.955,3.032,27.434,27.434,0,0,1-2.41,3.032c-.834,1.046-1.88,1.91-2.85,2.91a32.134,32.134,0,0,1-3.3,2.668l-3.593,2.4c-1.228.773-2.334,1.516-3.471,2.274a45.675,45.675,0,0,0-6.367,5.336,22.965,22.965,0,0,0-4.639,6.367,8.034,8.034,0,0,0-.531,6.427,8.883,8.883,0,0,0,4.548,4.275,15.172,15.172,0,0,0,1.516.652l1.743.743.819.349.879.5a11.33,11.33,0,0,1,1.652,1.046,9.944,9.944,0,0,1,4.032,5.7,10.232,10.232,0,0,1-.152,5.321,13.826,13.826,0,0,1-1.258,3.032l-.455.743-.182.273a1.2,1.2,0,0,1-2.062-1.213v-.106l.091-.2a2.451,2.451,0,0,1,.3-.621,13.753,13.753,0,0,0,.773-2.547,7.474,7.474,0,0,0-.167-3.8A7.049,7.049,0,0,0,391.2,307.9a6.823,6.823,0,0,0-1.213-.7l-.637-.334-.819-.3-1.592-.591c-.637-.212-1.273-.424-1.925-.712a15.462,15.462,0,0,1-3.8-2.244,10.444,10.444,0,0,1-3.032-3.9,10.611,10.611,0,0,1-.894-5.108,14.491,14.491,0,0,1,1.243-4.851,27.285,27.285,0,0,1,5.487-7.731,46.991,46.991,0,0,1,7.034-5.821c1.228-.849,2.532-1.683,3.714-2.38l3.411-2.137c1.046-.773,2.077-1.516,3.032-2.319a19.925,19.925,0,0,0,2.7-2.471,25.407,25.407,0,0,0,2.274-2.577,26.3,26.3,0,0,0,1.88-2.622,31.164,31.164,0,0,0,2.531-5.017,24.691,24.691,0,0,0,1.622-6.927c0-.621,0-.925,0-.955a1.2,1.2,0,0,1,2.38-.182Z" transform="translate(-7167.87 -10173.325)" fill="#421c15"/>
    <path id="Path_3034" data-name="Path 3034" d="M415.836,242.214s.424,1.895,1.41,5.184c.485,1.652,1.137,3.623,1.94,5.866s1.834,4.714,3.032,7.337a51.09,51.09,0,0,0,4.654,8.019,16.766,16.766,0,0,0,1.516,1.971c.546.621,1.031,1.319,1.637,1.895l1.789,1.774,1.986,1.516,2.289,1.743c.743.531,1.516,1.334,2.3,2a22.726,22.726,0,0,1,2.168,2.2,27.452,27.452,0,0,1,2,2.365,38.577,38.577,0,0,1,6.063,11.005,29.894,29.894,0,0,1,1.607,12.627c-.2,1.061-.3,2.137-.606,3.183a17.726,17.726,0,0,1-1.076,3.032l-.682,1.516a12.758,12.758,0,0,1-.849,1.364l-.819,1.228-.8,1.152a20.062,20.062,0,0,0-1.349,2.2c-.409.682-.773,1.516-1.137,2.243a23.8,23.8,0,0,0-1,2.319,22.936,22.936,0,0,0-.849,2.35,56.37,56.37,0,0,0-2.228,9.1,64.177,64.177,0,0,0-.8,7.852,37.086,37.086,0,0,0,.2,6.063,20.64,20.64,0,0,0,.788,3.653l.47,1.167v.212a1.182,1.182,0,0,1-.652,1.516,1.213,1.213,0,0,1-1.516-.576l-.713-1.425a21.425,21.425,0,0,1-1.228-4.138,41.865,41.865,0,0,1-.606-6.488,54.759,54.759,0,0,1,.44-8.352,59.593,59.593,0,0,1,2.016-9.7c.243-.849.515-1.713.834-2.562s.606-1.743,1-2.607.728-1.728,1.243-2.622a22.131,22.131,0,0,1,1.516-2.547l.773-1.167.743-1.152a12.036,12.036,0,0,0,.637-1.046l.5-1.152a14.516,14.516,0,0,0,.8-2.41c.227-.834.288-1.713.455-2.562a25.557,25.557,0,0,0-1.516-10.611,34.954,34.954,0,0,0-5.26-9.732,26.629,26.629,0,0,0-1.758-2.122c-.622-.652-1.213-1.379-1.865-1.94s-1.182-1.2-1.971-1.789l-2.152-1.7a31.728,31.728,0,0,1-7.67-8.443,55.176,55.176,0,0,1-4.654-8.792,71.652,71.652,0,0,1-2.835-7.807c-.682-2.365-1.243-4.441-1.622-6.154s-.637-3.032-.8-4.032-.227-1.516-.227-1.516a1.2,1.2,0,0,1,.985-1.379,1.213,1.213,0,0,1,1.364.925Z" transform="translate(-7149.232 -10176.263)" fill="#421c15"/>
    <path id="Path_3041" data-name="Path 3041" d="M418.779,249.875v1.167a25.594,25.594,0,0,1-.167,3.244c-.167,1.379-.364,3.032-.7,4.987a44.811,44.811,0,0,1-1.7,6.336,50.8,50.8,0,0,1-3.032,7.185,39.683,39.683,0,0,1-5,7.231,37.732,37.732,0,0,1-3.259,3.365c-1,1-2.228,2.046-3.244,3.032a21.222,21.222,0,0,0-4.76,6.624c-.834,2.38-.3,3.79,1.865,4.79a9.4,9.4,0,0,0,3.593.8h.758a4.654,4.654,0,0,0,.985-.152l.743-.212.97-.318c2.577-.94,5.215-2.046,7.761-3.032a53.232,53.232,0,0,1,7.413-2.259,27.265,27.265,0,0,1,3.471-.591,29.653,29.653,0,0,1,3.229-.106,17.522,17.522,0,0,1,5.245,1l1.834.788,1.228.834,1,.7a1.182,1.182,0,0,1,.3,1.652,1.2,1.2,0,0,1-1.516.364l-.212-.106-.879-.485-1.061-.576-1.516-.5a14.522,14.522,0,0,0-4.366-.5,20.9,20.9,0,0,0-2.774.3,18.1,18.1,0,0,0-3.032.7,52.157,52.157,0,0,0-6.837,2.441c-2.425,1-4.9,2.243-7.761,3.335l-1.107.394-1.379.379a7.438,7.438,0,0,1-1.2.212h-1.44a13.932,13.932,0,0,1-5.215-1.091,8.14,8.14,0,0,1-4.411-4.305,8.6,8.6,0,0,1,.106-6.139,19.384,19.384,0,0,1,1.182-2.456,16.481,16.481,0,0,1,1.516-2.137,24,24,0,0,0,1.516-1.925l1.728-1.789c1.152-1.137,2.228-2.046,3.38-3.123a31.824,31.824,0,0,0,3.032-2.926,42.437,42.437,0,0,0,4.76-6.336A46.828,46.828,0,0,0,413,264.215a52.957,52.957,0,0,0,3.032-10.444c.243-1.3.379-2.319.455-3.032a1.784,1.784,0,0,1,.091-.773,2.007,2.007,0,0,1,0-.288h0a1.2,1.2,0,0,1,2.4,0Z" transform="translate(-7160.21 -10172.569)" fill="#421c15"/>
    <path id="Path_3042" data-name="Path 3042" d="M322.817,201.376s.288,2.243.652,6.17c.152,1.971.349,4.35.576,7.094s.394,5.821.531,9.2.273,7.049.318,10.914,0,7.973-.106,12.218c-.076,2.122-.152,4.275-.318,6.458s-.273,4.4-.515,6.624c-.121,1.122-.227,2.228-.333,3.365s-.318,2.243-.485,3.365c-.273,2.259-.758,4.548-1.243,6.776-.212,1.137-.606,2.259-.925,3.38a29.657,29.657,0,0,1-1.061,3.365c-.47,1.137-.8,2.077-1.213,3.107s-.91,2.107-1.379,3.153c-1.88,4.138-3.972,8.019-6.063,11.687s-4.184,7.14-6.063,10.49a73.4,73.4,0,0,0-4.381,9.626c-.606,1.516-.925,3.032-1.41,4.457a30.009,30.009,0,0,0-.894,4.108c-.258,1.3-.333,2.531-.47,3.668s-.106,2.213-.152,3.168v2.547a14.04,14.04,0,0,0,.076,1.895v1.622a1.2,1.2,0,0,1-2.38.167l-.182-1.637c0-.531-.121-1.2-.212-1.971,0-.394-.091-.8-.136-1.258s0-.925,0-1.425v-3.35c0-1.228.2-2.532.3-3.941s.455-2.88.728-4.457a28.58,28.58,0,0,1,1.334-4.805,75.358,75.358,0,0,1,4.275-10.278c1.758-3.517,3.729-7.109,5.775-10.763s4.032-7.458,5.76-11.369c.424-.985.864-1.94,1.273-2.956s.773-2.092,1.167-3.138.606-2.031.925-3.032a30.442,30.442,0,0,0,.819-3.123c.409-2.153.94-4.26,1.213-6.442l.5-3.244.364-3.259c.258-2.168.44-4.32.576-6.458s.288-4.26.379-6.336.167-4.138.227-6.154.136-3.972.152-5.9c.091-3.835.076-7.473,0-10.823-.076-6.7-.152-12.294-.3-16.2s-.212-6.154-.212-6.154a1.262,1.262,0,0,1,2.516-.152Z" transform="translate(-7210.285 -10197.438)" fill="#421c15"/>
    <path id="Path_3043" data-name="Path 3043" d="M329.246,253l.091.667c0,.44.182,1.122.227,1.955s.182,1.849.212,3.032a37.857,37.857,0,0,1,0,3.941c-.106,1.44-.121,3.032-.273,4.669s-.5,3.411-.8,5.215c-.242.894-.5,1.819-.743,2.729-.136.5-.227.864-.424,1.516l-.5,1.288a26.872,26.872,0,0,1-1.107,2.653c-.424.894-.819,1.834-1.319,2.668a80.809,80.809,0,0,1-6.063,9.474c-1,1.44-2.031,2.789-2.9,4.078-.455.637-.864,1.273-1.228,1.88a15.307,15.307,0,0,0-1.016,1.758,8.17,8.17,0,0,0-1.2,5.487,5.03,5.03,0,0,0,.455,1.516l.2.546.106.258a1.182,1.182,0,0,1-2.107,1.046l-.409-.652a6.641,6.641,0,0,1-.955-2,8.656,8.656,0,0,1-.424-3.471,13.417,13.417,0,0,1,1.046-4.214,20.8,20.8,0,0,1,.985-2.137c.349-.728.758-1.44,1.182-2.153.849-1.44,1.774-2.88,2.744-4.35,1.925-2.941,3.941-6.063,5.609-9.2a41.676,41.676,0,0,0,2.259-4.836l.515-1.273.364-1.152c.258-.819.515-1.622.758-2.41s.364-1.637.546-2.425a23.594,23.594,0,0,0,.47-2.334c.243-1.516.485-3.032.621-4.366.333-2.729.5-5.033.561-6.639a10.223,10.223,0,0,1,.091-1.849,1.36,1.36,0,0,0,0-.682h0a1.2,1.2,0,0,1,1.228-1.182A1.213,1.213,0,0,1,329.246,253Z" transform="translate(-7203.056 -10170.733)" fill="#421c15"/>
    <path id="Path_3044" data-name="Path 3044" d="M342.477,259.928v.333a7.688,7.688,0,0,1,0,.955,21.472,21.472,0,0,1-.182,3.289,28.974,28.974,0,0,1-.955,4.548c-.273.8-.515,1.652-.879,2.486s-.682,1.683-1.122,2.5a26.284,26.284,0,0,1-2.941,4.548,15.245,15.245,0,0,1-1.652,1.865,12.683,12.683,0,0,1-1.637,1.516c-.531.44-1.031.834-1.516,1.167s-.894.546-1.243.758c-.682.409-1.091.621-1.091.621a1.2,1.2,0,0,1-1.516-1.819v-.106s.273-.333.758-.879c.243-.273.531-.606.864-.955l1.046-1.319c.409-.455.773-1,1.182-1.516a20.813,20.813,0,0,0,1.228-1.8,19.711,19.711,0,0,0,1.2-1.986,22.01,22.01,0,0,0,1.152-2.122c.758-1.425,1.364-2.941,1.97-4.335.258-.728.561-1.41.788-2.077l.682-1.88c.394-1.182.728-2.183.94-2.88l.349-1.076a1.184,1.184,0,1,1,2.365-.106Z" transform="translate(-7193.564 -10167.39)" fill="#421c15"/>
    <path id="Path_3045" data-name="Path 3045" d="M370.373,291.473l-3.289,109.536C343.1,333.69,342.83,287.486,342.83,281.62c2.213,8.822,7.716,21.222,10.611,21.98,4.184,1.152,12.127-8,15.644-12.46Z" transform="translate(-7185.627 -10155.474)" fill="#dcf4f3"/>
    <path id="Path_3035" data-name="Path 3035" d="M362.736,286.973s7.852,14.507,14.022,15.538c1.834.3,6.412-5.351,8.079-7.5a24.661,24.661,0,0,0,2.213,1.091l-28.1,104.063-.136-.2v-1.516l3.32-109.581-1.213-.333c.561-.7,1.016-1.289,1.319-1.7l.318-.167Z" transform="translate(-7177.383 -10152.87)" fill="#dcf4f3"/>
    <path id="Path_3046" data-name="Path 3046" d="M362.606,287.194l-.3,17.523c-.258,10.5-.591,24.511-.925,38.518s-.91,28.013-1.243,38.518-.7,17.493-.7,17.493a.379.379,0,0,1-.409.379.394.394,0,0,1-.379-.394l.3-17.523c.243-10.5.576-24.511.925-38.518s.894-28.013,1.243-38.5l.682-17.508a.4.4,0,0,1,.8.015Z" transform="translate(-7177.465 -10152.804)" fill="#bcced1"/>
    <path id="Path_3047" data-name="Path 3047" d="M426.629,262.15c-.591-8.019,2.077-16.417,7.306-21.571C378.8,215.8,383.913,160.77,384.17,158.86c-.44,1.516-13.794,48.416-62.893,56.708,0,3.032.364,28.18-.758,32.682-1.895,7.579-7.231,12.369-6.063,25.77,1.592,18.387,27.285,34.759,50.266,39.958l-.758,14.249-.243,4.669-.273.152c2.577,4.654,10.035,16.386,21.495,19.8l.288-.136.318-.167a84.732,84.732,0,0,0,12.127-7.215c-.531-10.05,3.729-25.77,14.719-34.865,1.228-1.031,2.4-2.031,3.5-3.032,16.568-14.931,18.6-25.466,18.706-26.148C428.842,277.142,427.19,269.73,426.629,262.15Z" transform="translate(-7200.348 -10218.8)" fill="#f7cfb5"/>
    <path id="Path_3096" data-name="Path 3096" d="M381.295,143.38c4.805.758.243,12.339-1.516,12.642C378.263,156.265,376.49,142.622,381.295,143.38Z" transform="translate(-7167.397 -10226.802)" fill="#532a22"/>
    <path id="Path_3097" data-name="Path 3097" d="M381.56,154.315c0-1.516,13.142-10.111,13.142-4.047C394.7,154.816,381.56,155.831,381.56,154.315Z" transform="translate(-7165.647 -10224.337)" fill="#532a22"/>
    <path id="Path_3063" data-name="Path 3063" d="M388.428,236.039c-.591-8.019,2.077-16.417,7.306-21.571a16.584,16.584,0,0,1,12.9-4.957h.273v1.516c-.379,0-2.274,4.093-2.653,4.093-9.277,0-12.885,6.154-12.885,19.327,0,12.127,4.063,22.617,12.385,24.041a19.1,19.1,0,0,1-9.429-3.32C390.641,251.03,388.988,243.618,388.428,236.039Z" transform="translate(-7162.146 -10192.688)" fill="#0f100c"/>
    <path id="Path_3064" data-name="Path 3064" d="M423.666,234.33c0,12.915-7.231,23.45-16.265,23.829-.879,0-1.713-.076-2.516-.152-8.322-1.425-14.764-11.49-14.764-23.678,0-13.173,7.5-23.844,16.78-23.844a9.518,9.518,0,0,1,1.137,0c.076,3.168,7.276,6.063,7.4,3.274C420.361,217.959,423.666,225.6,423.666,234.33Z" transform="translate(-7161.232 -10192.179)" fill="#2a2927"/>
    <path id="Path_3065" data-name="Path 3065" d="M398.333,231.1c0,8.307,3.486,15.28,9.459,15.28a7.824,7.824,0,0,0,1.2-.091,8.292,8.292,0,0,1-3.032.576c-6.2,0-12.127-6.943-11.793-15.507.379-9.853,5.563-15.537,11.748-15.568v.712C400.834,217.745,398.333,223.688,398.333,231.1Z" transform="translate(-7159.151 -10189.433)" fill="#353433"/>
    <path id="Path_3066" data-name="Path 3066" d="M411.926,218.069a8.777,8.777,0,0,0-6.973-2.259c-5.169.652-8.944,8.11-8.944,15.538,0,8.307,4.851,15.052,10.823,15.052a7.822,7.822,0,0,0,1.2-.091c5.4-.834,9.611-7.215,9.611-14.961C417.641,225.588,415.322,220.677,411.926,218.069Z" transform="translate(-7158.193 -10189.454)" fill="#3f3e3e"/>
    <path id="Path_3067" data-name="Path 3067" d="M300.5,269.065c-.7,3.3-1.516,7.579-2.183,12.127-24.42,3.032-38.533-5.684-40.928-7.337.788-3.835,1.713-7.867,2.759-11.945C261.513,262.729,278.764,264.911,300.5,269.065Z" transform="translate(-7229.701 -10165.64)" fill="#ebffff"/>
    <path id="Path_3036" data-name="Path 3036" d="M398.812,328.24C395.28,334.3,358.9,396.953,358.9,396.953L387,292.89c3.032,1.334,5.048,1.774,5.245,4.9a15.72,15.72,0,0,0,7.655,12.672C400.3,312.626,401.965,322.843,398.812,328.24Z" transform="translate(-7177.336 -10149.661)" fill="#2f4c5e"/>
    <path id="Path_3037" data-name="Path 3037" d="M359.091,400.7s36.38-62.65,39.912-68.714c3.153-5.4,1.516-15.613,1.091-17.781a19.9,19.9,0,0,0,12.809,1.728c11.99-1.758,15.856-23.572,25-30.317,2.168,1.167,8.686,5.305,13.643,15.568,4.441,9.1,7.034,29.5,8.534,49.038,1.834,23.587,2.077,45.961,2.077,45.961-29.1,18.054-70.927,19.8-103.624,17.493v-.318l.379-12.824Z" transform="translate(-7177.526 -10153.411)" fill="#16323d"/>
    <path id="Path_3048" data-name="Path 3048" d="M347.166,348.912c-4.244,4.123-29.089,26.815-53.934,20.6-43.96-10.975-40.291-69.851-35.365-96,.227-1.2.47-2.44.743-3.684,2.4,1.652,16.508,10.429,40.928,7.337-2,13.718-2.744,30.711,4.548,36a5.5,5.5,0,0,0,5.336.455c6.7-2.3,16.9-12.809,33.7-24.329,24.981-17.144,42.535-16.265,45.476-15.962-2.334,1.516-5.108,4.654-6.4,11.035-3.032,14.916-7.579,41.155-7.579,52.3,0,12.7,35.4,68.35,37.76,72.064L412,421.552v.318a347.48,347.48,0,0,1-50.235-7.14s-18.569-16.674-20.843-36.759C340.269,372.681,343.695,360.084,347.166,348.912Z" transform="translate(-7230.921 -10161.556)" fill="#16323d"/>
    <path id="Path_3049" data-name="Path 3049" d="M361.3,289.125a84.737,84.737,0,0,0,12.127-7.215,15.766,15.766,0,0,0,1.956,7.579,23.784,23.784,0,0,0,8.2,8c-1.668,2.153-6.245,7.807-8.08,7.5-6.17-1.031-14.022-15.538-14.022-15.538Z" transform="translate(-7176.099 -10155.325)" fill="#ebffff"/>
    <path id="Path_3050" data-name="Path 3050" d="M342.27,280.66c.318-5.654,2.622-8.125,4.548-9.2h0a6.23,6.23,0,0,1,2.653-.819l-.243,4.669-.273.152c2.577,4.654,10.035,16.386,21.495,19.8l.288-.136c-.3.409-.758,1-1.319,1.7-3.547,4.457-11.46,13.643-15.644,12.46-2.9-.788-8.4-13.158-10.611-21.98A24.631,24.631,0,0,1,342.27,280.66Z" transform="translate(-7185.915 -10161.138)" fill="#ebffff"/>
    <path id="Path_3051" data-name="Path 3051" d="M395.414,259.922c1.228-1.031,2.395-2.031,3.5-3.032a83.01,83.01,0,0,1-38.124,8.307,66.694,66.694,0,0,1-13.021-1.728l-.591,11.323c15.522-.333,31.12-4.927,44.612-11.339A34.659,34.659,0,0,1,395.414,259.922Z" transform="translate(-7183.383 -10168.231)" fill="#5a287f" opacity="0.2"/>
    <path id="Path_3068" data-name="Path 3068" d="M301.578,264.286c.424-.212,9.747-5.063,11.975-1.364s-12.369,16.356-12.369,16.356-.712,2.713-1.622,6.958a65.015,65.015,0,0,1-40.352-7.17c6.063-23.526,15.522-48.8,20.752-48.174,5.472.652,1.895,18.948,1.895,18.948s9.853-23.117,15.159-21.222-3.411,25.012-3.411,25.012,10.99-16.674,15.538-13.643S302,263.543,301.578,264.286Z" transform="translate(-7228.763 -10182.872)" fill="#f7cfb5"/>
    <path id="Path_3052" data-name="Path 3052" d="M348.681,272.559a8.961,8.961,0,0,1,3.274-1.379c-1.94,1.076-4.244,3.547-4.547,9.2a24.635,24.635,0,0,0,.955,6.624c0,5.866.2,52.07,24.254,119.389v1.516c-2.365-3.714-40.276-59.331-40.276-72.033,0-11.142,7.064-37.411,10.1-52.327C343.572,277.213,346.346,274.075,348.681,272.559Z" transform="translate(-7191.037 -10160.86)" fill="#2f4c5e"/>
    <path id="Path_3098" data-name="Path 3098" d="M387.234,159.362h0a56.2,56.2,0,0,1-1.971,6.17,63.694,63.694,0,0,1-2.486,5.972,95.763,95.763,0,0,1-6.306,11.293c-1.167,1.8-2.44,3.562-3.759,5.275s-2.729,3.35-4.184,4.957-3.032,3.153-4.548,4.639a53.274,53.274,0,0,1-4.927,4.244c-.834.682-1.713,1.319-2.607,1.94s-1.758,1.258-2.683,1.834c-1.819,1.2-3.714,2.259-5.594,3.32a50.924,50.924,0,0,1-5.882,2.789,30.524,30.524,0,0,1-3.032,1.213c-1.031.349-2.031.773-3.032,1.061l-3.107.925c-1.046.3-2.107.531-3.153.788s-2.107.485-3.168.667-2.092.394-3.229.561c-2.122.227-4.229.485-6.351.682l-6.473.2a.8.8,0,0,1-.106-1.592h0l6.26-.546c2.107-.3,4.214-.667,6.306-.985l3.032-.652q1.516-.288,3.032-.728c1.016-.288,2.031-.531,3.032-.849l3.032-.985c1-.318,1.956-.758,2.926-1.122s1.955-.758,2.9-1.213c1.925-.8,3.774-1.774,5.624-2.744a51.57,51.57,0,0,0,5.336-3.244c.894-.561,1.728-1.167,2.577-1.789s1.683-1.228,2.486-1.895q2.456-1.94,4.775-4.047c1.516-1.41,3.032-2.9,4.441-4.426s2.774-3.123,4.078-4.745,2.547-3.335,3.744-5.048A93.631,93.631,0,0,0,380.7,170.5c.97-1.864,1.88-3.774,2.713-5.7s1.622-3.881,2.289-5.851h0v-.121a.788.788,0,0,1,1.016-.485.819.819,0,0,1,.515,1.016Z" transform="translate(-7202.608 -10219.091)" fill="#421c15"/>
    <path id="Path_3069" data-name="Path 3069" d="M409.154,240.77l-3.956-1.758c-1.273-.515-2.774-1.379-4.548-2.259s-3.593-2.077-5.654-3.289a49.076,49.076,0,0,1-6.306-4.548l-1.652-1.288c-.546-.455-1.076-.925-1.622-1.41-1.091-.955-2.2-1.94-3.244-3.032s-2.153-2.137-3.153-3.32l-1.516-1.758-1.516-1.849a72.17,72.17,0,0,1-5.472-7.882,76.922,76.922,0,0,1-4.335-8.565,78.825,78.825,0,0,1-3.214-8.7,84.424,84.424,0,0,1-3.107-16.1,80.172,80.172,0,0,1-.243-11.581,23.817,23.817,0,0,1,.273-3.244l.136-1.137h0a.8.8,0,0,1,1.592.167s-.121,1.516-.136,4.275a87.528,87.528,0,0,0,.758,11.263c.273,2.319.712,4.82,1.273,7.428s1.319,5.321,2.153,8.11a79.883,79.883,0,0,0,3.183,8.368,77.788,77.788,0,0,0,4.259,8.186,80.349,80.349,0,0,0,5.2,7.579l1.395,1.789,1.516,1.7a44.053,44.053,0,0,0,3.032,3.244c1.046,1.031,2.062,2.016,3.032,2.956l1.516,1.41,1.516,1.288c2.016,1.758,4.108,3.2,5.973,4.548l2.819,1.834a20.506,20.506,0,0,0,2.547,1.516c1.652.955,3.032,1.849,4.29,2.441l3.835,2.016a.834.834,0,0,1-.7,1.516Z" transform="translate(-7177.021 -10219.036)" fill="#421c15"/>
    <path id="Path_3038" data-name="Path 3038" d="M396.691,315.068s.2,1.258.44,3.486.591,5.4.894,9.216c.167,1.91.288,3.971.424,6.154s.3,4.548.394,6.9.152,4.866.227,7.367.182,5.063.136,7.579,0,5.093,0,7.579-.091,4.987-.167,7.382-.212,4.7-.318,6.9-.2,4.26-.394,6.17c-.349,3.8-.637,6.988-.849,9.2s-.364,3.5-.364,3.5a.8.8,0,0,1-1.592-.106h0s0-1.273.091-3.5.2-5.4.333-9.2c.106-1.895.152-3.956.152-6.139s0-4.548.106-6.867.121-4.836.076-7.322,0-5.048,0-7.579c0-5.078-.136-10.156-.2-14.916,0-2.38-.136-4.669-.2-6.852s-.091-4.244-.2-6.154c-.136-3.8-.273-6.973-.349-9.186s-.152-3.5-.152-3.5a.8.8,0,0,1,1.592-.167Z" transform="translate(-7158.616 -10138.597)" fill="#001f28"/>
    <path id="Path_3053" data-name="Path 3053" d="M384.573,294.334a45.678,45.678,0,0,1-3.153,4.35c-.515.622-1.076,1.289-1.728,1.971a12.851,12.851,0,0,1-2.259,2,5.412,5.412,0,0,1-.788.424,2.017,2.017,0,0,1-1.167.152,6.669,6.669,0,0,1-1.622-.515,12.308,12.308,0,0,1-2.819-1.865,33.731,33.731,0,0,1-4.335-4.684,55.065,55.065,0,0,1-3.123-4.548c-.864-1.364-1.516-2.562-1.925-3.38s-.667-1.319-.667-1.319a.2.2,0,0,1,.091-.258.212.212,0,0,1,.243.076s1.2,1.758,3.032,4.32c.94,1.289,2.092,2.744,3.35,4.26a32.224,32.224,0,0,0,4.26,4.381,12.038,12.038,0,0,0,2.471,1.637,5.4,5.4,0,0,0,1.319.455,2.121,2.121,0,0,0,.879-.364,16.281,16.281,0,0,0,2.122-1.7c.652-.606,1.258-1.213,1.8-1.789,1.076-1.167,1.986-2.122,2.592-2.835l.97-1.091a.243.243,0,0,1,.364,0,.258.258,0,0,1,.091.318Z" transform="translate(-7176.27 -10152.878)" fill="#bcced1"/>
    <path id="Path_3054" data-name="Path 3054" d="M325.842,308.511v.258a1.829,1.829,0,0,1-.152.788,9.476,9.476,0,0,0-.334,1.334c-.121.515-.288,1.031-.47,1.652-.712,2.456-1.713,5.972-3.032,10.141s-2.668,9.1-4.153,14.31c-.728,2.622-1.516,5.336-2.122,8.095s-1.213,5.593-1.667,8.4a26.9,26.9,0,0,0-.273,4.063v.94l.152,1.061c.121.712.2,1.516.349,2.122a48.124,48.124,0,0,0,2.35,7.746c.485,1.243,1.061,2.425,1.516,3.608a23.281,23.281,0,0,0,1.728,3.35,69.077,69.077,0,0,0,3.623,5.912c1.228,1.789,2.395,3.38,3.456,4.775s2.062,2.562,2.9,3.517c1.637,1.91,2.638,2.956,2.638,2.956a.8.8,0,0,1-1.107,1.152h0s-1.107-.97-2.91-2.835c-.894-.925-1.956-2.077-3.138-3.441s-2.471-2.926-3.759-4.729a66.178,66.178,0,0,1-3.956-5.988,54.128,54.128,0,0,1-3.638-7.2,50.385,50.385,0,0,1-2.607-8.322c-.167-.743-.242-1.425-.379-2.153l-.167-1.061v-1.243a29.068,29.068,0,0,1,.243-4.639c.455-2.956,1.091-5.851,1.8-8.671s1.516-5.533,2.228-8.186,1.516-5.154,2.35-7.579,1.516-4.623,2.243-6.715c1.41-4.138,2.683-7.579,3.517-9.959.394-1.167.712-2.077.925-2.683a4.854,4.854,0,0,0,.212-.728q0-.273,0-.273v-.106a.8.8,0,0,1,.955-.591.818.818,0,0,1,.682.925Z" transform="translate(-7202.216 -10142.089)" fill="#001f28"/>
    <path id="Path_3070" data-name="Path 3070" d="M272.54,245.786a11.413,11.413,0,0,1,2.744-.485,16.447,16.447,0,0,1,2.85,0,7.031,7.031,0,0,1,1.516.227,15.992,15.992,0,0,1,4.654,1.652,8.56,8.56,0,0,1,1.3.8,8,8,0,0,1,1.092.849,8.884,8.884,0,0,1,1.425,1.516c.318.394.47.622.47.622a.788.788,0,0,1-.167,1.122.8.8,0,0,1-.879,0h-.076l-.591-.349-.667-.424-.894-.47a9.571,9.571,0,0,0-1.046-.531,10.916,10.916,0,0,0-1.2-.515,9.582,9.582,0,0,0-1.3-.485,12.122,12.122,0,0,0-1.379-.44c-.94-.288-1.895-.485-2.8-.682s-1.758-.333-2.516-.455l-2.486-.364h0a.8.8,0,0,1-.576-.985A.788.788,0,0,1,272.54,245.786Z" transform="translate(-7222.174 -10174.241)" fill="#b97777"/>
    <path id="Path_3055" data-name="Path 3055" d="M407.441,240.157h0v-.182a26.238,26.238,0,0,1-1.986,5.684c-.455.879-.864,1.789-1.334,2.638l-1.516,2.531a23.626,23.626,0,0,1-1.637,2.441l-1.728,2.38c-1.167,1.516-2.516,3.032-3.759,4.548s-2.713,2.8-4.078,4.2-2.789,2.789-4.26,4.017l-2.153,1.91a23.332,23.332,0,0,0-2.061,1.971,34.488,34.488,0,0,0-3.517,4.275,46.673,46.673,0,0,0-7.928,20.767,36.124,36.124,0,0,0-.3,5.563v1.334l.152,1.44a10.457,10.457,0,0,0,.212,1.319,12.531,12.531,0,0,0,.288,1.258l.409,1.213.546,1.061v.136h0v.076l.227.288.424.591.879,1.152a15.98,15.98,0,0,0,1.986,1.94,17.181,17.181,0,0,0,1.971,1.8,18.415,18.415,0,0,0,2.213,1.516c.637.364,1.728.894,2.425,1.228s1.758.728,2.744,1.243a5.745,5.745,0,0,1,2.683,2.683,7.581,7.581,0,0,1,.318.94l.136.894c.076.47.121.955.182,1.516a14.267,14.267,0,0,0,.576,2.531,20.026,20.026,0,0,0,.985,2.44,14.386,14.386,0,0,0,1.516,2.183,13.144,13.144,0,0,0,3.881,3.335,15.162,15.162,0,0,0,2.456,1.016,16.673,16.673,0,0,0,2.607.591,23.173,23.173,0,0,0,5.427,0l1.3-.136a10.41,10.41,0,0,0,1.334-.3,11.064,11.064,0,0,0,2.289-1,24.389,24.389,0,0,0,7.231-8.11c2-3.214,3.729-6.655,5.669-10.035a37.2,37.2,0,0,1,7.094-9.52,12.123,12.123,0,0,1,1.273-.955,10.213,10.213,0,0,1,1.3-.773,6.958,6.958,0,0,1,1.516-.606,8.532,8.532,0,0,1,1.516-.379,11.308,11.308,0,0,1,6.063.849.8.8,0,0,1,.44,1.046.819.819,0,0,1-1.031.44,9.611,9.611,0,0,0-5.23-.591,7.852,7.852,0,0,0-2.425.864,9.562,9.562,0,0,0-1.167.728c-.318.212-.682.561-1.016.834a35.213,35.213,0,0,0-6.4,9.171c-1.819,3.365-3.517,6.837-5.533,10.217a26.725,26.725,0,0,1-7.958,9.1,12.384,12.384,0,0,1-3.032,1.364,15.146,15.146,0,0,1-1.516.364l-1.516.2a24.964,24.964,0,0,1-6.063,0,19.216,19.216,0,0,1-3.032-.682,15.16,15.16,0,0,1-2.88-1.182,14.753,14.753,0,0,1-1.395-.864,8.481,8.481,0,0,1-1.289-.94,14.956,14.956,0,0,1-2.213-2.274,17.639,17.639,0,0,1-1.789-2.547,19.112,19.112,0,0,1-1.2-2.9,17.416,17.416,0,0,1-.773-3.168,9.6,9.6,0,0,0-.182-1.44l-.076-.531c0-.152-.106-.273-.152-.424a2.834,2.834,0,0,0-1.379-1.258c-.728-.379-1.667-.743-2.531-1.122s-1.7-.8-2.759-1.364a21.093,21.093,0,0,1-2.547-1.758,15.816,15.816,0,0,1-2.319-2.092,19.576,19.576,0,0,1-2-2.3l-.864-1.152-.44-.591-.212-.288v-.076s-.091-.106-.076-.106h0l-.106-.2c-.258-.5-.546-1-.773-1.516l-.5-1.516a13.647,13.647,0,0,1-.349-1.516,15.177,15.177,0,0,1-.243-1.516l-.136-1.516v-1.561a37.492,37.492,0,0,1,.364-5.988,48.507,48.507,0,0,1,8.595-22,37.112,37.112,0,0,1,3.926-4.548c.7-.758,1.425-1.319,2.153-1.986l2.213-1.895c1.516-1.228,2.835-2.531,4.229-3.865a56.438,56.438,0,0,0,4.047-4.032c1.258-1.425,2.622-2.759,3.79-4.26l1.743-2.243a20.342,20.342,0,0,0,1.667-2.319l1.516-2.38c.485-.819.894-1.652,1.349-2.486a23.984,23.984,0,0,0,2-5.154V239.7h0v-.091a.793.793,0,1,1,1.425.7Z" transform="translate(-7172.459 -10177.374)" fill="#421c15"/>
    <path id="Path_3056" data-name="Path 3056" d="M359.725,360.848s0,.864.106,2.168,0,3.032,0,4.79c0,.864-.106,1.728-.152,2.547s-.152,1.516-.212,2.228c-.136,1.288-.288,2.152-.288,2.152a.424.424,0,0,1-.47.333.409.409,0,0,1-.333-.364s-.076-.879-.106-2.183v-4.775c.091-1.743.2-3.471.349-4.775s.3-2.168.3-2.168a.409.409,0,0,1,.8,0Z" transform="translate(-7177.662 -10114.798)" fill="#001f28"/>
    <path id="Path_3057" data-name="Path 3057" d="M347.03,271.17a5.058,5.058,0,0,0-.591.409,8.668,8.668,0,0,0-1.425,1.516,11.162,11.162,0,0,0-.773,1.213,9.484,9.484,0,0,0-.637,1.516,9.873,9.873,0,0,0-.455,1.865,15.28,15.28,0,0,0-.258,2.137,6.869,6.869,0,0,0,0,1.122,7.574,7.574,0,0,0,.091,1.182c.091.773.243,1.592.424,2.44.394,1.667.864,3.456,1.44,5.245A87.648,87.648,0,0,0,349.2,300.82a39.051,39.051,0,0,0,2.835,5.215,8.809,8.809,0,0,0,1.774,2.046c.076.076.136.076.212.121s.212.091.106.091l.728.091a4.545,4.545,0,0,0,1.107-.227,14.883,14.883,0,0,0,4.457-2.683,45.567,45.567,0,0,0,3.592-3.259c2.137-2.153,3.85-4.032,5-5.381l1.8-2.122a.2.2,0,0,1,.273,0,.182.182,0,0,1,0,.258l-.409.591c-.288.379-.667.97-1.213,1.683-1.091,1.425-2.638,3.456-4.714,5.715-1.061,1.122-2.228,2.319-3.562,3.486a14.52,14.52,0,0,1-4.836,3.032,5.078,5.078,0,0,1-1.713.288l-.728-.076a2.546,2.546,0,0,1-.546-.212,2.786,2.786,0,0,1-.424-.227,10.231,10.231,0,0,1-2.137-2.41,40.921,40.921,0,0,1-3.032-5.4,84.509,84.509,0,0,1-4.2-11.278,41.421,41.421,0,0,1-1.258-5.412A21.607,21.607,0,0,1,342,282.16a8.464,8.464,0,0,1,0-1.228,6.183,6.183,0,0,1,.091-1.2,12.3,12.3,0,0,1,.379-2.2,11.457,11.457,0,0,1,.622-1.925,11.77,11.77,0,0,1,.8-1.516,10.259,10.259,0,0,1,.91-1.2,7.461,7.461,0,0,1,1.592-1.334A5.846,5.846,0,0,1,347.03,271.17Z" transform="translate(-7186.066 -10160.864)" fill="#bcced1"/>
    <path id="Path_3058" data-name="Path 3058" d="M370.937,259.325a1.51,1.51,0,0,1-.5-2.956c.318-.106,31.333-9.489,41.368-15.158,2.35-1.349,5.093-9.216,6.291-14.37a1.517,1.517,0,1,1,2.956.682c-.531,2.289-3.411,13.84-7.731,16.326-10.338,5.9-40.716,15.083-42,15.477A1.514,1.514,0,0,1,370.937,259.325Z" transform="translate(-7171.94 -10184.339)" fill="#595757"/>
    <path id="Path_3059" data-name="Path 3059" d="M379.265,246.887c-.455-1.834-2.728-3.881-8.686-2.638-5.018,1.031-8.5,2.471-8.519,5.715s4.335,4.654,9.186,3.729C378.643,252.3,379.977,249.858,379.265,246.887Z" transform="translate(-7175.707 -10174.948)" fill="#2a2927"/>
    <path id="Path_3099" data-name="Path 3099" d="M349.623,198.268c-.152-1.94-4.714-4.684-11.93-2.668-6.791,1.88-12.627,9.323-11.839,11.187.925,2.213,3.5-.925,10.99-3.3C342.423,201.694,350.017,202.922,349.623,198.268Z" transform="translate(-7194.42 -10200.212)" fill="#411d14"/>
    <path id="Path_3100" data-name="Path 3100" d="M362.111,198.285c.606-1.849,5.669-3.471,12.233.152,6.17,3.4,10.141,11.975,8.944,13.643-1.395,1.925-3.2-1.713-9.929-5.745C368.326,203.272,360.656,202.726,362.111,198.285Z" transform="translate(-7175.772 -10199.501)" fill="#411d14"/>
    <path id="Path_3071" data-name="Path 3071" d="M343.344,218.477c.682-2.41,5.912-6.185,11.445-4.714a9.4,9.4,0,0,1,7.322,9.4c-.227,2.607-4.29,5.881-11.824,4.457S342.783,220.463,343.344,218.477Z" transform="translate(-7185.474 -10190.649)" fill="#cb8191" opacity="0.3"/>
    <path id="Path_3072" data-name="Path 3072" d="M351.247,223.718c-.379-.531,4.548-3.911,5.518-2.653S352,224.794,351.247,223.718Z" transform="translate(-7181.294 -10186.856)" fill="#4a362c"/>
    <path id="Path_3073" data-name="Path 3073" d="M350.249,227.575a7.864,7.864,0,0,1-.955,0,8.233,8.233,0,0,1-2.486-.531,7.231,7.231,0,0,1-3.153-2.2,6.52,6.52,0,0,1-1.076-2.092,6.837,6.837,0,0,1-.243-2.4,7.036,7.036,0,0,1,.576-2.334,8.5,8.5,0,0,1,1.3-1.865,9.548,9.548,0,0,1,3.032-2.062,11.066,11.066,0,0,1,2.365-.712c.591-.091.94-.106.94-.106a.424.424,0,0,1,.424.394.379.379,0,0,1-.182.334h0l-.712.485c-.455.318-1.091.773-1.789,1.334a10.94,10.94,0,0,0-2.016,2.077,5.035,5.035,0,0,0-.667,1.258,5.294,5.294,0,0,0-.273,1.395,4.549,4.549,0,0,0,.606,2.638,7.111,7.111,0,0,0,1.834,1.971,17.285,17.285,0,0,0,1.834,1.2l.758.424h0a.394.394,0,0,1,.152.546.44.44,0,0,1-.273.243Z" transform="translate(-7185.891 -10190.728)" fill="#b97777"/>
    <path id="Path_3074" data-name="Path 3074" d="M363.564,219.622c-.212,3.85,2.259,7.109,5.5,7.291s6.063-2.8,6.276-6.639-2.259-7.109-5.518-7.291S363.761,215.787,363.564,219.622Z" transform="translate(-7174.938 -10190.886)"/>
    <path id="Path_3075" data-name="Path 3075" d="M368.146,215.018a13.493,13.493,0,0,0,4.32-.424c3.486-1.076,4.366-2.562,4.972-1.955s-2.683,6.549-8.171,6.958C369.267,219.6,367.615,216.2,368.146,215.018Z" transform="translate(-7172.621 -10191.132)"/>
    <path id="Path_3076" data-name="Path 3076" d="M340.949,217.619c0,3.85-2.729,6.943-5.988,6.9s-5.866-3.183-5.821-7.049,2.728-6.943,5.988-6.9S341.055,213.769,340.949,217.619Z" transform="translate(-7192.688 -10192.126)"/>
    <path id="Path_3077" data-name="Path 3077" d="M335.729,212.782a13.809,13.809,0,0,1-4.29-.712c-3.411-1.3-4.2-2.85-4.82-2.289s2.228,6.715,7.67,7.488C334.289,217.269,336.184,213.994,335.729,212.782Z" transform="translate(-7194.031 -10192.593)"/>
    <path id="Path_3078" data-name="Path 3078" d="M345.865,234.033a13.643,13.643,0,1,0-13.643,13.643A13.643,13.643,0,0,0,345.865,234.033Z" transform="translate(-7198.136 -10187.06)" fill="#e18192" opacity="0.5"/>
    <path id="Path_3079" data-name="Path 3079" d="M393.865,235.363a13.643,13.643,0,1,0-13.643,13.643A13.643,13.643,0,0,0,393.865,235.363Z" transform="translate(-7173.375 -10186.374)" fill="#e18192" opacity="0.5"/>
    <path id="Path_3080" data-name="Path 3080" d="M387.519,230.8s-7.064,8.277-28.665,7.367c-16.508-.7-22.313-3.5-23.4-4.184s-1.228-7.094-1.228-7.094l-.182-.394h0c4.441-2.122,9.989,3.153,21.04,4.032C371.951,231.866,382.987,222.513,387.519,230.8Z" transform="translate(-7190.16 -10184.165)" fill="#fffef8"/>
    <path id="Path_3060" data-name="Path 3060" d="M337.342,242.977c18.539-10.611,35.153-.728,37.9,1.076a41.276,41.276,0,0,1-23.056,4.2A29.392,29.392,0,0,1,337.16,243.2Z" transform="translate(-7188.552 -10177.903)" fill="#fc839a"/>
    <path id="Path_3081" data-name="Path 3081" d="M335.424,226.724s.152,6.427,1.228,7.094,6.9,3.487,23.4,4.184c21.6.91,28.665-7.367,28.665-7.367,3.138,5.715-.364,15.234-10.611,19.509-2.759-1.8-19.373-11.642-37.9-1.076l-.167.227c-9.474-6.867-9.626-18.4-6.564-21.616a6.063,6.063,0,0,1,1.819-1.349Z" transform="translate(-7191.362 -10183.997)"/>
    <path id="Path_3082" data-name="Path 3082" d="M411.5,164.264a62.268,62.268,0,0,0-10.944-6.063c-25.573-11.142-52.979-3.4-60.376-.909a66.893,66.893,0,0,1,22.586-.834c3.229,0,34.956.788,53.783,25.012,13.643,17.493,16.674,42.141,17.2,57.6v1.516c.076,3.168,0,5.882,0,7.989h0a8.292,8.292,0,0,1,3.032.576,8.746,8.746,0,0,1,3.9,1.683c.167-1.789.349-4.153.47-6.973C442.03,224.58,440.029,184.107,411.5,164.264Z" transform="translate(-7186.993 -10222.157)" fill="#6d6b6b"/>
    <path id="Path_3031" data-name="Path 3031" d="M299.24,404.14s6.063-16.674,50.023-16.674,133.4,10.111,189.482-57.6c9.808-11.839,15.9,55.162-46.991,75.793C427.087,426.878,406.866,397.577,299.24,404.14Z" transform="translate(-7208.111 -10131.306)" fill="#fff"/>
    <path id="Path_3101" data-name="Path 3101" d="M415.652,188.534c5.093-11.111,28.619-78.188-33.7-91.33s-254.315-15.159-288.71,7.079S51.271,197.25,113.587,212.409s258.969-11.4,277.265-9.1c20.979,2.653,41.974,17.19,45.779,15.159S415.652,188.534,415.652,188.534Z" transform="translate(-7327.92 -10255.659)" fill="#276d55" opacity="0.4"/>
    <path id="Path_3102" data-name="Path 3102" d="M415.652,183.534c5.093-11.111,28.619-78.188-33.7-91.33S127.639,77.045,93.245,99.283,51.271,192.25,113.587,207.409s258.969-11.4,277.265-9.1c20.979,2.653,41.974,17.19,45.779,15.159S415.652,183.534,415.652,183.534Z" transform="translate(-7327.92 -10258.239)" fill="#fff"/>
    <path id="Path_3103" data-name="Path 3103" d="M17.269-13.98a1.538,1.538,0,0,1-1.359-.662,2.834,2.834,0,0,1-.453-1.638q0-14.57-.558-24.608a16.734,16.734,0,0,0-2.37-.279,12.389,12.389,0,0,0-4.113.488q0,3.9.627,11.781Q9.6-20.533,9.6-17.048a2.19,2.19,0,0,1-.418,1.29,1.243,1.243,0,0,1-1.046.593q-.906,0-1.673-3.207Q5.349-23.112,4.652-38.24q-.488-10.248-.488-22.029-.07-2.161-.07-6.135,0-1.255,1.185-1.255a3.311,3.311,0,0,1,1.429.349,3.151,3.151,0,0,1,1.081.767,42.748,42.748,0,0,0-.279,5.228q0,2.928.279,7.111Q8-49.394,8-46.954V-45.7a10.857,10.857,0,0,0-.07,1.325,15.251,15.251,0,0,0,.139,1.812q.418,0,1.394-.07t1.952-.209q2.3-.209,3.416-.209,0-6.065-.139-11.224l-.139-11.642V-67.8a3.871,3.871,0,0,1,1.6.314,2.512,2.512,0,0,1,1.046.8,4.845,4.845,0,0,1,.767,2.649v1.6q0,6,.7,22.935.627,15.336.627,23a2.775,2.775,0,0,1-.593,1.743A1.758,1.758,0,0,1,17.269-13.98Zm18.334,0a6.093,6.093,0,0,1-3-.732,5.743,5.743,0,0,1-2.161-2.126,17.941,17.941,0,0,1-2.161-6.623,51.836,51.836,0,0,1-.488-7.668q-.209-7.529-.209-18.4l-.07-5.368a9.616,9.616,0,0,1-.07-1.394q-.139-2.649-.139-3.207.627-1.464,1.464-1.464t1.5,1.255a5.736,5.736,0,0,1,.662,2.719v18.961a73.513,73.513,0,0,0,.488,7.389q.488,5.716.488,7.389,0,5.159,4.392,5.159,5.019,0,5.019-37.5v-4.531a1.813,1.813,0,0,1-.07-.558,1.669,1.669,0,0,1,.383-1.22,2.154,2.154,0,0,1,1.5-.383,1.931,1.931,0,0,1,1.429.523,2.346,2.346,0,0,1,.662,1.22,11.817,11.817,0,0,1,.07,1.6q0,1.115-.209,3.555a26.034,26.034,0,0,0-.279,3.486,26.131,26.131,0,0,1-.139,2.858l-.139,2.928v.558a2.591,2.591,0,0,1,.07.627Q44.6-13.98,35.6-13.98Zm19.728-.349a1.719,1.719,0,0,1-1.882-1.325,7.841,7.841,0,0,1-.279-2.37q0-3,.279-7.389.349-4.183.349-7.459,0-3.695.209-11.084l.139-11.014a12.582,12.582,0,0,0-.209-1.882L53.728-58.6v-.349a4.512,4.512,0,0,1,.488-2.37,1.982,1.982,0,0,1,1.813-.767A9.217,9.217,0,0,1,60-61.035a7.2,7.2,0,0,1,3.137,2.649,15.932,15.932,0,0,1,2.022,8.365,26.847,26.847,0,0,1-.627,6.309,13.753,13.753,0,0,1-2.161,4.706,9.175,9.175,0,0,1,2.544,4.636,31.67,31.67,0,0,1,.662,7.076,17.325,17.325,0,0,1-1.464,7.389,9.268,9.268,0,0,1-4.88,4.88A11.541,11.541,0,0,1,55.332-14.329Zm2.231-26.7q3.625-.07,3.625-8.435,0-8.993-2.858-9.411-.767,1.6-.767,7.529Zm-.418,23.144a5.222,5.222,0,0,0,3.486-2.649,9.675,9.675,0,0,0,1.255-4.95,33.767,33.767,0,0,0-.349-5.159,14.094,14.094,0,0,0-.732-2.893,8.418,8.418,0,0,0-1.22-2.126,3.251,3.251,0,0,0-1.952-1.255q-.279,3.974-.279,10.526,0,.418-.139,2.649l-.139,2.37a.284.284,0,0,0,.07.209v3.276Zm23.493,3.9a6.093,6.093,0,0,1-3-.732,5.743,5.743,0,0,1-2.161-2.126,17.941,17.941,0,0,1-2.161-6.623,51.834,51.834,0,0,1-.488-7.668q-.209-7.529-.209-18.4l-.07-5.368a9.616,9.616,0,0,1-.07-1.394q-.139-2.649-.139-3.207.627-1.464,1.464-1.464t1.5,1.255a5.736,5.736,0,0,1,.662,2.719v18.961a73.515,73.515,0,0,0,.488,7.389q.488,5.716.488,7.389,0,5.159,4.392,5.159,5.019,0,5.019-37.5v-4.531a1.813,1.813,0,0,1-.07-.558,1.669,1.669,0,0,1,.383-1.22,2.154,2.154,0,0,1,1.5-.383,1.931,1.931,0,0,1,1.429.523,2.346,2.346,0,0,1,.662,1.22,11.815,11.815,0,0,1,.07,1.6q0,1.115-.209,3.555a26.033,26.033,0,0,0-.279,3.486,26.134,26.134,0,0,1-.139,2.858l-.139,2.928v.558a2.592,2.592,0,0,1,.07.627Q89.63-13.98,80.637-13.98Zm36.738-.837a1.626,1.626,0,0,1-1.255-.453,3.218,3.218,0,0,1-.627-1.569l-.418-1.325v-.349q0-2.3-4.775-15.685t-7.494-19.8V-18.93l.279.488q.07.139.279.488a1.345,1.345,0,0,1,.209.7,2.086,2.086,0,0,1-.627,1.534,2.086,2.086,0,0,1-1.534.627q-2.231,0-2.231-4.252l-.07-11.921q-.07-5.368-.07-11.99,0-2.231.209-6.483.209-4.392.209-6.483a6.1,6.1,0,0,1,2.51-5.159v.418a2.282,2.282,0,0,1,.558-.139q1.6,0,4.043,5.577a95.275,95.275,0,0,1,3.52,9.411q1.569,4.949,4.148,14.082l.7,2.51q1.6,5.647,2.44,8.087,1.394-14.988,1.394-35.413v-.906a5.519,5.519,0,0,1-.07-.906q0-2.091,1.673-2.091a1.7,1.7,0,0,1,1.5.767,3.392,3.392,0,0,1,.523,1.952v5.228q-.139,10.736-.837,23.284t-1.673,14.151A14.1,14.1,0,0,1,117.375-14.817Zm23.423.349a8.461,8.461,0,0,1-3.555-.732,8.571,8.571,0,0,1-2.719-1.917,9.45,9.45,0,0,1-1.673-2.858,20.069,20.069,0,0,1-1.115-3.625,23.827,23.827,0,0,1-.558-3.834q-.209-2.51-.279-4.322v-6.832q0-4.043.139-6.623a38.93,38.93,0,0,1,.906-6.623,15.7,15.7,0,0,1,2.161-5.507,7.576,7.576,0,0,1,4.113-3.276,8.052,8.052,0,0,1,2.928-.488q3,0,3,1.743A1.652,1.652,0,0,1,143.482-58a2.455,2.455,0,0,1-1.569.523,3.917,3.917,0,0,1-.767-.07,2.933,2.933,0,0,0-.7-.07,2.576,2.576,0,0,0-2.091,1.255,11.15,11.15,0,0,0-1.534,3.486,56.066,56.066,0,0,0-1.534,9.411q-.279,4.74-.279,7.041,0,2.37.209,6.483a29.3,29.3,0,0,0,1.185,6.692,10.091,10.091,0,0,0,1.15,2.684,5.978,5.978,0,0,0,1.708,1.708,4.436,4.436,0,0,0,2.44.767q3.346,0,3.346-11.154v-3.207a4.416,4.416,0,0,0-1.6-.209h-1.394q-2.44,0-2.44-1.6a1.8,1.8,0,0,1,.662-1.5,2.674,2.674,0,0,1,1.708-.523v.07h.976q6.274,0,6.274,2.161a17.412,17.412,0,0,1-.349,2.51,11.44,11.44,0,0,0-.418,2.51q0,1.185.209,3.695l.139,3.695a6.442,6.442,0,0,1-2.335,5.263A8.663,8.663,0,0,1,140.8-14.468Zm18.543-.627q-6.065,0-6.065-2.091,0-1.673,2.161-1.673h.767l.7.07a.819.819,0,0,0,.767-.349,2.644,2.644,0,0,0,.209-1.255q0-1.185-.139-3.695-.209-1.673-.488-6-.627-10.666-.627-16.1,0-1.952.07-3.555l.07-3.555a29.168,29.168,0,0,0-.209-3.834,7.61,7.61,0,0,1-1.6.279,1.479,1.479,0,0,1-1.673-1.673,1.764,1.764,0,0,1,1.046-1.464,7.7,7.7,0,0,1,2.649-.906,25.573,25.573,0,0,1,4.95-.558,1.948,1.948,0,0,1,1.429.593,1.87,1.87,0,0,1,.593,1.359,2.035,2.035,0,0,1-.453,1.325,1.419,1.419,0,0,1-1.15.558,2.932,2.932,0,0,1-.7-.07h-.558a1.386,1.386,0,0,0-1.011.314,1.622,1.622,0,0,0-.314,1.15q0,6.762.837,20.356.139,2.51.558,7.389a60.612,60.612,0,0,1,.349,6.553v2.649a9.616,9.616,0,0,1,1.394-.07q2.928,0,2.928,2.44v.418L164.081-15.3q-.07,0-.453.035t-1.429.035Q159.969-15.1,159.341-15.1Zm41.339,1.673a2.632,2.632,0,0,1-.837-.139,3.917,3.917,0,0,0-.767-.07q-1.882-10.666-3.764-17.846A85.86,85.86,0,0,0,190.572-45l-1.464,2.719a5.513,5.513,0,0,0-.7,2.091q-.209,2.091-.209,3.067,0,2.091.209,6.413.209,4.252.209,6.483v5.716q0,3.695-2.37,3.695-2.022,0-2.022-3.9,0-3.067.418-9.411.488-5.856.488-9.341l.07-6v-7.25a69.246,69.246,0,0,0-.488-8.017,63.509,63.509,0,0,1-.488-6.553,2.226,2.226,0,0,1,.558-1.534,1.788,1.788,0,0,1,1.394-.627q2.579,0,2.579,5.647l-.279,14.291,1.325-3.416q2.3-5.856,4.74-11.572a43.391,43.391,0,0,1,2.51-4.949q1.185-1.882,1.882-1.882a2,2,0,0,1,1.359.523,1.653,1.653,0,0,1,.593,1.29q0,.7-3.764,8.644A68.565,68.565,0,0,0,192.8-48.766v1.255q1.046,2.649,5.577,16.975t4.531,15.162a1.749,1.749,0,0,1-.662,1.394A2.358,2.358,0,0,1,200.68-13.423Zm22.238-.976a4.512,4.512,0,0,1-2.37-.488,1.982,1.982,0,0,1-.767-1.812,59.873,59.873,0,0,0-.7-7.111l-.279-1.464-6.9-1.046q-.418,1.6-1.185,6.483-.418,3.416-1.325,4.531a1.662,1.662,0,0,1-1.394.627,2.5,2.5,0,0,1-1.534-.523,1.563,1.563,0,0,1-.7-1.29l.139-.349.07-.279a310.07,310.07,0,0,0,6.971-35.344q0-.279.07-.941t.139-1.917q.209-2.579.453-4.113a5.393,5.393,0,0,1,.8-2.3h2.37a3,3,0,0,1,1.673.453,1.45,1.45,0,0,1,.7,1.29,124.268,124.268,0,0,0,1.464,15.755,136.917,136.917,0,0,1,1.394,15.058,16.263,16.263,0,0,0,.349,2.161,12.986,12.986,0,0,1,.349,2.091q0,.488.7,4.183a31.4,31.4,0,0,1,.627,4.322v.07A1.84,1.84,0,0,1,222.918-14.4Zm-4.6-13.385a13.424,13.424,0,0,1-.209-2.579A146.62,146.62,0,0,0,216.992-46.4l-.7-7.25q-3,16.382-4.113,24.748Q213.228-28.2,218.317-27.783ZM258.122-11.4q-2.161,0-2.161-4.322v-8.923q0-3.486-.488-9.132-.558-6.344-.558-8.714l.139-4.322q.139-1.882.139-4.252-.279.906-2.3,9.62-2.022,8.435-4.183,15.615-2.091,6.9-3.416,6.9a2.874,2.874,0,0,1-2.126-.8,2.967,2.967,0,0,1-.8-2.2q0-3.067-2.475-13.036t-4.5-16.312l-.418,7.877q-.558,9.969-.767,16.591-.139,6.413-.139,8.784a7.4,7.4,0,0,0,.07,1.046V-16a2.75,2.75,0,0,1-.488,1.778,2.26,2.26,0,0,1-1.812.593,2.041,2.041,0,0,1-1.325-.523,1.5,1.5,0,0,1-.627-1.15q0-7.111,1.046-21.332t1.046-21.332a2.349,2.349,0,0,1-.418-1.325,1.415,1.415,0,0,1,.8-1.29,3.836,3.836,0,0,1,1.917-.453q.906,0,3.346,6.553t4.88,14.849q2.44,8.3,3.137,11.99.558-1.882.906-3.486l.418-1.673q2.231-9.76,4.462-17.637a51.015,51.015,0,0,1,2.579-7.529q1.255-2.928,2.3-2.928a3.186,3.186,0,0,1,1.778.523,1.569,1.569,0,0,1,.8,1.359q0,5.019.418,15.058.488,9.341.488,14.5l-.07,3.695-.139,3.695a22.186,22.186,0,0,0,.209,2.51l.209,2.44q.07.627.1.976t.035.418a4.25,4.25,0,0,1,.349,1.325,3.335,3.335,0,0,1-.7,2.091A2.059,2.059,0,0,1,258.122-11.4Zm14.5-3.695q-6.065,0-6.065-2.091,0-1.673,2.161-1.673h.767l.7.07a.819.819,0,0,0,.767-.349,2.644,2.644,0,0,0,.209-1.255q0-1.185-.139-3.695-.209-1.673-.488-6-.627-10.666-.627-16.1,0-1.952.07-3.555l.07-3.555a29.171,29.171,0,0,0-.209-3.834,7.61,7.61,0,0,1-1.6.279,1.479,1.479,0,0,1-1.673-1.673A1.764,1.764,0,0,1,267.6-59.99a7.7,7.7,0,0,1,2.649-.906,25.573,25.573,0,0,1,4.95-.558,1.948,1.948,0,0,1,1.429.593,1.87,1.87,0,0,1,.593,1.359,2.035,2.035,0,0,1-.453,1.325,1.419,1.419,0,0,1-1.15.558,2.932,2.932,0,0,1-.7-.07h-.558a1.386,1.386,0,0,0-1.011.314,1.622,1.622,0,0,0-.314,1.15q0,6.762.836,20.356.139,2.51.558,7.389a60.612,60.612,0,0,1,.349,6.553v2.649a9.617,9.617,0,0,1,1.394-.07q2.928,0,2.928,2.44v.418L277.362-15.3q-.07,0-.453.035t-1.429.035Q273.249-15.1,272.622-15.1Z" transform="translate(-7221.631 -10072.39)" fill="#64dbb2"/>
    <path id="Path_3115" data-name="Path 3115" d="M85.237,96.822c-.667-6.821-3.123-13.37-5.351-19.8-1.3-3.774-3.032-11.839-7.261-11.4-4.548.47-.47,7.943.7,10.808,2.85,6.943,5.169,14.082,7.9,21.07C82.023,99.551,85.479,99.263,85.237,96.822Z" transform="translate(-7326.096 -10266.905)" fill="#5a287f" opacity="0.4"/>
    <path id="Path_3116" data-name="Path 3116" d="M79.451,103.059a33.348,33.348,0,0,0-2.88-5.048A88.419,88.419,0,0,0,66.46,86.188c-2.334-2.41-12.506-15.735-15.007-7.382a3.5,3.5,0,0,0,1.137,3.335c4.366,4.4,8.777,8.762,13.142,13.173,2.774,2.819,5.442,5.775,8.064,8.731C78.421,109.3,79.967,104.227,79.451,103.059Z" transform="translate(-7335.969 -10261.499)" fill="#5a287f" opacity="0.4"/>
    <path id="Path_3117" data-name="Path 3117" d="M78.793,105.843c-9.974-3.032-21.934-1.955-32.379-3.593-4.79-.743-6.063,5.578-1.334,6.473,9.853,1.88,23.784,3.032,33.576.091a1.516,1.516,0,0,0,.136-2.971Z" transform="translate(-7340.754 -10248.034)" fill="#5a287f" opacity="0.4"/>
    <path id="Path_3114" data-name="Path 3114" d="M86.082,95.322c-.667-6.821-3.123-13.37-5.351-19.8-1.319-3.774-3.032-11.839-7.276-11.4-4.548.47-.47,7.943.7,10.808C77,81.877,79.336,89.016,82.05,96,82.853,98.051,86.325,97.763,86.082,95.322Z" transform="translate(-7325.669 -10267.679)" fill="#fff"/>
    <path id="Path_3118" data-name="Path 3118" d="M79.122,100.741a30.864,30.864,0,0,0-2.9-5.048,88.392,88.392,0,0,0-10.1-11.839c-2.334-2.41-12.506-15.78-15.007-7.382a3.532,3.532,0,0,0,1.122,3.35c4.366,4.4,8.792,8.762,13.142,13.173,2.789,2.819,5.442,5.76,8.08,8.731C78.091,106.941,79.637,101.893,79.122,100.741Z" transform="translate(-7336.141 -10262.714)" fill="#fff"/>
    <path id="Path_3119" data-name="Path 3119" d="M78.483,103.5c-9.974-3.032-21.95-1.94-32.379-3.577-4.79-.743-6.063,5.578-1.334,6.473,9.838,1.865,23.784,3.032,33.576.091a1.516,1.516,0,0,0,.136-2.986Z" transform="translate(-7340.913 -10249.237)" fill="#fff"/>
  </g>
</svg>
