<svg xmlns="http://www.w3.org/2000/svg" width="250.464" height="63.179" viewBox="0 0 250.464 63.179">
  <g id="no-telp-icon" transform="translate(9146.599 9721)">
    <path id="Path_3089" data-name="Path 3089" d="M1.8-30.8H7.876l4.708,18.436h.088V-30.8h4.312V0H12.012L6.2-22.484H6.116V0H1.8ZM27.588.44a7.105,7.105,0,0,1-5.456-2.024A8.059,8.059,0,0,1,20.24-7.3V-23.5a8.059,8.059,0,0,1,1.892-5.72,7.105,7.105,0,0,1,5.456-2.024,7.105,7.105,0,0,1,5.456,2.024,8.059,8.059,0,0,1,1.892,5.72V-7.3a8.059,8.059,0,0,1-1.892,5.72A7.105,7.105,0,0,1,27.588.44Zm0-4.4Q30.1-3.96,30.1-7V-23.8q0-3.036-2.508-3.036T25.08-23.8V-7Q25.08-3.96,27.588-3.96Zm9.9-.7h4.664V0H37.488ZM56.584-26.4h-5.06v-4.4h14.96v4.4h-5.06V0h-4.84Zm12.232-4.4h13.2v4.4h-8.36v8.14H80.3v4.4H73.656V-4.4h8.36V0h-13.2Zm15.972,0h4.84V-4.4h7.964V0h-12.8Zm15.136,0h13.2v4.4h-8.36v8.14h6.644v4.4h-6.644V-4.4h8.36V0h-13.2Zm15.972,0h7.128a7.049,7.049,0,0,1,5.412,1.936,8.041,8.041,0,0,1,1.8,5.676v3.036a8.041,8.041,0,0,1-1.8,5.676,7.049,7.049,0,0,1-5.412,1.936h-2.288V0H115.9Zm7.128,13.86a2.276,2.276,0,0,0,1.782-.66,3.345,3.345,0,0,0,.594-2.244V-23.5a3.345,3.345,0,0,0-.594-2.244,2.276,2.276,0,0,0-1.782-.66h-2.288v9.46ZM139.876.44a7.105,7.105,0,0,1-5.456-2.024,8.059,8.059,0,0,1-1.892-5.72V-23.5a8.059,8.059,0,0,1,1.892-5.72,7.105,7.105,0,0,1,5.456-2.024,7.105,7.105,0,0,1,5.456,2.024,8.059,8.059,0,0,1,1.892,5.72V-7.3a8.059,8.059,0,0,1-1.892,5.72A7.105,7.105,0,0,1,139.876.44Zm0-4.4q2.508,0,2.508-3.036V-23.8q0-3.036-2.508-3.036T137.368-23.8V-7Q137.368-3.96,139.876-3.96Zm10.6-26.84h6.072l4.708,18.436h.088V-30.8h4.312V0h-4.972L154.88-22.484h-.088V0H150.48Z" transform="translate(-9061.795 -9673.76)" fill="#525e6e"/>
    <g id="Group_2256" data-name="Group 2256" transform="translate(0 -0.082)">
      <path id="Path_3110" data-name="Path 3110" d="M146.451,194.935c-8.5-1.1-25.159,2.845-31.293,16.353s-1.645,31.216,9.967,38.706c14.224,9.251,32.9,1.664,32.9,1.664s5.361,3.871,6.406,3.077-1.935-7.1-1.935-7.1,16.489-15.482,7.935-34.506C163.675,197.9,152.877,195.747,146.451,194.935Z" transform="translate(-9259.009 -9912.581)" fill="#5a287f" opacity="0.4"/>
      <path id="Path_3111" data-name="Path 3111" d="M146.451,193.335c-8.5-1.1-25.159,2.845-31.293,16.372s-1.645,31.216,9.967,38.706c14.224,9.251,32.9,1.664,32.9,1.664s5.361,3.871,6.406,3.077-1.935-7.122-1.935-7.122,16.489-15.482,7.935-34.487C163.675,196.3,152.877,194.167,146.451,193.335Z" transform="translate(-9259.009 -9914.077)" fill="#fff"/>
      <path id="Path_3112" data-name="Path 3112" d="M141.047,217.772c3.077.329,8.341,4.858,8.264,6.309,0,1.142-3,5.341-4.935,5.516s-8.264-.1-15.869-8.186-6.89-15.947-6.232-17.069,4.935-3.871,6.232-3.406,5.187,7.741,4.858,8.98-4.045,2.671-4.122,3.735c-.155,1.935,6.5,9.154,8.573,8.244C139.112,221.333,139.925,217.656,141.047,217.772Z" transform="translate(-9250.141 -9906.854)" fill="#fac300"/>
    </g>
  </g>
</svg>
