<svg xmlns="http://www.w3.org/2000/svg" viewBox="0 0 662.02 443.64"><defs><style>.cls-1,.cls-10,.cls-12,.cls-17,.cls-2,.cls-3{fill:none;}.cls-1,.cls-10,.cls-11,.cls-2{stroke:#110537;stroke-linecap:round;stroke-width:0.75px;}.cls-1,.cls-10,.cls-11,.cls-12,.cls-17,.cls-2,.cls-3{stroke-linejoin:round;}.cls-2{stroke-dasharray:2.41 2.41;}.cls-3{stroke:#fdc307;}.cls-12,.cls-17,.cls-3{stroke-width:4.76px;}.cls-13,.cls-18,.cls-4{font-size:12.16px;font-family:OpenSans-Bold, OpenSans Bold;font-weight:700;}.cls-4,.cls-9{fill:#fdc307;}.cls-5{letter-spacing:0em;}.cls-6{letter-spacing:0em;}.cls-7{letter-spacing:0em;}.cls-16,.cls-8{font-size:7.02px;fill:#110537;font-family:OpenSans;}.cls-8{letter-spacing:0.06em;}.cls-10{stroke-dasharray:2.38;}.cls-11{fill:#fff;}.cls-12{stroke:#108bbf;}.cls-13,.cls-14{fill:#108bbf;}.cls-15{letter-spacing:0em;}.cls-16{letter-spacing:0.06em;}.cls-17{stroke:#fc0263;}.cls-18,.cls-19{fill:#fc0263;}</style></defs><title>struktur-organisasi</title><g id="OBJECTS"><circle class="cls-1" cx="332.57" cy="46.96" r="37.55"/><path class="cls-1" d="M419.58,71.88c0,.4,0,.79,0,1.19" transform="translate(-42.43 -24.92)"/><path class="cls-2" d="M419.43,75.48a44.58,44.58,0,0,1-88.95-1.2" transform="translate(-42.43 -24.92)"/><path class="cls-1" d="M330.44,73.07c0-.4,0-.79,0-1.19" transform="translate(-42.43 -24.92)"/><path class="cls-3" d="M330.42,71.88a44.58,44.58,0,1,1,89.16,0" transform="translate(-42.43 -24.92)"/><path class="cls-1" d="M393.68,82.43V96.8H356.31V82.43a8.92,8.92,0,0,1,8.93-8.91H372l3.76,4.89,3.77-4.89h5.24A8.91,8.91,0,0,1,393.68,82.43Z" transform="translate(-42.43 -24.92)"/><line class="cls-1" x1="321.99" y1="71.88" x2="321.99" y2="60.29"/><line class="cls-1" x1="343.16" y1="71.88" x2="343.16" y2="60.29"/><path class="cls-1" d="M384.57,56.52v4.91a9.61,9.61,0,0,1-5,8.42A9.49,9.49,0,0,1,375,71a9.29,9.29,0,0,1-3-.49,9.61,9.61,0,0,1-6.57-9.08V56.52a9.57,9.57,0,0,1,19.14,0Z" transform="translate(-42.43 -24.92)"/><path class="cls-1" d="M384.57,59l-4.43-4.92c-4.89,3.2-10.39,0-10.39,0L365.43,59" transform="translate(-42.43 -24.92)"/><path class="cls-1" d="M379.53,69.85v3.67l-3.77,4.89L372,73.52v-3a9.29,9.29,0,0,0,3,.49A9.49,9.49,0,0,0,379.53,69.85Z" transform="translate(-42.43 -24.92)"/><text class="cls-4" transform="translate(282.48 112.83)">N<tspan class="cls-5" x="8" y="0">A</tspan><tspan x="15.39" y="0">ME SURN</tspan><tspan class="cls-6" x="62.14" y="0">A</tspan><tspan class="cls-7" x="69.53" y="0">ME</tspan></text><text class="cls-8" transform="translate(307.41 124.52)">JOB POSITION</text><polygon class="cls-9" points="337.16 94.62 327.99 94.62 332.57 100.19 337.16 94.62"/><polyline class="cls-10" points="141.74 162.4 141.74 143.13 523.41 143.13 523.41 162.4"/><line class="cls-10" x1="332.57" y1="129.02" x2="332.57" y2="162.4"/><circle class="cls-11" cx="141.74" cy="143.13" r="2.58"/><circle class="cls-11" cx="332.57" cy="143.13" r="2.58"/><circle class="cls-11" cx="523.41" cy="143.13" r="2.58"/><circle class="cls-1" cx="185.48" cy="229.97" r="37.55" transform="translate(-150.71 173.59) rotate(-45)"/><path class="cls-1" d="M230.06,230c0,.39,0,.79,0,1.19" transform="translate(-42.43 -24.92)"/><path class="cls-2" d="M229.91,233.57a44.58,44.58,0,0,1-88.95-1.2" transform="translate(-42.43 -24.92)"/><path class="cls-1" d="M140.92,231.16c0-.4,0-.8,0-1.19" transform="translate(-42.43 -24.92)"/><path class="cls-12" d="M140.9,230a44.58,44.58,0,0,1,89.16,0" transform="translate(-42.43 -24.92)"/><path class="cls-1" d="M204.16,240.52v14.37H166.79V240.52a8.92,8.92,0,0,1,8.93-8.91h6.76l3.76,4.89,3.77-4.89h5.24A8.9,8.9,0,0,1,204.16,240.52Z" transform="translate(-42.43 -24.92)"/><line class="cls-1" x1="132.47" y1="229.97" x2="132.47" y2="218.38"/><line class="cls-1" x1="153.64" y1="229.97" x2="153.64" y2="218.38"/><path class="cls-1" d="M195.05,214.61v4.91a9.61,9.61,0,0,1-5,8.42,9.49,9.49,0,0,1-4.53,1.15,9.29,9.29,0,0,1-3-.49,9.61,9.61,0,0,1-6.57-9.08v-4.91a9.57,9.57,0,0,1,19.14,0Z" transform="translate(-42.43 -24.92)"/><path class="cls-1" d="M195.05,217.06l-4.43-4.92c-4.89,3.21-10.39,0-10.39,0l-4.32,4.92" transform="translate(-42.43 -24.92)"/><path class="cls-1" d="M190,227.94v3.67l-3.77,4.89-3.76-4.89v-3a9.29,9.29,0,0,0,3,.49A9.49,9.49,0,0,0,190,227.94Z" transform="translate(-42.43 -24.92)"/><text class="cls-13" transform="translate(92.97 270.92)">N<tspan class="cls-5" x="8" y="0">A</tspan><tspan x="15.39" y="0">ME SURN</tspan><tspan class="cls-5" x="62.14" y="0">A</tspan><tspan x="69.53" y="0">ME</tspan></text><text class="cls-8" transform="translate(117.89 282.6)">JOB POSITION</text><polygon class="cls-14" points="147.64 252.71 138.47 252.71 143.05 258.27 147.64 252.71"/><circle class="cls-1" cx="564.52" cy="229.97" r="37.55" transform="translate(166.67 700.27) rotate(-76.5)"/><path class="cls-1" d="M609.1,230c0,.39,0,.79,0,1.19" transform="translate(-42.43 -24.92)"/><path class="cls-2" d="M609,233.57a44.59,44.59,0,0,1-89-1.2" transform="translate(-42.43 -24.92)"/><path class="cls-1" d="M520,231.16c0-.4,0-.8,0-1.19" transform="translate(-42.43 -24.92)"/><path class="cls-12" d="M519.94,230a44.58,44.58,0,0,1,89.16,0" transform="translate(-42.43 -24.92)"/><path class="cls-1" d="M583.21,240.52v14.37H545.83V240.52a8.92,8.92,0,0,1,8.93-8.91h6.76l3.77,4.89,3.76-4.89h5.24A8.91,8.91,0,0,1,583.21,240.52Z" transform="translate(-42.43 -24.92)"/><line class="cls-1" x1="511.51" y1="229.97" x2="511.51" y2="218.38"/><line class="cls-1" x1="532.68" y1="229.97" x2="532.68" y2="218.38"/><path class="cls-1" d="M574.09,214.61v4.91a9.61,9.61,0,0,1-5,8.42,9.49,9.49,0,0,1-4.53,1.15,9.29,9.29,0,0,1-3-.49,9.61,9.61,0,0,1-6.57-9.08v-4.91a9.57,9.57,0,0,1,19.14,0Z" transform="translate(-42.43 -24.92)"/><path class="cls-1" d="M574.09,217.06l-4.43-4.92c-4.89,3.21-10.38,0-10.38,0L555,217.06" transform="translate(-42.43 -24.92)"/><path class="cls-1" d="M569.05,227.94v3.67l-3.76,4.89-3.77-4.89v-3a9.29,9.29,0,0,0,3,.49A9.49,9.49,0,0,0,569.05,227.94Z" transform="translate(-42.43 -24.92)"/><text class="cls-13" transform="translate(472 270.92)">N<tspan class="cls-15" x="8" y="0">A</tspan><tspan x="15.39" y="0">ME SURN</tspan><tspan class="cls-15" x="62.14" y="0">A</tspan><tspan x="69.53" y="0">ME</tspan></text><text class="cls-16" transform="translate(496.93 282.6)">JOB POSITION</text><polygon class="cls-14" points="526.68 252.71 517.51 252.71 522.1 258.27 526.68 252.71"/><circle class="cls-1" cx="375" cy="229.97" r="37.55" transform="translate(-95.2 307.6) rotate(-45)"/><path class="cls-1" d="M419.58,230c0,.39,0,.79,0,1.19" transform="translate(-42.43 -24.92)"/><path class="cls-2" d="M419.44,233.57a44.59,44.59,0,0,1-89-1.2" transform="translate(-42.43 -24.92)"/><path class="cls-1" d="M330.44,231.16c0-.4,0-.8,0-1.19" transform="translate(-42.43 -24.92)"/><path class="cls-12" d="M330.42,230a44.58,44.58,0,1,1,89.16,0" transform="translate(-42.43 -24.92)"/><path class="cls-1" d="M393.69,240.52v14.37H356.31V240.52a8.91,8.91,0,0,1,6.62-8.61,8.74,8.74,0,0,1,2.3-.3H372l3.78,4.9,3.76-4.9h5.24a8.69,8.69,0,0,1,2.3.3A8.91,8.91,0,0,1,393.69,240.52Z" transform="translate(-42.43 -24.92)"/><line class="cls-1" x1="321.99" y1="229.97" x2="321.99" y2="218.38"/><line class="cls-1" x1="343.16" y1="229.97" x2="343.16" y2="218.38"/><path class="cls-1" d="M384.57,216.28v3.24a9.59,9.59,0,0,1-9.57,9.57,9.14,9.14,0,0,1-3-.5,9.59,9.59,0,0,1-6.56-9.07v-3.29c2.94-.62,7-6,7-6S377.47,216.28,384.57,216.28Z" transform="translate(-42.43 -24.92)"/><path class="cls-1" d="M379.53,227.94v3.67l-3.76,4.9-3.78-4.9v-3a9.14,9.14,0,0,0,3,.5A9.49,9.49,0,0,0,379.53,227.94Z" transform="translate(-42.43 -24.92)"/><path class="cls-1" d="M365.43,216.23a3.44,3.44,0,0,1-.45.05" transform="translate(-42.43 -24.92)"/><path class="cls-1" d="M385.18,216.26l-.61,0" transform="translate(-42.43 -24.92)"/><path class="cls-1" d="M387.07,215.77v16.14a8.69,8.69,0,0,0-2.3-.3h-5.24v-3.67a9.58,9.58,0,0,0,5-8.42v-3.24c-7.1,0-12.15-6-12.15-6s-4.05,5.34-7,6v3.29a9.59,9.59,0,0,0,6.56,9.07v3h-6.76a8.74,8.74,0,0,0-2.3.3V215.77a12.07,12.07,0,1,1,24.14,0Z" transform="translate(-42.43 -24.92)"/><line class="cls-1" x1="320.5" y1="207" x2="320.5" y2="206.99"/><text class="cls-13" transform="translate(282.49 270.92)">N<tspan class="cls-5" x="8" y="0">A</tspan><tspan x="15.39" y="0">ME SURN</tspan><tspan class="cls-6" x="62.14" y="0">A</tspan><tspan class="cls-7" x="69.53" y="0">ME</tspan></text><text class="cls-8" transform="translate(307.41 282.6)">JOB POSITION</text><polygon class="cls-14" points="337.16 252.71 327.99 252.71 332.57 258.27 337.16 252.71"/><polyline class="cls-10" points="50.09 321.3 50.09 302.03 236.02 302.03 429.13 302.03"/><line class="cls-10" x1="143.05" y1="287.92" x2="143.05" y2="302.03"/><circle class="cls-11" cx="50.09" cy="302.03" r="2.58"/><polyline class="cls-10" points="429.13 302.03 615.06 302.03 615.06 321.3"/><line class="cls-10" x1="522.09" y1="287.92" x2="522.09" y2="302.03"/><line class="cls-10" x1="332.57" y1="285.53" x2="332.57" y2="302.03"/><line class="cls-10" x1="238.41" y1="302.03" x2="238.41" y2="318.38"/><line class="cls-10" x1="426.74" y1="302.03" x2="426.74" y2="317.02"/><circle class="cls-11" cx="238.41" cy="302.03" r="2.58"/><circle class="cls-11" cx="426.55" cy="302.03" r="2.58"/><circle class="cls-11" cx="615.06" cy="302.03" r="2.58"/><circle class="cls-1" cx="92.51" cy="389.24" r="37.55" transform="translate(-348.8 395.23) rotate(-81.06)"/><path class="cls-1" d="M137.09,389.24c0,.4,0,.8,0,1.19" transform="translate(-42.43 -24.92)"/><path class="cls-2" d="M137,392.84A44.58,44.58,0,0,1,48,391.64" transform="translate(-42.43 -24.92)"/><path class="cls-1" d="M48,390.43c0-.39,0-.79,0-1.19" transform="translate(-42.43 -24.92)"/><path class="cls-17" d="M47.93,389.24a44.58,44.58,0,0,1,89.16,0" transform="translate(-42.43 -24.92)"/><path class="cls-1" d="M111.2,399.8v14.37H73.83V399.8a8.92,8.92,0,0,1,6.61-8.62,9.2,9.2,0,0,1,2.31-.3h6.76l3.77,4.9,3.76-4.9h5.25a9.1,9.1,0,0,1,2.29.3A8.93,8.93,0,0,1,111.2,399.8Z" transform="translate(-42.43 -24.92)"/><line class="cls-1" x1="39.5" y1="389.25" x2="39.5" y2="377.66"/><line class="cls-1" x1="60.68" y1="389.25" x2="60.68" y2="377.66"/><path class="cls-1" d="M102.08,375.56v3.24a9.62,9.62,0,0,1-9.57,9.57,9,9,0,0,1-3-.5,9.61,9.61,0,0,1-6.57-9.07v-3.3c2.94-.62,7-5.95,7-5.95S95,375.56,102.08,375.56Z" transform="translate(-42.43 -24.92)"/><path class="cls-1" d="M97,387.21v3.67l-3.76,4.9-3.77-4.9v-3a9,9,0,0,0,3,.5A9.47,9.47,0,0,0,97,387.21Z" transform="translate(-42.43 -24.92)"/><path class="cls-1" d="M82.94,375.5a2.32,2.32,0,0,1-.45.06" transform="translate(-42.43 -24.92)"/><path class="cls-1" d="M102.69,375.54l-.61,0" transform="translate(-42.43 -24.92)"/><path class="cls-1" d="M104.58,375v16.14a9.1,9.1,0,0,0-2.29-.3H97v-3.67a9.56,9.56,0,0,0,5-8.41v-3.24c-7.1,0-12.14-6-12.14-6s-4.06,5.33-7,5.95v3.3a9.61,9.61,0,0,0,6.57,9.07v3H82.75a9.2,9.2,0,0,0-2.31.3V375a12.07,12.07,0,1,1,24.14,0Z" transform="translate(-42.43 -24.92)"/><line class="cls-1" x1="38.02" y1="366.28" x2="38.02" y2="366.27"/><text class="cls-18" transform="translate(0 430.19)">N<tspan class="cls-5" x="8" y="0">A</tspan><tspan x="15.39" y="0">ME SURN</tspan><tspan class="cls-5" x="62.14" y="0">A</tspan><tspan x="69.53" y="0">ME</tspan></text><text class="cls-8" transform="translate(24.92 441.88)">JOB POSITION</text><polygon class="cls-19" points="54.67 411.99 45.5 411.99 50.09 417.55 54.67 411.99"/><circle class="cls-1" cx="615.06" cy="364.32" r="37.55"/><path class="cls-1" d="M702.06,389.24c0,.4,0,.8,0,1.19" transform="translate(-42.43 -24.92)"/><path class="cls-2" d="M701.92,392.84a44.58,44.58,0,0,1-88.95-1.2" transform="translate(-42.43 -24.92)"/><path class="cls-1" d="M612.92,390.43c0-.39,0-.79,0-1.19" transform="translate(-42.43 -24.92)"/><path class="cls-17" d="M612.91,389.24a44.58,44.58,0,1,1,89.15,0" transform="translate(-42.43 -24.92)"/><path class="cls-1" d="M676.17,399.8v14.37H638.8V399.8a8.91,8.91,0,0,1,8.92-8.91h6.76l3.77,4.89,3.77-4.89h5.24A8.9,8.9,0,0,1,676.17,399.8Z" transform="translate(-42.43 -24.92)"/><line class="cls-1" x1="604.47" y1="389.25" x2="604.47" y2="377.66"/><line class="cls-1" x1="625.65" y1="389.25" x2="625.65" y2="377.66"/><path class="cls-1" d="M667.06,373.89v4.9a9.59,9.59,0,0,1-9.57,9.57,9.09,9.09,0,0,1-3-.49,9.61,9.61,0,0,1-6.56-9.08v-4.9a9.57,9.57,0,0,1,19.14,0Z" transform="translate(-42.43 -24.92)"/><path class="cls-1" d="M667.06,376.34l-4.43-4.92c-4.89,3.21-10.39,0-10.39,0l-4.32,4.92" transform="translate(-42.43 -24.92)"/><path class="cls-1" d="M662,387.21v3.68l-3.77,4.89-3.77-4.89v-3a9.09,9.09,0,0,0,3,.49A9.52,9.52,0,0,0,662,387.21Z" transform="translate(-42.43 -24.92)"/><text class="cls-18" transform="translate(564.97 430.19)">N<tspan class="cls-15" x="8" y="0">A</tspan><tspan x="15.39" y="0">ME SURN</tspan><tspan class="cls-15" x="62.14" y="0">A</tspan><tspan x="69.53" y="0">ME</tspan></text><text class="cls-16" transform="translate(589.89 441.88)">JOB POSITION</text><polygon class="cls-19" points="619.64 411.99 610.48 411.99 615.06 417.55 619.64 411.99"/><circle class="cls-1" cx="280.84" cy="389.24" r="37.55" transform="translate(-191.2 578.36) rotate(-80.67)"/><path class="cls-1" d="M325.42,389.24c0,.4,0,.8,0,1.19" transform="translate(-42.43 -24.92)"/><path class="cls-2" d="M325.27,392.85a44.58,44.58,0,0,1-88.95-1.21" transform="translate(-42.43 -24.92)"/><path class="cls-1" d="M236.27,390.43c0-.39,0-.79,0-1.19" transform="translate(-42.43 -24.92)"/><path class="cls-17" d="M236.26,389.24a44.58,44.58,0,0,1,89.16,0" transform="translate(-42.43 -24.92)"/><path class="cls-1" d="M299.52,399.8v14.37H262.15V399.8a8.92,8.92,0,0,1,8.93-8.91h6.76l3.76,4.89,3.77-4.89h5.24A8.9,8.9,0,0,1,299.52,399.8Z" transform="translate(-42.43 -24.92)"/><line class="cls-1" x1="227.82" y1="389.25" x2="227.82" y2="377.66"/><line class="cls-1" x1="249" y1="389.25" x2="249" y2="377.66"/><path class="cls-1" d="M290.41,373.89v4.9a9.61,9.61,0,0,1-5,8.43,9.48,9.48,0,0,1-4.53,1.14,9,9,0,0,1-3-.49,9.59,9.59,0,0,1-6.57-9.08v-4.9a9.57,9.57,0,0,1,19.14,0Z" transform="translate(-42.43 -24.92)"/><path class="cls-1" d="M290.41,376.34,286,371.42c-4.89,3.21-10.39,0-10.39,0l-4.32,4.92" transform="translate(-42.43 -24.92)"/><path class="cls-1" d="M285.37,387.22v3.67l-3.77,4.89-3.76-4.89v-3a9,9,0,0,0,3,.49A9.48,9.48,0,0,0,285.37,387.22Z" transform="translate(-42.43 -24.92)"/><text class="cls-18" transform="translate(188.32 430.19)">N<tspan class="cls-15" x="8" y="0">A</tspan><tspan x="15.39" y="0">ME SURN</tspan><tspan class="cls-15" x="62.14" y="0">A</tspan><tspan x="69.53" y="0">ME</tspan></text><text class="cls-16" transform="translate(213.25 441.88)">JOB POSITION</text><polygon class="cls-19" points="243 411.99 233.83 411.99 238.41 417.55 243 411.99"/><circle class="cls-1" cx="468.98" cy="389.24" r="37.55" transform="translate(-61.44 729.45) rotate(-76.5)"/><path class="cls-1" d="M513.55,389.24c0,.4,0,.8,0,1.19" transform="translate(-42.43 -24.92)"/><path class="cls-2" d="M513.41,392.84a44.58,44.58,0,0,1-88.95-1.2" transform="translate(-42.43 -24.92)"/><path class="cls-1" d="M424.41,390.43c0-.39,0-.79,0-1.19" transform="translate(-42.43 -24.92)"/><path class="cls-17" d="M424.4,389.24a44.58,44.58,0,1,1,89.15,0" transform="translate(-42.43 -24.92)"/><path class="cls-1" d="M487.66,399.8v14.37H450.29V399.8a8.93,8.93,0,0,1,6.62-8.62,9.12,9.12,0,0,1,2.3-.3H466l3.77,4.9,3.77-4.9h5.24a9,9,0,0,1,2.29.3A8.93,8.93,0,0,1,487.66,399.8Z" transform="translate(-42.43 -24.92)"/><line class="cls-1" x1="415.96" y1="389.25" x2="415.96" y2="377.66"/><line class="cls-1" x1="437.14" y1="389.25" x2="437.14" y2="377.66"/><path class="cls-1" d="M478.54,375.56v3.24a9.61,9.61,0,0,1-9.57,9.57,9.08,9.08,0,0,1-3-.5,9.6,9.6,0,0,1-6.56-9.07v-3.3c2.94-.62,7-5.95,7-5.95S471.45,375.56,478.54,375.56Z" transform="translate(-42.43 -24.92)"/><path class="cls-1" d="M473.51,387.21v3.67l-3.77,4.9-3.77-4.9v-3a9.08,9.08,0,0,0,3,.5A9.54,9.54,0,0,0,473.51,387.21Z" transform="translate(-42.43 -24.92)"/><path class="cls-1" d="M459.41,375.5a2.32,2.32,0,0,1-.45.06" transform="translate(-42.43 -24.92)"/><path class="cls-1" d="M479.15,375.54l-.61,0" transform="translate(-42.43 -24.92)"/><path class="cls-1" d="M481,375v16.14a9,9,0,0,0-2.29-.3h-5.24v-3.67a9.57,9.57,0,0,0,5-8.41v-3.24c-7.09,0-12.14-6-12.14-6s-4,5.33-7,5.95v3.3a9.6,9.6,0,0,0,6.56,9.07v3h-6.76a9.12,9.12,0,0,0-2.3.3V375A12.07,12.07,0,1,1,481,375Z" transform="translate(-42.43 -24.92)"/><line class="cls-1" x1="414.48" y1="366.28" x2="414.48" y2="366.27"/><text class="cls-18" transform="translate(376.46 430.19)">N<tspan class="cls-5" x="8" y="0">A</tspan><tspan x="15.39" y="0">ME SURN</tspan><tspan class="cls-5" x="62.14" y="0">A</tspan><tspan x="69.53" y="0">ME</tspan></text><text class="cls-8" transform="translate(401.38 441.88)">JOB POSITION</text><polygon class="cls-19" points="431.13 411.99 421.96 411.99 426.55 417.55 431.13 411.99"/></g></svg>