<svg xmlns="http://www.w3.org/2000/svg" width="101.73" height="101.731" viewBox="0 0 101.73 101.731">
  <g id="quote" transform="translate(0 1.745) rotate(-1)">
    <path id="Tracé_1659" data-name="Tracé 1659" d="M81.25,100H18.75A18.749,18.749,0,0,1,0,81.25V18.75A18.749,18.749,0,0,1,18.75,0h62.5A18.749,18.749,0,0,1,100,18.75v62.5A18.75,18.75,0,0,1,81.249,100Zm0,0" fill="#e3f8fa"/>
    <path id="Tracé_1660" data-name="Tracé 1660" d="M288.787,170.672h-6.25a5.216,5.216,0,0,0-5.209,5.209v6.25a5.216,5.216,0,0,0,5.209,5.206h6.25a5.182,5.182,0,0,0,1.041-.106V191.5a8.344,8.344,0,0,1-8.335,8.335h-2.081a2.084,2.084,0,0,0,0,4.168H281.5A12.512,12.512,0,0,0,294,191.5v-15.62a5.218,5.218,0,0,0-5.209-5.209Zm0,0" transform="translate(-223.162 -137.337)" fill="#26c6da"/>
    <path id="Tracé_1661" data-name="Tracé 1661" d="M160.753,170.672H154.5a5.216,5.216,0,0,0-5.209,5.209v6.25a5.214,5.214,0,0,0,5.209,5.206h6.25a5.182,5.182,0,0,0,1.041-.106V191.5a8.344,8.344,0,0,1-8.335,8.335h-2.081a2.084,2.084,0,1,0,0,4.168h2.084a12.512,12.512,0,0,0,12.5-12.5v-15.62a5.218,5.218,0,0,0-5.209-5.209Zm0,0" transform="translate(-120.128 -137.337)" fill="#8ce1eb"/>
  </g>
</svg>
