<svg id="video" xmlns="http://www.w3.org/2000/svg" width="480.62" height="472.764" viewBox="0 0 480.62 472.764">
  <g id="freepik--Floor--inject-124" transform="translate(0 224.043)">
    <ellipse id="freepik--floor--inject-124-2" data-name="freepik--floor--inject-124" cx="240.31" cy="124.36" rx="240.31" ry="124.36" fill="#f5f5f5"/>
  </g>
  <g id="freepik--Clouds--inject-124" transform="translate(355.3 34.819)">
    <g id="freepik--clouds--inject-124-2" data-name="freepik--clouds--inject-124">
      <path id="Path_2760" data-name="Path 2760" d="M38.65,56.58l9.18,5.3c0-.41-.08-.82-.08-1.22V58c0-4.74,3.33-6.65,7.42-4.29A14.5,14.5,0,0,1,59.6,58c.67-5.95,5.34-8.16,11-4.89,6.13,3.54,11.1,12.15,11.1,19.23v4a10.33,10.33,0,0,1-.94,4.61l7.63,4.4a9.12,9.12,0,0,1,4.11,7.13c0,2.63-1.84,3.69-4.11,2.38L38.65,66.09A9.12,9.12,0,0,1,34.54,59C34.54,56.33,36.38,55.27,38.65,56.58Z" transform="translate(8.61 -51.597)" fill="#ebebeb"/>
      <path id="Path_2761" data-name="Path 2761" d="M95,76.46l6.93,4a7.069,7.069,0,0,1-.06-.91v-2c0-3.57,2.51-5,5.6-3.23a10.92,10.92,0,0,1,3.34,3.21c.5-4.49,4-6.17,8.3-3.7,4.63,2.67,8.38,9.17,8.38,14.51v3a7.81,7.81,0,0,1-.71,3.48l5.77,3.31a6.87,6.87,0,0,1,3.1,5.38c0,2-1.39,2.79-3.1,1.8L95.01,83.64a6.89,6.89,0,0,1-3.11-5.38C91.89,76.28,93.29,75.47,95,76.46Z" transform="translate(-91.9 -51.597)" fill="#ebebeb"/>
    </g>
  </g>
  <g id="freepik--Shadows--inject-124" transform="translate(37.95 244.987)">
    <ellipse id="freepik--Shadow--inject-124" cx="52.33" cy="30.22" rx="52.33" ry="30.22" transform="translate(3.09 32.975)" fill="#e0e0e0"/>
    <path id="freepik--shadow--inject-124-2" data-name="freepik--shadow--inject-124" d="M392.218,460.19a22.532,22.532,0,0,0,6.07-.87c6-1.67,7.81-4.79,8.32-7.11.81-3.76-1.45-7.65-4-9.84-.93-.78-2-1.6-3.1-2.45-2.88-2.22-6.46-5-7.29-7.11l-4-10.38,3.05-1.76-.66-1.53,3.18.68,1.43-1.91c3.16,1.52,10.93,5.29,21.35,10.5,2.4,1.2,4.42,2.24,6.19,3.15,5.85,3,9.08,4.68,14,5.85a23.639,23.639,0,0,0,5.52.69c3.83,0,6.83-1.09,8.67-3.15a8.69,8.69,0,0,0,1.93-7.06c-1.09-9.78-20.16-18.31-30.06-19.2-3.25-.3-6.32-.44-9.64-.44-1.61,0-3.06,0-4.36.07h-2.85a20.094,20.094,0,0,1-2.39-.09c-3.75-.34-15.41-2.5-15.53-2.52l-1.27-.23-.78,1-2.91-.56c-3.85-2.73-33.31-23.61-40.26-28.39-4.34-3-12.11-7.7-14.47-7.7h-1.27l-.78,1.18-.6,1.12.8,1.32c.17.28,5.13,8,11.12,12.75,2.48,2,9.64,8.05,16.76,14.15L300.468,390l2.36,4c.65,1.13,4.15,4.32,22.3,9.69,10.93,3.22,30.89,7.85,45.92,11.2l2.42,2.11c.17,2.68.71,10.83,1.07,15.1a16.42,16.42,0,0,1-.78,5.1c-.92,3.59-2.05,8.07.9,12.65C377.178,453.72,382.778,460.19,392.218,460.19Zm-3.8-15.51a9.77,9.77,0,0,1,7.06,2.77,2.45,2.45,0,0,1,.73,2.07,3.27,3.27,0,0,1-2.36,1.76,8.569,8.569,0,0,1-2.38.31,9.81,9.81,0,0,1-7.07-2.77,2.4,2.4,0,0,1-.72-2.07,3.22,3.22,0,0,1,2.36-1.75,8.511,8.511,0,0,1,2.38-.32ZM416,416.08a38,38,0,0,1,11.61,2c10.34,3.4,13.59,7.63,14.6,9.85.13.28.41,1,.17,1.35a2.1,2.1,0,0,1-1.72.61,4,4,0,0,1-1-.13,16.542,16.542,0,0,1-5.36-2.57,65.566,65.566,0,0,0-6.5-3.7,123.659,123.659,0,0,0-16.69-6.75l-.18-.07a19.159,19.159,0,0,1,5.07-.59Z" transform="translate(-300.468 -261.765)" fill="#e0e0e0"/>
    <path id="freepik--shadow--inject-124-3" data-name="freepik--shadow--inject-124" d="M317.846,455.26c5.17,2.64-7.9,11.84-14.36,8.29L189.4,396.77l-13.59-14.34a.91.91,0,0,1,.92-1.49l26.22,8Z" transform="translate(-41.596 -261.765)" fill="#e0e0e0"/>
    <path id="freepik--shadow--inject-124-4" data-name="freepik--shadow--inject-124" d="M289.443,434.39l43.74-25.26c2.47-1.42,2.47-3.73,0-5.15L88.422,262.83a9.89,9.89,0,0,0-8.93,0l-43.75,25.26c-2.46,1.42-2.46,3.73,0,5.15l244.77,141.15A9.89,9.89,0,0,0,289.443,434.39Z" transform="translate(84.067 -261.765)" fill="#e0e0e0"/>
  </g>
  <g id="freepik--Table--inject-124" transform="translate(43.25 221.519)">
    <g id="freepik--table--inject-124-2" data-name="freepik--table--inject-124">
      <g id="freepik--table--inject-124-3" data-name="freepik--table--inject-124" transform="translate(0 12.046)">
        <path id="Path_2762" data-name="Path 2762" d="M363.18,299.18a1.39,1.39,0,0,0-.82-1.15,4.36,4.36,0,0,0-3.95,0,1.41,1.41,0,0,0-.82,1.15l5.1,26.15h0a1,1,0,0,0,.58.79,3.05,3.05,0,0,0,2.79,0,1,1,0,0,0,.58-.79h0Z" transform="translate(-276.53 -250.342)" fill="#455a64"/>
        <path id="Path_2763" data-name="Path 2763" d="M431.21,299.18a1.4,1.4,0,0,1,.81-1.15,4.38,4.38,0,0,1,4,0,1.4,1.4,0,0,1,.81,1.15l-5.09,26.15h0a1,1,0,0,1-.57.79,3.07,3.07,0,0,1-2.8,0,1,1,0,0,1-.57-.79h0Z" transform="translate(-416.93 -250.342)" fill="#455a64"/>
        <path id="Path_2764" data-name="Path 2764" d="M394.78,303.05a1.38,1.38,0,0,1,.82-1.14,4.36,4.36,0,0,1,3.95,0,1.4,1.4,0,0,1,.82,1.14l-.82,37.3h0a1,1,0,0,1-.58.79,3.11,3.11,0,0,1-2.79,0,1,1,0,0,1-.58-.79h0Z" transform="translate(-347.45 -250.342)" fill="#455a64"/>
        <path id="Path_2765" data-name="Path 2765" d="M347.58,279.25h.05c0-7.4,4.84-14.8,14.62-20.44,19.56-11.29,51.27-11.29,70.82,0,9.78,5.64,14.63,13,14.63,20.44h0v4h0c-.11,7.3-5,14.58-14.67,20.15-19.55,11.29-51.26,11.29-70.82,0-9.65-5.57-14.55-12.85-14.67-20.15h0Z" transform="translate(-347.54 -250.342)" fill="#64dbb2"/>
        <path id="Path_2766" data-name="Path 2766" d="M432.988,258.81c19.55,11.29,19.55,29.6,0,40.89s-51.26,11.29-70.82,0-19.56-29.6,0-40.89S413.428,247.52,432.988,258.81Z" transform="translate(-347.447 -250.342)" fill="#64dbb2"/>
        <path id="Path_2767" data-name="Path 2767" d="M432.988,258.81c19.55,11.29,19.55,29.6,0,40.89s-51.26,11.29-70.82,0-19.56-29.6,0-40.89S413.428,247.52,432.988,258.81Z" transform="translate(-347.447 -250.342)" fill="#fff" opacity="0.45"/>
      </g>
      <g id="freepik--Pot--inject-124" transform="translate(33.995)">
        <g id="Group_2241" data-name="Group 2241" transform="translate(0.475 33.435)" opacity="0.05">
          <path id="Path_2768" data-name="Path 2768" d="M385.964,274.42c-6.24,3.6-6.24,9.44,0,13s16.36,3.6,22.59,0,6.24-9.44,0-13S392.2,270.81,385.964,274.42Z" transform="translate(-381.284 -271.731)"/>
        </g>
        <path id="Path_2769" data-name="Path 2769" d="M407.66,281.74c5.44-5.54,8.63-19.38,3.33-23.78h-27c-5.3,4.4-2.11,18.23,3.32,23.78l.14.15.19.18c.16.15.32.3.49.44l.13.1.41.31a5.994,5.994,0,0,0,.71.45c4.46,2.58,11.71,2.58,16.18,0h0c.24-.13.47-.29.71-.45l.38-.29.16-.13a3.8,3.8,0,0,0,.47-.42l.22-.21a.74.74,0,0,0,.16-.13Z" transform="translate(-381.276 -238.297)" fill="#ebebeb"/>
        <path id="Path_2770" data-name="Path 2770" d="M386.326,256.19c-6.15,3.55-6.15,9.31,0,12.86s16.12,3.55,22.28,0,6.15-9.31,0-12.86S392.476,252.64,386.326,256.19Z" transform="translate(-381.232 -238.297)" fill="#fafafa"/>
        <path id="Path_2771" data-name="Path 2771" d="M390.693,258.71c-3.74,2.16-3.74,5.66,0,7.82a15,15,0,0,0,13.55,0c3.75-2.16,3.75-5.66,0-7.82a15,15,0,0,0-13.55,0Z" transform="translate(-381.238 -238.297)" fill="#ebebeb"/>
        <path id="Path_2772" data-name="Path 2772" d="M404.24,262.42a15,15,0,0,0-13.55,0,6.19,6.19,0,0,0-2.24,2.06,6.18,6.18,0,0,0,2.24,2,15,15,0,0,0,13.55,0,6.3,6.3,0,0,0,2.25-2,6.32,6.32,0,0,0-2.25-2.06Z" transform="translate(-381.235 -238.297)" fill="#e0e0e0"/>
        <path id="Path_2773" data-name="Path 2773" d="M389.835,264.48a31,31,0,0,1-4.91-6.52c-2.26-4-2.68-9.37-1.51-10s5.94,4.69,5.94,4.69a28.78,28.78,0,0,1-.51-6.84c.2-3.56,1.07-6.8,2.09-7.45s3.31,3.84,4.29,7.1,1.57,5.94,1.57,5.94a49.569,49.569,0,0,1,1.75-7.5c1.19-3.39,2.27-4.15,3.1-3.82s1.39,1.92,1.64,6.42a44.32,44.32,0,0,1-.21,6.46s1.68-1.85,3.55-3.64c2.05-2,2.92-2.24,3.51-1.87s.75,3.44-2.43,9.18a31.9,31.9,0,0,1-6,7.88S397.335,267.31,389.835,264.48Z" transform="translate(-379.55 -238.297)" fill="#64dbb2"/>
        <path id="Path_2774" data-name="Path 2774" d="M389.835,264.48a31,31,0,0,1-4.91-6.52c-2.26-4-2.68-9.37-1.51-10s5.94,4.69,5.94,4.69a28.78,28.78,0,0,1-.51-6.84c.2-3.56,1.07-6.8,2.09-7.45s3.31,3.84,4.29,7.1,1.57,5.94,1.57,5.94a49.569,49.569,0,0,1,1.75-7.5c1.19-3.39,2.27-4.15,3.1-3.82s1.39,1.92,1.64,6.42a44.32,44.32,0,0,1-.21,6.46s1.68-1.85,3.55-3.64c2.05-2,2.92-2.24,3.51-1.87s.75,3.44-2.43,9.18a31.9,31.9,0,0,1-6,7.88S397.335,267.31,389.835,264.48Z" transform="translate(-379.55 -238.297)" opacity="0.3"/>
      </g>
    </g>
  </g>
  <g id="freepik--Device--inject-124" transform="translate(162.1 0.001)">
    <g id="freepik--device--inject-124-2" data-name="freepik--device--inject-124">
      <path id="Path_2775" data-name="Path 2775" d="M205.46,395.14l-37.6-21.75c-3.88-2.23-5.82-5.17-5.82-8.1v-5.23l39-22a8.29,8.29,0,0,0,3.75-6.49V285.21l65.68,38v46.37a8.25,8.25,0,0,1-3.74,6.48l-33.22,19.08C225.78,399.61,213.21,399.61,205.46,395.14Z" transform="translate(-103.66 -16.778)" fill="#64dbb2"/>
      <g id="Group_2242" data-name="Group 2242" transform="translate(58.423 268.432)" opacity="0.6">
        <path id="Path_2776" data-name="Path 2776" d="M205.46,395.14l-37.6-21.75c-3.88-2.23-5.82-5.17-5.82-8.1v-5.23l39-22a8.29,8.29,0,0,0,3.75-6.49V285.21l65.68,38v46.37a8.25,8.25,0,0,1-3.74,6.48l-33.22,19.08C225.78,399.61,213.21,399.61,205.46,395.14Z" transform="translate(-162.04 -285.21)"/>
      </g>
      <path id="Path_2777" data-name="Path 2777" d="M162.07,377.74V383l12-6.94a8.3,8.3,0,0,0,3.74-6.48V323.17L165.33,316c-.25,3.17-.54,6.46-.8,9.66l8.78,5.08v36.22a8.19,8.19,0,0,1-3.74,6.48Z" transform="translate(-11.03 -16.778)" opacity="0.3"/>
      <path id="Path_2778" data-name="Path 2778" d="M270.513,366.92a8.25,8.25,0,0,1-3.74,6.48l-28.69,16.51c-7.75,4.47-20.32,4.48-28.08,0l-37.62-21.74c-7.75-4.47-7.75-11.73,0-16.21l28.7-16.51a8.28,8.28,0,0,0,3.74-6.49V292.73l65.68,38Z" transform="translate(-108.233 -16.778)" fill="#64dbb2"/>
      <path id="Path_2779" data-name="Path 2779" d="M270.513,366.92a8.25,8.25,0,0,1-3.74,6.48l-28.69,16.51c-7.75,4.47-20.32,4.48-28.08,0l-37.62-21.74c-7.75-4.47-7.75-11.73,0-16.21l28.7-16.51a8.28,8.28,0,0,0,3.74-6.49V292.73l65.68,38Z" transform="translate(-108.19 -16.778)" opacity="0.3"/>
      <path id="Path_2780" data-name="Path 2780" d="M166.58,339.85h0l7.62-4.4a8.28,8.28,0,0,0,3.74-6.49V292.73l65.68,38v36.23a8.25,8.25,0,0,1-3.74,6.48l-7.5,4.33Z" transform="translate(-81.307 -16.778)" opacity="0.5"/>
      <path id="Path_2781" data-name="Path 2781" d="M213.65,360.06v5.23c0,2.94,2,5.86,5.82,8.11l37.61,21.73a28.17,28.17,0,0,0,13.4,3.33v-5.21a28.17,28.17,0,0,1-13.4-3.33l-37.61-21.75C215.6,365.94,213.65,363,213.65,360.06Z" transform="translate(-155.28 -16.778)" fill="#64dbb2"/>
      <path id="Path_2782" data-name="Path 2782" d="M213.65,360.06v5.23c0,2.94,2,5.86,5.82,8.11l37.61,21.73a28.17,28.17,0,0,0,13.4,3.33v-5.21a28.17,28.17,0,0,1-13.4-3.33l-37.61-21.75C215.6,365.94,213.65,363,213.65,360.06Z" transform="translate(-155.237 -16.778)" opacity="0.5"/>
      <path id="Path_2783" data-name="Path 2783" d="M324.46,412a10,10,0,0,1-9.07-.17l-254-146.66a10.34,10.34,0,0,1-4.67-8.1V25.72a10,10,0,0,1,4.39-7.94,10,10,0,0,1,9.06.17L324.16,164.61a10.32,10.32,0,0,1,4.68,8.1V404a10,10,0,0,1-4.38,8Z" transform="translate(-56.71 -16.778)" fill="#64dbb2"/>
      <path id="Path_2784" data-name="Path 2784" d="M324.17,411.78l-254-146.66a10.35,10.35,0,0,1-4.68-8.11V25.71c0-3,2.1-4.19,4.68-2.7l254,146.66a10.32,10.32,0,0,1,4.68,8.1v231.3C328.85,412.06,326.75,413.27,324.17,411.78Z" transform="translate(-65.49 -16.778)" fill="#64dbb2"/>
      <path id="Path_2785" data-name="Path 2785" d="M324.17,411.78l-254-146.66a10.35,10.35,0,0,1-4.68-8.11V25.71c0-3,2.1-4.19,4.68-2.7l254,146.66a10.32,10.32,0,0,1,4.68,8.1v231.3C328.85,412.06,326.75,413.27,324.17,411.78Z" transform="translate(-65.49 -16.778)" opacity="0.5"/>
      <path id="Path_2786" data-name="Path 2786" d="M56.71,417.12a10.09,10.09,0,0,0,8.38-.18A10,10,0,0,0,69.48,409V390.28l-8.78,5.08v18.71C60.7,416.79,58.97,418,56.71,417.12Z" transform="translate(202.66 -16.778)" fill="#64dbb2"/>
      <path id="Path_2787" data-name="Path 2787" d="M56.71,417.12a10.09,10.09,0,0,0,8.38-.18A10,10,0,0,0,69.48,409V390.28l-8.78,5.08v18.71C60.7,416.79,58.97,418,56.71,417.12Z" transform="translate(202.65 -16.778)" opacity="0.5"/>
      <path id="Path_2788" data-name="Path 2788" d="M328.85,395.36v18.7c0,3-2.1,4.2-4.68,2.7l-254-146.65A10.35,10.35,0,0,1,65.49,262V243.26Z" transform="translate(-65.49 -16.778)" fill="#64dbb2"/>
      <path id="Path_2789" data-name="Path 2789" d="M328.85,395.32v18.74c0,3-2.1,4.2-4.68,2.7l-254-146.65A10.35,10.35,0,0,1,65.49,262V243.26Z" transform="translate(-65.49 -16.778)" opacity="0.3"/>
      <path id="Path_2790" data-name="Path 2790" d="M320.09,371.88V180.69a6.23,6.23,0,0,0-2.81-4.87L77.08,37.14c-1.55-.89-2.81-.17-2.81,1.62V230a6.21,6.21,0,0,0,2.81,4.86l240.2,138.65C318.83,374.4,320.09,373.67,320.09,371.88Z" transform="translate(-65.51 -16.778)" fill="#ee614e"/>
      <path id="Path_2791" data-name="Path 2791" d="M320.09,371.88V180.69a6.23,6.23,0,0,0-2.81-4.87L77.08,37.14c-1.55-.89-2.81-.17-2.81,1.62V230a6.21,6.21,0,0,0,2.81,4.86l240.2,138.65C318.83,374.4,320.09,373.67,320.09,371.88Z" transform="translate(-65.51 -16.778)" fill="#263238"/>
      <path id="Path_2792" data-name="Path 2792" d="M56.71,173.14a10,10,0,0,1,1.38,4.63V395.36l8.78-5.08V172.71a9.69,9.69,0,0,0-1.37-4.62Z" transform="translate(205.27 -16.778)" opacity="0.7"/>
      <path id="Path_2793" data-name="Path 2793" d="M58.1,24.94c.33-2.41,2.28-3.28,4.64-1.93l254,146.66a9.5,9.5,0,0,1,3.31,3.48l8.78-5.07a9.66,9.66,0,0,0-3.31-3.48L71.51,18a10,10,0,0,0-9.07-.17,10.1,10.1,0,0,0-4.34,7.11Z" transform="translate(-58.08 -16.778)" opacity="0.3"/>
    </g>
  </g>
  <g id="freepik--Window--inject-124" transform="translate(151.12 20.542)">
    <g id="freepik--window--inject-124-2" data-name="freepik--window--inject-124">
      <path id="Path_2794" data-name="Path 2794" d="M91.71,390.08a4,4,0,0,0,1.83.55,4.55,4.55,0,0,0,2.68-.47,5,5,0,0,0,2.18-4V207.56l-4.39,2.53V388.73c0,1.06-.53,1.67-1.29,1.67a2.37,2.37,0,0,1-1.01-.32Z" transform="translate(149.72 -37.319)" fill="#f0f0f0"/>
      <path id="Path_2795" data-name="Path 2795" d="M96.08,248a5.14,5.14,0,0,0,2.33,4l239.1,138.08c1.28.74,2.32.14,2.32-1.35V195l-6.41-3.7c-1.28-.74-3.37-12-4.66-12.79l-55.6-32.1c-1.29-.74-4.32,7.61-5.6,6.86l-171.48-99V248Z" transform="translate(-96.08 -37.319)" fill="#fafafa"/>
      <path id="Path_2796" data-name="Path 2796" d="M97.16,56.1V248a4.1,4.1,0,0,0,1.79,3.1l239.1,138.05a1.13,1.13,0,0,0,.49.17c.22,0,.22-.56.22-.59V195.61l-5.88-3.4c-.93-.54-1.51-2.35-2.82-7a34.787,34.787,0,0,0-1.92-5.82l-55.1-31.81a21.613,21.613,0,0,0-1.75,2.79c-1.5,2.64-2.34,4-3.56,4a1.36,1.36,0,0,1-.71-.2L97.16,56.1m175.47,91.23h0M96.08,54.24l171.48,99a.34.34,0,0,0,.17.05c1.3,0,4-7,5.26-7a.33.33,0,0,1,.17,0l55.6,32.1c1.29.75,3.38,12,4.66,12.79l6.41,3.82V388.73c0,1.06-.52,1.67-1.29,1.67a2,2,0,0,1-1-.32L98.41,252a5.14,5.14,0,0,1-2.33-4Z" transform="translate(-96.08 -37.319)" fill="#e0e0e0"/>
      <path id="Path_2797" data-name="Path 2797" d="M337.6,202.15a5,5,0,0,0,2.19-4V180a5.15,5.15,0,0,0-2.3-4L98.394,38a4.36,4.36,0,0,0-6.69,3.87V60a5.12,5.12,0,0,0,2.33,4l239.06,138.07A5,5,0,0,0,337.6,202.15Z" transform="translate(-91.664 -37.319)" fill="#64dbb2"/>
      <path id="Path_2798" data-name="Path 2798" d="M92.38,41.41c.16-1.21,1.14-1.65,2.3-1l239.1,138.08a5.07,5.07,0,0,1,1.65,1.75l4.37-2.53a4.86,4.86,0,0,0-1.62-1.71L99.08,38a4.34,4.34,0,0,0-6.67,3.49Z" transform="translate(-92.38 -37.319)" fill="#fff" opacity="0.4"/>
      <path id="Path_2799" data-name="Path 2799" d="M91.686,180.24a4.72,4.72,0,0,1,.67,2.29v27.61l4.39-2.53V180a2.622,2.622,0,0,0,0-.28,4.712,4.712,0,0,0-.09-.58,5.57,5.57,0,0,0-.58-1.44Z" transform="translate(151.364 -37.319)" opacity="0.1"/>
      <path id="Path_2800" data-name="Path 2800" d="M96.08,41.78V54.24l171.48,99c1.28.75,2.32.14,2.32-1.34v-4.72c0-1.48,1-2.09,2.34-1.34l56.54,32.64a5.15,5.15,0,0,1,2.33,4v4.71a5.17,5.17,0,0,0,2.33,4l6.4,3.81V182.53a5.17,5.17,0,0,0-2.32-4L98.4,40.53C97.12,39.69,96.08,40.3,96.08,41.78Z" transform="translate(-96.07 -37.319)" fill="#64dbb2"/>
      <path id="Path_2801" data-name="Path 2801" d="M328.89,49.59c-1.62-.93-2.93-.17-2.93,1.7a6.49,6.49,0,0,0,2.93,5.08c1.62.93,2.94.17,2.94-1.7A6.5,6.5,0,0,0,328.89,49.59Z" transform="translate(-317.96 -37.319)" fill="#fff"/>
      <path id="Path_2802" data-name="Path 2802" d="M318.34,55.68c-1.62-.93-2.93-.18-2.93,1.69a6.47,6.47,0,0,0,2.93,5.08c1.62.94,2.93.18,2.93-1.69a6.49,6.49,0,0,0-2.93-5.08Z" transform="translate(-296.85 -37.319)" fill="#fff"/>
      <path id="Path_2803" data-name="Path 2803" d="M307.78,61.77c-1.62-.94-2.93-.18-2.93,1.69a6.49,6.49,0,0,0,2.93,5.08c1.62.93,2.93.18,2.93-1.69a6.47,6.47,0,0,0-2.93-5.08Z" transform="translate(-275.73 -37.319)" fill="#fff"/>
      <path id="Path_2804" data-name="Path 2804" d="M96.08,54.24V69.39L339.83,210.14V195l-4.79-2.77c-1.28-.74-1.71-1.87-2.32-4l-1.63-5.64c-.51-2-1-3.29-2.33-4l-55.6-32.1c-1.29-.74-2.3-.82-3.28.8l-2,3.62c-.73,1.26-1.1,2-2.38,1.26Z" transform="translate(-96.08 -37.319)" fill="#e6e6e6"/>
      <path id="Path_2805" data-name="Path 2805" d="M91.69,194.98v15.16l4.39-2.53V192.47Z" transform="translate(152.06 -37.319)" fill="#e0e0e0"/>
      <path id="Path_2806" data-name="Path 2806" d="M102.3,196.08l3.66,2.11-1.39-2.68a.68.68,0,0,1,0-.66c.11-.13.29,0,.42.2l2,3.81h0a.225.225,0,0,0,.05.14h0a1.23,1.23,0,0,1,0,.19.72.72,0,0,1,0,.17h0a.56.56,0,0,1-.05.08h0l-2,1.52a.16.16,0,0,1-.2,0,.55.55,0,0,1-.22-.28.657.657,0,0,1,0-.62l1.39-1.08-3.66-2.11a.77.77,0,0,1-.29-.62A.19.19,0,0,1,102.3,196.08Z" transform="translate(130.762 -37.319)" fill="#455a64"/>
      <path id="Path_2807" data-name="Path 2807" d="M114.268,194.31l-3.66-2.11,1.4-1.07a.59.59,0,0,0,0-.63c-.1-.25-.29-.37-.41-.28l-2,1.53h0a.18.18,0,0,0-.06.08h0a.47.47,0,0,0,0,.17.69.69,0,0,0,0,.2h0l.06.15h0l2,3.82a.47.47,0,0,0,.19.22.16.16,0,0,0,.22,0,.65.65,0,0,0,0-.65l-1.4-2.68,3.66,2.11c.16.09.29,0,.29-.28a.79.79,0,0,0-.29-.58Z" transform="translate(115.743 -37.319)" fill="#455a64"/>
      <path id="Path_2808" data-name="Path 2808" d="M117.961,183.78c0-.22.21-.2.31,0l.5,1.23c.86-.09,1.89.74,2.59,2.22.91,1.92.91,4.19,0,5.06a1.29,1.29,0,0,1-1.64.1,4.56,4.56,0,0,1-1.65-2,.65.65,0,0,1,0-.64c.12-.11.3,0,.42.24.68,1.43,1.78,2.07,2.45,1.42s.68-2.35,0-3.78c-.48-1-1.17-1.62-1.77-1.66l.37.93c.1.24,0,.46-.14.36l-1.49-1a.43.43,0,0,1-.17-.4Z" transform="translate(100.049 -37.319)" fill="#455a64"/>
      <path id="Path_2809" data-name="Path 2809" d="M160,153.31l-1.34-2.82a.9.9,0,0,1,0-.88c.16-.15.42,0,.57.33l1.34,2.82,1.33-1.28c.16-.15.41,0,.57.33a.85.85,0,0,1,0,.88l-1.33,1.31,1.33,2.82a.85.85,0,0,1,0,.88.21.21,0,0,1-.28,0,.75.75,0,0,1-.29-.35l-1.33-2.82-1.34,1.28a.21.21,0,0,1-.28,0,.75.75,0,0,1-.29-.35.9.9,0,0,1,0-.88Z" transform="translate(18.688 -37.319)" fill="#455a64"/>
      <path id="Path_2810" data-name="Path 2810" d="M326.71,187.25v-4.72a5.14,5.14,0,0,0-2.33-4L129.01,65.74c-1.29-.75-2.33-.14-2.33,1.34V71.8a5.14,5.14,0,0,0,2.33,4L324.39,188.59C325.67,189.34,326.71,188.73,326.71,187.25Z" transform="translate(-113.56 -37.319)" fill="#fafafa"/>
      <path id="Path_2811" data-name="Path 2811" d="M324.345,76.2a.65.65,0,0,0,.21,0,.63.63,0,0,0,.35-.71l-.23-1.91.9-.65a.63.63,0,0,0,.24-.52,1,1,0,0,0-.38-.81l-1.37-1.06a.32.32,0,0,1-.06-.11l-.61-2a.85.85,0,0,0-.69-.65.52.52,0,0,0-.54.32h0l-.51,1.09-1.16-.44a.52.52,0,0,0-.61.14.83.83,0,0,0,0,.94l1,1.86a.451.451,0,0,1,0,.11l-.24,1.68a1,1,0,0,0,.3.84.61.61,0,0,0,.54.21l1.07-.17,1.21,1.54A.69.69,0,0,0,324.345,76.2Zm.66-3.9-.9.65a.68.68,0,0,0-.24.64l.16,1.28-.81-1a.71.71,0,0,0-.62-.3l-1.12.14a.38.38,0,0,1,0-.13l.24-1.68a1.08,1.08,0,0,0-.12-.6l-.87-1.63.83.33a.55.55,0,0,0,.71-.28l.4-.86.55,1.79a1,1,0,0,0,.34.51l1.37,1a.29.29,0,0,1,.08.14ZM324.585,73.6ZM322.9,68.4Z" transform="translate(-305.725 -37.319)" fill="#e0e0e0"/>
      <path id="Path_2812" data-name="Path 2812" d="M336.041,65.16a.8.8,0,0,0,.41-1.5l-6.56-3.79a.81.81,0,1,0-.81,1.4l6.56,3.78A.73.73,0,0,0,336.041,65.16Z" transform="translate(-325.671 -37.319)" fill="#455a64"/>
      <path id="Path_2813" data-name="Path 2813" d="M336.02,69a.8.8,0,0,0,.7-.4.82.82,0,0,0-.29-1.11l-6.56-3.78a.81.81,0,0,0-1.11.29.8.8,0,0,0,.3,1.1l6.56,3.79A.73.73,0,0,0,336.02,69Z" transform="translate(-325.65 -37.319)" fill="#455a64"/>
      <path id="Path_2814" data-name="Path 2814" d="M336.016,72.74a.81.81,0,0,0,.41-1.51l-6.56-3.79a.82.82,0,0,0-1.11.3.8.8,0,0,0,.3,1.1l6.56,3.79a.83.83,0,0,0,.4.11Z" transform="translate(-325.646 -37.319)" fill="#455a64"/>
      <g id="freepik--Search--inject-124" transform="translate(10.73 46.64)">
        <path id="Path_2815" data-name="Path 2815" d="M109.772,214.38a.8.8,0,0,0,.41-1.5l-6.56-3.79a.81.81,0,0,0-.81,1.4l6.56,3.78a.76.76,0,0,0,.4.11Z" transform="translate(116.058 -83.959)" fill="#455a64"/>
        <path id="Path_2816" data-name="Path 2816" d="M109.82,218.17a.8.8,0,0,0,.7-.4.81.81,0,0,0-.29-1.11l-6.56-3.78a.8.8,0,0,0-1.1.29.81.81,0,0,0,.29,1.11l6.56,3.78A.76.76,0,0,0,109.82,218.17Z" transform="translate(116.01 -83.959)" fill="#455a64"/>
        <path id="Path_2817" data-name="Path 2817" d="M109.819,222a.81.81,0,0,0,.41-1.51l-6.56-3.78a.79.79,0,0,0-1.1.29.8.8,0,0,0,.29,1.1l6.56,3.79A.86.86,0,0,0,109.819,222Z" transform="translate(116.012 -83.959)" fill="#455a64"/>
        <path id="Path_2818" data-name="Path 2818" d="M241.25,181v5.81c0,1.19-.84,1.67-1.87,1.08l-77.93-45.06V132.69l77.92,45.06A4.14,4.14,0,0,1,241.25,181Z" transform="translate(-73.6 -83.959)" fill="#e6e6e6"/>
        <path id="Path_2819" data-name="Path 2819" d="M243.12,127c-1-.6-1.87-.11-1.87,1.08v5.81a4.15,4.15,0,0,0,1.87,3.24l9.82,5.67V132.69Z" transform="translate(-165.09 -83.959)" fill="#64dbb2"/>
        <path id="Path_2820" data-name="Path 2820" d="M244.944,135l1.09-.35a6.111,6.111,0,0,1-.17-1.41,2.57,2.57,0,0,1,1-2.34,1.55,1.55,0,0,1,1.59.08,5.6,5.6,0,0,1,2.19,4.56,2.57,2.57,0,0,1-1,2.34,1.39,1.39,0,0,1-.69.18,1.75,1.75,0,0,1-.9-.26,4.58,4.58,0,0,1-1.77-2.37l-1.1.34a.25.25,0,0,1-.12,0,.4.4,0,0,1-.12-.79Zm3.51,2.1a.77.77,0,0,0,.79.07,1.9,1.9,0,0,0,.59-1.63,4.92,4.92,0,0,0-1.78-3.86,1.05,1.05,0,0,0-.5-.15.51.51,0,0,0-.29.08,1.9,1.9,0,0,0-.59,1.63,4.92,4.92,0,0,0,1.78,3.85Z" transform="translate(-166.184 -83.959)" fill="#fafafa"/>
        <path id="Path_2821" data-name="Path 2821" d="M117.8,197.53,129.05,204a4.1,4.1,0,0,1,1.87,3.22v5.79c0,1.19-.84,1.67-1.87,1.08l-11.25-6.51a4.11,4.11,0,0,1-1.86-3.23V198.6C115.94,197.42,116.77,196.93,117.8,197.53Z" transform="translate(82.24 -83.959)" fill="#64dbb2"/>
        <path id="Path_2822" data-name="Path 2822" d="M324.72,84.56a9.7,9.7,0,0,1,4.38,7.59c0,2.8-2,3.93-4.38,2.54a9.71,9.71,0,0,1-4.39-7.6C320.33,84.29,322.3,83.16,324.72,84.56Z" transform="translate(-320.33 -83.959)" fill="#64dbb2"/>
        <path id="Path_2823" data-name="Path 2823" d="M325.137,89a.76.76,0,0,0,.39-.1,1,1,0,0,0,.42-.88,2.52,2.52,0,0,0-1.15-2h0a.87.87,0,0,0-1.4.81,2.54,2.54,0,0,0,1.16,2,1.23,1.23,0,0,0,.58.17Z" transform="translate(-320.237 -83.959)" fill="#fff"/>
        <path id="Path_2824" data-name="Path 2824" d="M322.928,89.31a1.5,1.5,0,0,1,1.54.12l.64.37a4.32,4.32,0,0,1,2,3.41v.46a2.47,2.47,0,0,1-2.42-.26,7,7,0,0,1-2.42-2.54v-.11a1.59,1.59,0,0,1,.66-1.45Z" transform="translate(-320.268 -83.959)" fill="#fff"/>
        <path id="Path_2825" data-name="Path 2825" d="M304.412,98.12V96.57c0-1.76,1.07-2.57,2.39-1.81h0a5.74,5.74,0,0,1,2.4,4.58v1.39a5.52,5.52,0,0,0,.81,2.7h0a1.48,1.48,0,0,1,.2.7h0c0,.45-.27.65-.6.46L304,101.36a1.47,1.47,0,0,1-.6-1.16h0a.59.59,0,0,1,.18-.47h0a1.63,1.63,0,0,0,.83-1.61Z" transform="translate(-284.512 -83.959)" fill="#64dbb2"/>
        <path id="Path_2826" data-name="Path 2826" d="M305.69,102.8a2.77,2.77,0,0,0,1.15,2.2c.64.36,1.16,0,1.16-.87Z" transform="translate(-284.59 -83.959)" fill="#64dbb2"/>
        <path id="Path_2827" data-name="Path 2827" d="M288.437,105.48a2.57,2.57,0,0,0-1-.34,1.32,1.32,0,0,0-.8.16,1.34,1.34,0,0,0-.53.61,2.54,2.54,0,0,0-.15,1.09,4.209,4.209,0,0,0,.11,1,6.169,6.169,0,0,0,.28.86,7.842,7.842,0,0,0,.37.77l.4.72c.12.23.24.47.34.7a3.191,3.191,0,0,1,.21.69,1.141,1.141,0,0,0,.08.33.47.47,0,0,0,.16.2l1.13.65h.17a.3.3,0,0,0,.08-.23,3.13,3.13,0,0,0-.13-.91,6.613,6.613,0,0,0-.3-.85c-.13-.27-.26-.54-.41-.79s-.27-.5-.4-.72a5.547,5.547,0,0,1-.31-.66,1.68,1.68,0,0,1-.12-.59c0-.28.07-.46.2-.53s.35,0,.63.12a1.57,1.57,0,0,1,.59.54,2.9,2.9,0,0,1,.27.57l.14.5a.54.54,0,0,0,.23.33l1.13.65a.12.12,0,0,0,.14,0,.27.27,0,0,0,.06-.2,4.91,4.91,0,0,0-.18-1.15,7.621,7.621,0,0,0-.5-1.29,6.257,6.257,0,0,0-.8-1.22,4.14,4.14,0,0,0-1.09-1.01Zm-.8,9.24a.73.73,0,0,0,.07.31.48.48,0,0,0,.18.21l1.16.67a.12.12,0,0,0,.17,0,.3.3,0,0,0,.08-.23v-1.43a.71.71,0,0,0-.08-.31.44.44,0,0,0-.17-.22l-1.16-.67a.14.14,0,0,0-.18,0,.28.28,0,0,0-.07.22Z" transform="translate(-247.857 -83.959)" fill="#64dbb2"/>
      </g>
      <path id="Path_2828" data-name="Path 2828" d="M299.88,143.12V163c0,1.49-1,2.09-2.33,1.35l-25.94-15a5.15,5.15,0,0,1-2.33-4V125.5c0-1.48,1-2.09,2.33-1.34l26,15a5.15,5.15,0,0,1,2.27,3.96Z" transform="translate(-229.33 -37.319)" fill="#64dbb2"/>
      <path id="Path_2829" data-name="Path 2829" d="M299.88,143.12V163c0,1.49-1,2.09-2.33,1.35l-25.94-15a5.15,5.15,0,0,1-2.33-4V125.5c0-1.48,1-2.09,2.33-1.34l26,15a5.15,5.15,0,0,1,2.27,3.96Z" transform="translate(-229.33 -37.319)" fill="#fff" opacity="0.5"/>
      <path id="Path_2830" data-name="Path 2830" d="M290.776,151.46v-8.69a1.71,1.71,0,0,0-1.62-1.68l-7.93-.35c-.89,0-1.12.47-.53,1.13l9,10C290.286,152.53,290.776,152.35,290.776,151.46Z" transform="translate(-231.316 -37.319)" fill="#fafafa"/>
      <path id="Path_2831" data-name="Path 2831" d="M328.39,119.9l-21-12.15c-.58-.33-1.05-.09-1.05.53a2.23,2.23,0,0,0,1.05,1.73l21,12.15c.58.33,1,.09,1-.53a2.22,2.22,0,0,0-1-1.73Z" transform="translate(-295.9 -37.319)" fill="#455a64"/>
      <path id="Path_2832" data-name="Path 2832" d="M328.39,124.41l-21-12.14c-.58-.33-1.05-.1-1.05.53a2.23,2.23,0,0,0,1.05,1.73l21,12.14c.58.34,1,.1,1-.52a2.24,2.24,0,0,0-1-1.74Z" transform="translate(-295.9 -37.319)" fill="#455a64"/>
      <path id="Path_2833" data-name="Path 2833" d="M328.39,128.8l-21-12.15c-.58-.33-1.05-.09-1.05.53a2.23,2.23,0,0,0,1.05,1.73l21,12.14c.58.34,1,.1,1-.52A2.21,2.21,0,0,0,328.39,128.8Z" transform="translate(-295.9 -37.319)" fill="#455a64"/>
      <path id="Path_2834" data-name="Path 2834" d="M321.44,135.07,307,126.73c-.39-.23-.71-.06-.71.36a1.55,1.55,0,0,0,.71,1.19l14.44,8.34c.39.22.71.06.71-.37a1.53,1.53,0,0,0-.71-1.18Z" transform="translate(-288.61 -37.319)" fill="#e0e0e0"/>
      <path id="Path_2835" data-name="Path 2835" d="M321.44,138.17,307,129.83c-.39-.23-.71-.06-.71.36a1.55,1.55,0,0,0,.71,1.19l14.44,8.34c.39.22.71.06.71-.37a1.53,1.53,0,0,0-.71-1.18Z" transform="translate(-288.61 -37.319)" fill="#e0e0e0"/>
      <path id="Path_2836" data-name="Path 2836" d="M321.44,141.17,307,132.84c-.39-.23-.71-.07-.71.36a1.55,1.55,0,0,0,.71,1.19l14.44,8.33c.39.23.71.07.71-.36a1.55,1.55,0,0,0-.71-1.19Z" transform="translate(-288.61 -37.319)" fill="#e0e0e0"/>
      <path id="Path_2837" data-name="Path 2837" d="M299.88,178.47v19.86c0,1.49-1,2.09-2.33,1.35l-25.94-15a5.15,5.15,0,0,1-2.33-4V160.83c0-1.49,1-2.09,2.33-1.35l26,15A5.14,5.14,0,0,1,299.88,178.47Z" transform="translate(-229.33 -37.319)" fill="#64dbb2"/>
      <path id="Path_2838" data-name="Path 2838" d="M299.88,178.47v19.86c0,1.49-1,2.09-2.33,1.35l-25.94-15a5.15,5.15,0,0,1-2.33-4V160.83c0-1.49,1-2.09,2.33-1.35l26,15A5.14,5.14,0,0,1,299.88,178.47Z" transform="translate(-229.33 -37.319)" fill="#fff" opacity="0.5"/>
      <path id="Path_2839" data-name="Path 2839" d="M290.776,186.8v-8.68a1.7,1.7,0,0,0-1.62-1.68l-7.93-.35c-.89,0-1.12.47-.53,1.13l9,10C290.286,187.88,290.776,187.7,290.776,186.8Z" transform="translate(-231.316 -37.319)" fill="#fafafa"/>
      <path id="Path_2840" data-name="Path 2840" d="M328.39,155.24l-21-12.14c-.58-.33-1.05-.1-1.05.53a2.23,2.23,0,0,0,1.05,1.73l21,12.14c.58.34,1,.1,1-.52a2.24,2.24,0,0,0-1-1.74Z" transform="translate(-295.9 -37.319)" fill="#455a64"/>
      <path id="Path_2841" data-name="Path 2841" d="M328.39,159.76l-21-12.14c-.58-.33-1.05-.1-1.05.53a2.25,2.25,0,0,0,1.05,1.73l21,12.14c.58.33,1,.1,1-.53A2.22,2.22,0,0,0,328.39,159.76Z" transform="translate(-295.9 -37.319)" fill="#455a64"/>
      <path id="Path_2842" data-name="Path 2842" d="M328.39,164.14l-21-12.14c-.58-.33-1.05-.1-1.05.53a2.23,2.23,0,0,0,1.05,1.73l21,12.14c.58.33,1,.1,1-.53a2.24,2.24,0,0,0-1-1.73Z" transform="translate(-295.9 -37.319)" fill="#455a64"/>
      <path id="Path_2843" data-name="Path 2843" d="M321.44,170.41,307,162.08c-.39-.23-.71-.07-.71.36a1.55,1.55,0,0,0,.71,1.19L321.44,172c.39.23.71.07.71-.36a1.55,1.55,0,0,0-.71-1.23Z" transform="translate(-288.61 -37.319)" fill="#e0e0e0"/>
      <path id="Path_2844" data-name="Path 2844" d="M321.44,173.51,307,165.18c-.39-.23-.71-.07-.71.36a1.55,1.55,0,0,0,.71,1.19l14.44,8.33c.39.23.71.07.71-.36a1.55,1.55,0,0,0-.71-1.19Z" transform="translate(-288.61 -37.319)" fill="#e0e0e0"/>
      <path id="Path_2845" data-name="Path 2845" d="M321.44,176.52,307,168.19c-.39-.23-.71-.07-.71.36a1.55,1.55,0,0,0,.71,1.19l14.44,8.33c.39.23.71.07.71-.36a1.55,1.55,0,0,0-.71-1.19Z" transform="translate(-288.61 -37.319)" fill="#e0e0e0"/>
      <path id="Path_2846" data-name="Path 2846" d="M299.88,213.79v19.86c0,1.49-1,2.09-2.33,1.35l-25.94-15a5.15,5.15,0,0,1-2.33-4V196.15c0-1.48,1-2.09,2.33-1.34l26,15A5.15,5.15,0,0,1,299.88,213.79Z" transform="translate(-229.33 -37.319)" fill="#64dbb2"/>
      <path id="Path_2847" data-name="Path 2847" d="M299.88,213.79v19.86c0,1.49-1,2.09-2.33,1.35l-25.94-15a5.15,5.15,0,0,1-2.33-4V196.15c0-1.48,1-2.09,2.33-1.34l26,15A5.15,5.15,0,0,1,299.88,213.79Z" transform="translate(-229.33 -37.319)" fill="#fff" opacity="0.5"/>
      <path id="Path_2848" data-name="Path 2848" d="M290.776,222.13v-8.69a1.71,1.71,0,0,0-1.62-1.68l-7.93-.35c-.89,0-1.12.47-.53,1.13l9,10C290.286,223.2,290.776,223,290.776,222.13Z" transform="translate(-231.316 -37.319)" fill="#fafafa"/>
      <path id="Path_2849" data-name="Path 2849" d="M328.39,190.57l-21-12.15c-.58-.33-1.05-.09-1.05.53a2.23,2.23,0,0,0,1.05,1.73l21,12.15c.58.33,1,.09,1-.53A2.21,2.21,0,0,0,328.39,190.57Z" transform="translate(-295.9 -37.319)" fill="#455a64"/>
      <path id="Path_2850" data-name="Path 2850" d="M328.39,195.08l-21-12.14c-.58-.33-1.05-.1-1.05.53a2.23,2.23,0,0,0,1.05,1.73l21,12.14c.58.34,1,.1,1-.52a2.24,2.24,0,0,0-1-1.74Z" transform="translate(-295.9 -37.319)" fill="#455a64"/>
      <path id="Path_2851" data-name="Path 2851" d="M328.39,199.47l-21-12.15c-.58-.33-1.05-.09-1.05.53a2.23,2.23,0,0,0,1.05,1.73l21,12.14c.58.34,1,.1,1-.52A2.21,2.21,0,0,0,328.39,199.47Z" transform="translate(-295.9 -37.319)" fill="#455a64"/>
      <path id="Path_2852" data-name="Path 2852" d="M321.44,205.74,307,197.4c-.39-.23-.71-.06-.71.36a1.55,1.55,0,0,0,.71,1.19l14.44,8.34c.39.22.71.06.71-.37A1.53,1.53,0,0,0,321.44,205.74Z" transform="translate(-288.61 -37.319)" fill="#e0e0e0"/>
      <path id="Path_2853" data-name="Path 2853" d="M321.44,208.84,307,200.5c-.39-.23-.71-.06-.71.36a1.55,1.55,0,0,0,.71,1.19l14.44,8.34c.39.22.71.06.71-.37A1.53,1.53,0,0,0,321.44,208.84Z" transform="translate(-288.61 -37.319)" fill="#e0e0e0"/>
      <path id="Path_2854" data-name="Path 2854" d="M321.44,211.84,307,203.51c-.39-.23-.71-.07-.71.36a1.55,1.55,0,0,0,.71,1.19l14.44,8.33c.39.23.71.07.71-.36a1.55,1.55,0,0,0-.71-1.19Z" transform="translate(-288.61 -37.319)" fill="#e0e0e0"/>
      <path id="Path_2855" data-name="Path 2855" d="M299.88,249.14V269c0,1.48-1,2.08-2.33,1.34l-25.94-15a5.14,5.14,0,0,1-2.33-4V231.49c0-1.48,1-2.08,2.33-1.34l26,15a5.14,5.14,0,0,1,2.27,3.99Z" transform="translate(-229.33 -37.319)" fill="#64dbb2"/>
      <path id="Path_2856" data-name="Path 2856" d="M299.88,249.14V269c0,1.48-1,2.08-2.33,1.34l-25.94-15a5.14,5.14,0,0,1-2.33-4V231.49c0-1.48,1-2.08,2.33-1.34l26,15a5.14,5.14,0,0,1,2.27,3.99Z" transform="translate(-229.33 -37.319)" fill="#fff" opacity="0.5"/>
      <path id="Path_2857" data-name="Path 2857" d="M290.776,257.48V248.8a1.71,1.71,0,0,0-1.62-1.69l-7.93-.34c-.89,0-1.12.46-.53,1.13l9,10C290.286,258.56,290.776,258.37,290.776,257.48Z" transform="translate(-231.316 -37.319)" fill="#fafafa"/>
      <path id="Path_2858" data-name="Path 2858" d="M328.39,225.92l-21-12.14c-.58-.34-1.05-.1-1.05.52a2.22,2.22,0,0,0,1.05,1.73l21,12.15c.58.33,1,.1,1-.53A2.22,2.22,0,0,0,328.39,225.92Z" transform="translate(-295.9 -37.319)" fill="#455a64"/>
      <path id="Path_2859" data-name="Path 2859" d="M328.39,230.44l-21-12.15c-.58-.33-1.05-.09-1.05.53a2.23,2.23,0,0,0,1.05,1.73l21,12.15c.58.33,1,.09,1-.53A2.22,2.22,0,0,0,328.39,230.44Z" transform="translate(-295.9 -37.319)" fill="#455a64"/>
      <path id="Path_2860" data-name="Path 2860" d="M328.39,234.82l-21-12.15c-.58-.33-1.05-.09-1.05.53a2.22,2.22,0,0,0,1.05,1.73l21,12.15c.58.33,1,.09,1-.53a2.22,2.22,0,0,0-1-1.73Z" transform="translate(-295.9 -37.319)" fill="#455a64"/>
      <path id="Path_2861" data-name="Path 2861" d="M321.44,241.09,307,232.75c-.39-.22-.71-.06-.71.37a1.53,1.53,0,0,0,.71,1.18l14.44,8.34c.39.23.71.06.71-.36a1.55,1.55,0,0,0-.71-1.19Z" transform="translate(-288.61 -37.319)" fill="#e0e0e0"/>
      <path id="Path_2862" data-name="Path 2862" d="M321.44,244.19,307,235.85c-.39-.22-.71-.06-.71.37a1.53,1.53,0,0,0,.71,1.18l14.44,8.34c.39.23.71.06.71-.36a1.55,1.55,0,0,0-.71-1.19Z" transform="translate(-288.61 -37.319)" fill="#e0e0e0"/>
      <path id="Path_2863" data-name="Path 2863" d="M321.44,247.19,307,238.86c-.39-.23-.71-.06-.71.36a1.55,1.55,0,0,0,.71,1.19l14.44,8.33c.39.23.71.07.71-.36a1.55,1.55,0,0,0-.71-1.19Z" transform="translate(-288.61 -37.319)" fill="#e0e0e0"/>
      <path id="Path_2864" data-name="Path 2864" d="M186.2,344.74l-78.42-45.28c-1.28-.74-2.33-.21-2.32,1.18a5,5,0,0,0,2.33,3.87l78.41,45.28c1.28.74,2.33.21,2.33-1.18A5,5,0,0,0,186.2,344.74Z" transform="translate(45.84 -37.319)" fill="#455a64"/>
      <path id="Path_2865" data-name="Path 2865" d="M150.82,353.88l-44-25.37c-.73-.42-1.31-.13-1.31.66a2.82,2.82,0,0,0,1.31,2.17l43.95,25.37c.72.42,1.31.12,1.31-.66A2.82,2.82,0,0,0,150.82,353.88Z" transform="translate(82.24 -37.319)" fill="#e0e0e0"/>
      <path id="Path_2866" data-name="Path 2866" d="M180.06,352.87l-56.17-32.42c-1.28-.75-2.33-.22-2.33,1.18a5,5,0,0,0,2.33,3.87l56.17,32.42c1.29.74,2.33.22,2.33-1.18a5,5,0,0,0-2.33-3.87Z" transform="translate(35.88 -37.319)" fill="#455a64"/>
      <path id="Path_2867" data-name="Path 2867" d="M144.58,362l-21.71-12.53c-.73-.42-1.31-.12-1.31.66a2.79,2.79,0,0,0,1.31,2.17l21.71,12.53c.72.41,1.3.12,1.3-.66a2.79,2.79,0,0,0-1.3-2.17Z" transform="translate(72.39 -37.319)" fill="#e0e0e0"/>
      <path id="Path_2868" data-name="Path 2868" d="M111.53,358.63a13.53,13.53,0,0,1,6.12,10.6c0,3.9-2.74,5.49-6.12,3.53a13.51,13.51,0,0,1-6.12-10.6C105.41,358.26,108.15,356.68,111.53,358.63Z" transform="translate(116.77 -37.319)" fill="#64dbb2"/>
      <path id="Path_2869" data-name="Path 2869" d="M112.1,364.85a1,1,0,0,0,.55-.14,1.32,1.32,0,0,0,.59-1.22,3.51,3.51,0,0,0-1.62-2.79h0a1.2,1.2,0,0,0-1.94,1.12,3.52,3.52,0,0,0,1.61,2.79,1.66,1.66,0,0,0,.81.24Z" transform="translate(116.91 -37.319)" fill="#fff"/>
      <path id="Path_2870" data-name="Path 2870" d="M109.168,365.26a2.11,2.11,0,0,1,2.16.17l.88.51a6,6,0,0,1,2.76,4.77v.63a3.43,3.43,0,0,1-3.38-.36,9.77,9.77,0,0,1-3.38-3.54v-.15A2.23,2.23,0,0,1,109.168,365.26Z" transform="translate(116.662 -37.319)" fill="#fff"/>
      <path id="Path_2871" data-name="Path 2871" d="M243.05,301.82l-25.94-15c-1.29-.74-2.34-.14-2.34,1.35v4.71a5.15,5.15,0,0,0,2.34,4l25.94,15c1.29.74,2.33.14,2.33-1.35v-4.71a5.15,5.15,0,0,0-2.33-4Z" transform="translate(-120.32 -37.319)" fill="#64dbb2"/>
      <path id="Path_2872" data-name="Path 2872" d="M243.05,301.82l-25.94-15c-1.29-.74-2.34-.14-2.34,1.35v4.71a5.15,5.15,0,0,0,2.34,4l25.94,15c1.29.74,2.33.14,2.33-1.35v-4.71a5.15,5.15,0,0,0-2.33-4Z" transform="translate(-120.329 -37.319)" fill="#fff" opacity="0.7"/>
      <path id="Path_2873" data-name="Path 2873" d="M250.092,284.78v-1.55c0-1.76,1.07-2.58,2.4-1.81h0a5.75,5.75,0,0,1,2.4,4.58v1.39a5.5,5.5,0,0,0,.8,2.7h0a1.54,1.54,0,0,1,.19.71h0c0,.45-.27.65-.6.46l-5.6-3.24a1.43,1.43,0,0,1-.61-1.15h0a.57.57,0,0,1,.18-.47h0a1.66,1.66,0,0,0,.84-1.62Z" transform="translate(-165.122 -37.319)" fill="#455a64"/>
      <path id="Path_2874" data-name="Path 2874" d="M251.31,289.45a2.73,2.73,0,0,0,1.15,2.2c.63.37,1.15,0,1.15-.87Z" transform="translate(-165.09 -37.319)" fill="#455a64"/>
      <path id="Path_2875" data-name="Path 2875" d="M203.96,292.37a1.45,1.45,0,0,0,.52.92,1.12,1.12,0,0,0-.08.44,1.4,1.4,0,0,0,.68,1.06l3.05,1.77v-4h0c0-.07-.84-1.91-.91-2.19a8.4,8.4,0,0,1,0-1.42.72.72,0,0,0-.81-.36h0a.36.36,0,0,0-.18.2,2.7,2.7,0,0,0-.19.63,3.51,3.51,0,0,0,.07,1.14l-1.85-1.07a.38.38,0,0,0-.36-.05.46.46,0,0,0-.19.4,1.39,1.39,0,0,0,.3.8s-.37-.11-.37.38a1.3,1.3,0,0,0,.45.91S203.96,292,203.96,292.37Z" transform="translate(-71.94 -37.319)" fill="#64dbb2"/>
      <path id="Path_2876" data-name="Path 2876" d="M201.86,296.3v.85a.39.39,0,0,0,.17.3l1,.57h0a.33.33,0,0,0,.17,0v-4.58l-.8-.46h0l-.48-.28a.41.41,0,0,0,0,.18Z" transform="translate(-65.23 -37.319)" fill="#64dbb2"/>
      <path id="Path_2877" data-name="Path 2877" d="M225.62,276.76a.35.35,0,0,1,.51-.32,2.05,2.05,0,0,1-.08-.53c0-.34.28-.51.68-.28l3.05,1.76v4h0a10.06,10.06,0,0,0-.92,1.13,8.538,8.538,0,0,0,0,1.43c0,.15-.49-.07-.81-.58h0a2.43,2.43,0,0,1-.18-.4,5.669,5.669,0,0,1-.18-.85,2.88,2.88,0,0,1,.06-1.07l-1.84-1.06a.91.91,0,0,1-.36-.37,1.28,1.28,0,0,1-.19-.61c0-.37.2-.45.3-.46a1.13,1.13,0,0,1-.37-.8c0-.28.17-.49.45-.39a1.36,1.36,0,0,1-.12-.6Z" transform="translate(-115.24 -37.319)" fill="#64dbb2"/>
      <path id="Path_2878" data-name="Path 2878" d="M223.49,278.15v-.84c0-.11.08-.16.18-.1l1,.56h0a1.151,1.151,0,0,1,.18.16v4.58l-.81-.46h0l-.47-.28a.8.8,0,0,1-.05-.23Z" transform="translate(-108.51 -37.319)" fill="#64dbb2"/>
      <path id="Path_2879" data-name="Path 2879" d="M245.388,263.9l3.36-1v1.78a7.79,7.79,0,0,1,3.31,2.67c1.85,2.76.51,4.34-.11,4.45,0,0,1-.67-.1-2.65a6,6,0,0,0-3.1-2.32v2Z" transform="translate(-158.558 -37.319)" fill="#64dbb2"/>
      <path id="Path_2880" data-name="Path 2880" d="M216.81,286.09l-4.08-2.35c-1.29-.75-2.33-.22-2.33,1.18a5,5,0,0,0,2.33,3.87l4.08,2.35c1.29.75,2.33.22,2.33-1.18a5,5,0,0,0-2.33-3.87Z" transform="translate(-89.71 -37.319)" fill="#e0e0e0"/>
      <path id="Path_2881" data-name="Path 2881" d="M238.67,273.47l-4.08-2.36c-1.29-.74-2.33-.21-2.33,1.18a5,5,0,0,0,2.33,3.87l4.08,2.36c1.29.74,2.33.22,2.33-1.18a5,5,0,0,0-2.33-3.87Z" transform="translate(-133.43 -37.319)" fill="#e0e0e0"/>
    </g>
  </g>
  <g id="freepik--Video--inject-124" transform="translate(230.44 121.421)">
    <path id="Path_2882" data-name="Path 2882" d="M258.18,223,111.85,138.52c-1.29-.75-2.33-.14-2.33,1.34V244.13a5.14,5.14,0,0,0,2.33,4l146.33,84.52c1.28.75,2.33.14,2.33-1.34V227A5.17,5.17,0,0,0,258.18,223Z" transform="translate(-109.52 -138.199)" fill="#455a64"/>
    <g id="freepik--Bar--inject-124" transform="translate(3.73 103.396)">
      <path id="Path_2883" data-name="Path 2883" d="M236.16,316.09l-107.4-61.75c-.69-.4-1.26-.11-1.26.64a2.72,2.72,0,0,0,1.26,2.09l107.4,61.75c.7.4,1.26.11,1.26-.64A2.69,2.69,0,0,0,236.16,316.09Z" transform="translate(-108.14 -241.594)" fill="#fff" opacity="0.3"/>
      <path id="Path_2884" data-name="Path 2884" d="M225.59,316.09l-96.83-55.65c-.7-.4-1.26-.11-1.26.64a2.69,2.69,0,0,0,1.26,2.09l96.83,55.65c.7.4,1.26.11,1.26-.64a2.69,2.69,0,0,0-1.26-2.09Z" transform="translate(-97.57 -241.594)" fill="#fff"/>
      <path id="Path_2885" data-name="Path 2885" d="M114.719,323.83v2.68a.41.41,0,0,0,.19.33l.52.3a.12.12,0,0,0,.19-.11v-2.68a.44.44,0,0,0-.19-.33l-.52-.3C114.8,323.66,114.719,323.71,114.719,323.83Z" transform="translate(26.441 -241.594)" fill="#fff"/>
      <path id="Path_2886" data-name="Path 2886" d="M116.52,322.79v2.68a.41.41,0,0,0,.19.33l.51.3a.124.124,0,0,0,.2-.11v-2.68a.42.42,0,0,0-.2-.33l-.51-.3C116.6,322.62,116.52,322.67,116.52,322.79Z" transform="translate(22.84 -241.594)" fill="#fff"/>
      <path id="Path_2887" data-name="Path 2887" d="M123.971,318.74v2.68a.44.44,0,0,0,.19.33l.23.14c.11.06.19,0,.19-.11V319.1a.41.41,0,0,0-.19-.33l-.23-.14a.12.12,0,0,0-.19.11Z" transform="translate(8.23 -241.594)" fill="#fff"/>
      <path id="Path_2888" data-name="Path 2888" d="M123.519,320.82v2.63c0,.19-.1.23-.23.08l-2.42-2.79c-.13-.15-.07-.27.12-.27h2.18a.35.35,0,0,1,.35.35Z" transform="translate(12.461 -241.594)" fill="#fff"/>
      <path id="Path_2889" data-name="Path 2889" d="M251.407,246.83a.31.31,0,0,0,.31-.31v-.88a.3.3,0,0,0-.15-.26l-1.43-.82a.29.29,0,0,0-.41.11.31.31,0,0,0,.11.41l1.27.73v.71a.31.31,0,0,0,.3.31Z" transform="translate(-244.627 -241.594)" fill="#fafafa"/>
      <path id="Path_2890" data-name="Path 2890" d="M255,243.09a.3.3,0,0,0,.3-.3v-.37l1,.56a.3.3,0,0,0,.41-.11.29.29,0,0,0-.11-.41l-1.42-.82a.27.27,0,0,0-.3,0,.28.28,0,0,0-.15.26v.89A.3.3,0,0,0,255,243.09Z" transform="translate(-254.696 -241.594)" fill="#fafafa"/>
      <path id="Path_2891" data-name="Path 2891" d="M251.438,250.86a.33.33,0,0,0,.15,0,.31.31,0,0,0,.16-.26v-.89a.31.31,0,0,0-.61,0V250l-1-.56a.31.31,0,0,0-.41.11.32.32,0,0,0,.11.42l1.42.82A.42.42,0,0,0,251.438,250.86Z" transform="translate(-244.657 -241.594)" fill="#fafafa"/>
      <path id="Path_2892" data-name="Path 2892" d="M256.48,247.94a.3.3,0,0,0,.15-.56l-1.27-.74v-.71a.3.3,0,1,0-.6,0v.89a.28.28,0,0,0,.15.26l1.42.82A.28.28,0,0,0,256.48,247.94Z" transform="translate(-254.76 -241.594)" fill="#fafafa"/>
      <path id="Path_2893" data-name="Path 2893" d="M240.767,250.08h.63a.09.09,0,0,0,.1-.09,2.448,2.448,0,0,1,0-.27c0-.1,0-.2,0-.29a.25.25,0,0,0-.06-.17l-.64-.78a.17.17,0,0,1,0-.16l.3-.68h.09l.69.63a.14.14,0,0,0,.16,0,.919.919,0,0,1,.29-.17.11.11,0,0,0,.07-.12l-.21-1v-.07h.06l.68.07a.19.19,0,0,1,.14.1l.37,1a.28.28,0,0,0,.15.15,2.549,2.549,0,0,1,.41.24h.15l.34-.52h.13l.74.78a.24.24,0,0,1,.06.17l-.21.7a.25.25,0,0,0,0,.16c.12.2.24.39.34.6a.29.29,0,0,0,.16.12l.63.15a.21.21,0,0,1,.15.12l.32,1.07a.08.08,0,0,1-.08.1h-.58a.1.1,0,0,0-.1.1,2.529,2.529,0,0,1,0,.55.27.27,0,0,0,.06.17l.65.79a.17.17,0,0,1,0,.16l-.31.68h-.08l-.69-.63a.12.12,0,0,0-.15,0,1.27,1.27,0,0,1-.29.18.1.1,0,0,0-.07.12l.21,1v.07h-.06l-.68-.07a.18.18,0,0,1-.15-.1l-.36-1a.34.34,0,0,0-.15-.14l-.21-.12-.21-.12s-.12-.05-.14,0l-.35.53h0a.11.11,0,0,1-.11,0l-.74-.78a.19.19,0,0,1-.06-.16l.21-.7a.28.28,0,0,0,0-.17,5,5,0,0,1-.34-.59.28.28,0,0,0-.16-.12l-.64-.15a.174.174,0,0,1-.14-.12l-.32-1.08a.07.07,0,0,1,0-.14Zm3.39,2.62h.25a.7.7,0,0,0,.64-.43,1.06,1.06,0,0,0,.09-.35,1.338,1.338,0,0,0,0-.2,3,3,0,0,0-.83-1.92,2.291,2.291,0,0,0-.51-.41l-.17-.09a1.12,1.12,0,0,0-.48-.1h-.08a.66.66,0,0,0-.53.42,2.55,2.55,0,0,0,.73,2.46,1.89,1.89,0,0,0,.89.62Z" transform="translate(-230.727 -241.594)" fill="#fff"/>
    </g>
    <g id="freepik--Steps--inject-124" transform="translate(7.74 16.951)">
      <path id="Path_2894" data-name="Path 2894" d="M210.77,175.9c-3.16-1.83-5.73-.35-5.73,3.3a12.68,12.68,0,0,0,5.73,9.92c3.16,1.83,5.73.35,5.73-3.31a12.65,12.65,0,0,0-5.73-9.91Z" transform="translate(-168.77 -155.15)" fill="#64dbb2"/>
      <text id="_1" data-name="1" transform="matrix(-1, 0, 0, 1, 44.28, 32.88)" fill="#455a64" font-size="7" font-family="SegoeUI-Bold, Segoe UI" font-weight="700"><tspan x="0" y="0">1</tspan></text>
      <path id="Path_2895" data-name="Path 2895" d="M251.39,171.35l-27.79-16c-.77-.44-1.38-.13-1.38.7a2.91,2.91,0,0,0,1.38,2.28l27.79,16c.76.44,1.38.13,1.38-.7a3,3,0,0,0-1.38-2.28Z" transform="translate(-222.22 -155.15)" fill="#64dbb2"/>
      <path id="Path_2896" data-name="Path 2896" d="M242.24,176.71l-19.07-11c-.52-.3-.95-.09-.95.48a2,2,0,0,0,.95,1.57l19.07,11c.52.3.95.09.95-.48A2,2,0,0,0,242.24,176.71Z" transform="translate(-212.64 -155.15)" fill="#e0e0e0"/>
      <path id="Path_2897" data-name="Path 2897" d="M210.77,195.75c-3.16-1.82-5.73-.34-5.73,3.31a12.68,12.68,0,0,0,5.73,9.92c3.16,1.82,5.73.34,5.73-3.31A12.68,12.68,0,0,0,210.77,195.75Z" transform="translate(-168.77 -155.15)" fill="#64dbb2"/>
      <text id="_2" data-name="2" transform="matrix(-1, 0, 0, 1, 44.28, 52.74)" fill="#455a64" font-size="7" font-family="SegoeUI-Bold, Segoe UI" font-weight="700"><tspan x="0" y="0">2</tspan></text>
      <path id="Path_2898" data-name="Path 2898" d="M251.39,191.2l-27.79-16c-.77-.44-1.38-.13-1.38.69a2.93,2.93,0,0,0,1.38,2.29l27.79,16.01c.76.44,1.38.13,1.38-.7a3,3,0,0,0-1.38-2.29Z" transform="translate(-222.22 -155.15)" fill="#64dbb2"/>
      <path id="Path_2899" data-name="Path 2899" d="M242.24,196.57l-19.07-11c-.52-.31-.95-.09-.95.47a2,2,0,0,0,.95,1.57l19.07,11c.52.3.95.08.95-.48A2,2,0,0,0,242.24,196.57Z" transform="translate(-212.64 -155.15)" fill="#e0e0e0"/>
      <path id="Path_2900" data-name="Path 2900" d="M210.77,215.61c-3.16-1.83-5.73-.35-5.73,3.31a12.65,12.65,0,0,0,5.73,9.91c3.16,1.83,5.73.35,5.73-3.3A12.68,12.68,0,0,0,210.77,215.61Z" transform="translate(-168.77 -155.15)" fill="#64dbb2"/>
      <text id="_3" data-name="3" transform="matrix(-1, 0, 0, 1, 44.28, 72.6)" fill="#455a64" font-size="7" font-family="SegoeUI-Bold, Segoe UI" font-weight="700"><tspan x="0" y="0">3</tspan></text>
      <path id="Path_2901" data-name="Path 2901" d="M251.39,211.06,223.6,195c-.77-.44-1.38-.12-1.38.7a2.94,2.94,0,0,0,1.38,2.29l27.79,16.06c.76.44,1.38.12,1.38-.7a3,3,0,0,0-1.38-2.29Z" transform="translate(-222.22 -155.15)" fill="#64dbb2"/>
      <path id="Path_2902" data-name="Path 2902" d="M242.24,216.43l-19.07-11c-.52-.3-.95-.08-.95.48a2,2,0,0,0,.95,1.57l19.07,11c.52.31.95.09.95-.47A2,2,0,0,0,242.24,216.43Z" transform="translate(-212.64 -155.15)" fill="#e0e0e0"/>
    </g>
  </g>
  <g id="freepik--Character--inject-124" transform="translate(245.173 166.548)">
    <path id="Path_2903" data-name="Path 2903" d="M149.766,242.12c6.76.82,24.95,1.47,24.95,1.47h0c12-5.27,21.38-16.83,22.57-29.86l.52-5.61c1-10.64-6.65-20.57-16.84-23.77a20.92,20.92,0,0,0-27.3,18c-.25,2.76-1,5.2-3.23,7a20.769,20.769,0,0,1-4,2.24,18,18,0,0,0-5.45,3.71,8.07,8.07,0,0,0-2.33,6,7.58,7.58,0,0,0,1.61,3.89.91.91,0,0,1,.28.62.94.94,0,0,1-.23.44c-2.07,2.65-3.16,6.31-1.92,9.43a9.21,9.21,0,0,0,4.29,4.51,18.549,18.549,0,0,0,6.08,1.81Z" transform="translate(-89.989 -183.326)" fill="#263238"/>
    <path id="Path_2904" data-name="Path 2904" d="M170.17,223.26a8,8,0,0,1,1.21-1.32c.79-.73,1.88-1.4,2.89-1a3.23,3.23,0,0,1,1.4,1.34c.64.94,1.4,1.81,2,2.78a27.182,27.182,0,0,0,2.83,4c.45.54,1.1,1.28,1.87,1.05a.78.78,0,0,0,.36-.22.86.86,0,0,0,.16-.38,5.16,5.16,0,0,0-.11-2,4.19,4.19,0,0,1,0-2,1.54,1.54,0,0,1,1.48-1.12.73.73,0,0,1,.49.23,1,1,0,0,1,.2.33,32.191,32.191,0,0,1,2.83,8.19,24.5,24.5,0,0,0,.68,3.73c.85,2.64,3.94,4,6.11,5.53a167.644,167.644,0,0,0,14.62,8.6c2.46-2.16,18-15.72,22.29-19.3,6.18-5.14,12.74-2.84,13.63-2.77s2.07,6-5.2,14.6c0,0-22.67,19.18-27,21.67-1.07.61-2.52,1.88-4.27,1.81h-.28a3,3,0,0,1-.69-.14h0c-2.15-.69-5.22-3.35-6.51-4.35a244.319,244.319,0,0,1-18.66-16.66c-1.69-1.64-3.61-3-5.44-4.49a23.83,23.83,0,0,1-6-6.67,13.23,13.23,0,0,1-2.11-6.06,8.26,8.26,0,0,1,1.22-5.38Z" transform="translate(-168.893 -183.326)" fill="#ffa8a7"/>
    <path id="Path_2905" data-name="Path 2905" d="M178.574,275.29c5.35,12,6.65,19,7.07,25.53a163.845,163.845,0,0,1-.2,16.41L138.214,290a133.937,133.937,0,0,1,4.64-19.64Z" transform="translate(-78.227 -183.326)" fill="#64dbb2"/>
    <path id="Path_2906" data-name="Path 2906" d="M143.238,255.52l.28,12.38c-.62,2.43-1.61,6.4-2.72,10,.7,2.19,5.87,8.08,16.85,11.73,11.6,3.86,24.83-.12,26.3-3l-4.6-11.65s4-15.45,4.06-15.64-4.29-6.47-4.58-14,1.79-10.76,2.45-11.48c-.3-.13-7.07-2-7.07-2l-13.5-2.7-6.35-.41a27.88,27.88,0,0,0-12.23,12.36,13.27,13.27,0,0,0,1.11,14.41Z" transform="translate(-78.681 -183.326)" fill="#fafafa"/>
    <path id="Path_2907" data-name="Path 2907" d="M146.006,193.4c-1.41,1.44-4.26,4.89-4,17.4.27,10.61,3.71,13.22,5.44,14s5.06.28,8.29-.26v5.17s-4.58,3.19-5.73,6.08c-.9,2.25,4.82,5.39,13.5,1.65,3.55-1.53,6.41-5.42,6.41-5.42l-.11-15.32s1.91,1.84,5.13-1c2.66-2.33,3.55-6.27,1.47-8.37a4.65,4.65,0,0,0-7.39,1.49,24.72,24.72,0,0,1-12.69-3.28C149.5,201.76,146.466,197.52,146.006,193.4Z" transform="translate(-73.769 -183.326)" fill="#ffa8a7"/>
    <path id="Path_2908" data-name="Path 2908" d="M162.84,208.89a1.33,1.33,0,1,0,1.4-1.32,1.36,1.36,0,0,0-1.4,1.32Z" transform="translate(-82.563 -183.326)" fill="#263238"/>
    <path id="Path_2909" data-name="Path 2909" d="M169.444,216.75l-5,.91a2.5,2.5,0,0,0,2.9,2.13,2.66,2.66,0,0,0,2.1-3.04Z" transform="translate(-88.147 -183.326)" fill="#b16668"/>
    <path id="Path_2910" data-name="Path 2910" d="M165.53,219.79a2.45,2.45,0,0,1-1,0,2.19,2.19,0,0,1,2.18-2.09,2.13,2.13,0,0,1,.88.18,2.63,2.63,0,0,1-2.06,1.91Z" transform="translate(-86.343 -183.326)" fill="#f28f8f"/>
    <path id="Path_2911" data-name="Path 2911" d="M173.207,204.61l3-1.23a1.57,1.57,0,0,0-2.08-.94,1.72,1.72,0,0,0-.92,2.17Z" transform="translate(-103.53 -183.326)" fill="#263238"/>
    <path id="Path_2912" data-name="Path 2912" d="M172.74,207.91a1.33,1.33,0,1,0,1.4-1.33,1.37,1.37,0,0,0-1.4,1.33Z" transform="translate(-102.363 -183.326)" fill="#263238"/>
    <path id="Path_2913" data-name="Path 2913" d="M174.07,207.37l-.92,7.76-4-1.9Z" transform="translate(-97.443 -183.326)" fill="#f28f8f"/>
    <path id="Path_2914" data-name="Path 2914" d="M152.25,224.51c3.41-.46,10.42-2.49,11.51-5.27a7.18,7.18,0,0,1-2.45,3.55c-2.09,1.8-9.05,3.84-9.05,3.84Z" transform="translate(-70.233 -183.326)" fill="#f28f8f"/>
    <path id="Path_2915" data-name="Path 2915" d="M152.462,212.68a3.3,3.3,0,1,1,.56-6.58Z" transform="translate(-56.685 -183.326)" fill="#263238"/>
    <path id="Path_2916" data-name="Path 2916" d="M149.04,281.74c-1.47,8.81-4.69,17-14.35,33.41a28.279,28.279,0,0,1-4,5.55,17.35,17.35,0,0,1-5.81,4.13,6.27,6.27,0,0,1-4.06.27c-2.62-.63-4.85-2.66-5.05-3.91-.27-1.68,2.74-3.38,3.92-4.6a50.6,50.6,0,0,0,3.67-3.61c.67-.92,1.43-1.66.59-1.63a12.19,12.19,0,0,0-1.49.25,6.651,6.651,0,0,1-1.26,0,2.89,2.89,0,0,1-2.28-.87,1,1,0,0,1-.11-1.1,1.64,1.64,0,0,1,.74-.52,21.17,21.17,0,0,0,2.69-1.24,24.309,24.309,0,0,0,2.49-1.64c1.22-1,2.88-2.08,3.63-3.47a43.86,43.86,0,0,0,4.24-10.69,115.331,115.331,0,0,0,2.68-12.32c-.22-.6-3.27-6.21-5.24-9.47-2.83-4.69-5.53-8.71-8.14-12.89-5.51-6.72-5-19.53-.12-23.52,8.58,2.2,11.05,5.89,13.88,11.36,2.76,5.32,10.18,20.16,12.63,27.49A18.57,18.57,0,0,1,149.04,281.74Z" transform="translate(-19.263 -183.326)" fill="#ffa8a7"/>
  </g>
  <g id="freepik--Scissors--inject-124" transform="translate(42.08 350.607)">
    <g id="freepik--scissors--inject-124-2" data-name="freepik--scissors--inject-124">
      <path id="Path_2917" data-name="Path 2917" d="M441.55,406.84l-82.7-18.32-.17,2.24s1.77,3,21.09,8.72,67.1,15.83,67.1,15.83l2-2.65Z" transform="translate(-358.68 -367.384)" fill="#263238"/>
      <path id="Path_2918" data-name="Path 2918" d="M365.022,370.17s4.9,7.73,10.68,12.27,36.73,31.37,36.73,31.37l10,5.53,3-1.73-4.5-10.47s-34.95-24.79-42.51-30S364.052,368.73,365.022,370.17Z" transform="translate(-341.492 -367.384)" fill="#37474f"/>
      <path id="Path_2919" data-name="Path 2919" d="M367.95,415.17l-3,1.73.78,1.99,2.22-1.28Z" transform="translate(-284.03 -367.384)" fill="#263238"/>
      <path id="Path_2920" data-name="Path 2920" d="M422.93,367.48v2.48l2.49,3.65v-3.84Z" transform="translate(-399.48 -367.384)" fill="#37474f"/>
      <path id="Path_2921" data-name="Path 2921" d="M350.331,446.54c-3.85-6,.64-11.65.2-16.79s-1.12-15.94-1.12-15.94l10,5.53s3.32,8.48,4.7,12.05,7.34,7.34,11,10.42,6.73,10.44-3.49,13.31S354.171,452.51,350.331,446.54Zm18,4.58c3.94-1.14,5.12-4.37,2.64-7.22s-7.68-4.24-11.62-3.1-5.11,4.38-2.63,7.23S364.331,452.26,368.331,451.12Z" transform="translate(-278.461 -367.384)" fill="#64dbb2"/>
      <path id="Path_2922" data-name="Path 2922" d="M350.331,446.54c-3.85-6,.64-11.65.2-16.79s-1.12-15.94-1.12-15.94l10,5.53s3.32,8.48,4.7,12.05,7.34,7.34,11,10.42,6.73,10.44-3.49,13.31S354.171,452.51,350.331,446.54Zm18,4.58c3.94-1.14,5.12-4.37,2.64-7.22s-7.68-4.24-11.62-3.1-5.11,4.38-2.63,7.23S364.331,452.26,368.331,451.12Z" transform="translate(-278.46 -367.384)" opacity="0.2"/>
      <path id="Path_2923" data-name="Path 2923" d="M371.94,410.07a4.33,4.33,0,0,0,4.11.78c1.51-.43,2.12-1.5,1.36-2.37a4.33,4.33,0,0,0-4.11-.78C371.79,408.13,371.18,409.2,371.94,410.07Z" transform="translate(-300.48 -367.384)" fill="#263238"/>
      <path id="Path_2924" data-name="Path 2924" d="M303.533,405.65s11.82,2.18,15.71,2.54,9.52-.47,19.25.42,27.25,9.24,28.15,17.34-7.5,8.7-13.53,7.25-9.37-3.68-19.7-8.85c-13.79-6.89-22.94-11.26-22.94-11.26l-7.73-6.4Zm22.92,10.92a126,126,0,0,1,16.42,6.64c6.59,3.26,8.17,5.47,12.29,6.44,3.35.79,6.66-1.09,5-4.77-1.79-3.92-6.74-8-15.85-11s-16.59-2.44-19.92-.68C323.063,413.92,322.453,415.26,326.453,416.57Z" transform="translate(-220.583 -367.384)" fill="#64dbb2"/>
      <path id="Path_2925" data-name="Path 2925" d="M303.533,405.65s11.82,2.18,15.71,2.54,9.52-.47,19.25.42,27.25,9.24,28.15,17.34-7.5,8.7-13.53,7.25-9.37-3.68-19.7-8.85c-13.79-6.89-22.94-11.26-22.94-11.26l-7.73-6.4Zm22.92,10.92a126,126,0,0,1,16.42,6.64c6.59,3.26,8.17,5.47,12.29,6.44,3.35.79,6.66-1.09,5-4.77-1.79-3.92-6.74-8-15.85-11s-16.59-2.44-19.92-.68C323.063,413.92,322.453,415.26,326.453,416.57Z" transform="translate(-220.583 -367.384)" opacity="0.2"/>
      <path id="Path_2926" data-name="Path 2926" d="M358.98,415.31v-2.44l1.66-2.22v2.44Z" transform="translate(-270.75 -367.384)" fill="#263238"/>
      <path id="Path_2927" data-name="Path 2927" d="M441.55,404.4l-82.87-16.08s1.77,3,21.09,8.73,67.1,15.82,67.1,15.82l2-2.65Z" transform="translate(-358.68 -367.384)" fill="#37474f"/>
      <path id="Path_2928" data-name="Path 2928" d="M365.022,367.73s4.9,7.74,10.68,12.28,36.73,31.37,36.73,31.37l10,5.52,3-1.73-4.5-10.47s-34.95-24.79-42.51-30S364.052,366.29,365.022,367.73Z" transform="translate(-341.492 -367.384)" fill="#455a64"/>
      <path id="Path_2929" data-name="Path 2929" d="M350.331,444.1c-3.85-6,.64-11.65.2-16.79s-1.12-15.93-1.12-15.93l10,5.52s3.32,8.48,4.7,12.06,7.34,7.33,11,10.41,6.73,10.44-3.49,13.32S354.171,450.07,350.331,444.1Zm18,4.59c3.94-1.14,5.12-4.38,2.64-7.23s-7.68-4.23-11.62-3.09-5.11,4.37-2.63,7.22S364.331,449.83,368.331,448.69Z" transform="translate(-278.461 -367.384)" fill="#64dbb2"/>
      <path id="Path_2930" data-name="Path 2930" d="M371.94,407.63a4.33,4.33,0,0,0,4.11.79c1.51-.44,2.12-1.5,1.36-2.38a4.33,4.33,0,0,0-4.11-.78C371.79,405.7,371.18,406.76,371.94,407.63Z" transform="translate(-300.48 -367.384)" fill="#263238"/>
      <path id="Path_2931" data-name="Path 2931" d="M303.553,403.21s11.82,2.19,15.71,2.55,9.52-.47,19.25.41,27.25,9.24,28.15,17.34-7.5,8.71-13.53,7.25-9.37-3.68-19.7-8.84c-13.79-6.92-22.96-11.27-22.96-11.27l-7.73-6.39Zm22.92,10.92a124.863,124.863,0,0,1,16.42,6.65c6.59,3.25,8.17,5.46,12.29,6.43,3.35.8,6.66-1.09,5-4.77-1.79-3.91-6.74-8-15.85-10.95s-16.59-2.45-19.92-.69C323.083,411.48,322.473,412.82,326.473,414.13Z" transform="translate(-220.603 -367.384)" fill="#64dbb2"/>
    </g>
  </g>
  <g id="freepik--Pencil--inject-124" transform="translate(173.228 357.341)">
    <g id="freepik--pencil--inject-124-2" data-name="freepik--pencil--inject-124">
      <path id="Path_2932" data-name="Path 2932" d="M317.7,378.86l-24.13-4.73a.75.75,0,0,0-.7,1.23l16.37,18.53Z" transform="translate(-292.672 -374.118)" fill="#ffa8a7"/>
      <path id="Path_2933" data-name="Path 2933" d="M312.294,375.36a.75.75,0,0,1,.7-1.23l4.71.93h0a4.11,4.11,0,0,0-1.94,3.85v.42Z" transform="translate(-312.092 -374.118)" fill="#263238"/>
      <path id="Path_2934" data-name="Path 2934" d="M293.039,446l-2-1.13-2.39-1.36L202.2,393.94a11,11,0,0,1,.67-8c1.71-3.83,5-6.85,7.78-7l86.41,49.54,4.58,2.52C298.6,429.5,290.009,444.39,293.039,446Z" transform="translate(-185.657 -374.118)" fill="#64dbb2"/>
      <path id="Path_2935" data-name="Path 2935" d="M214.245,441.67l-4.4-2.53c-1.3-.69-.55-3.89,1-7.19,2-4.39,6-8.65,7.69-7.73l3.25,1.86,1.15.69c-1.72-.92-5.69,3.33-7.7,7.73-1.45,3.16-2.19,6.25-1.09,7.08h0a.23.23,0,0,0,.1.09Z" transform="translate(-114.393 -374.118)" fill="#ebebeb"/>
      <path id="Path_2936" data-name="Path 2936" d="M206.554,441c-3-1.6,5.63-16.51,8.66-14.91l4.41,2.53c-3-1.61-11.68,13.3-8.65,14.9Z" transform="translate(-107.832 -374.118)" fill="#64dbb2"/>
      <path id="Path_2937" data-name="Path 2937" d="M206.746,446l-4.36-2.49c-3-1.55,5.25-16,8.41-15.06l.18.07,4.37,2.48C212.306,429.5,203.716,444.39,206.746,446Z" transform="translate(-99.364 -374.118)" fill="#ebebeb"/>
      <path id="Path_2938" data-name="Path 2938" d="M207.612,374.55l.81-.42,17.51,9.58,91.37,52.41c.17-.27.31-.29.42-.1-2.57,4-4.51,9.06-2.82,9.94l-2-1.13-2.39-1.36-86.45-49.57h0l-16.37-18.53A.72.72,0,0,1,207.612,374.55Z" transform="translate(-207.52 -374.118)" opacity="0.15"/>
      <path id="Path_2939" data-name="Path 2939" d="M200.78,456.54,182.29,446c-1.3-.67-.58-3.84.92-7.12,2-4.4,5.94-8.69,7.68-7.82h0l18.55,10.62c3.68,2.13.3,10.13-3.81,13.7C204.12,456.7,202.41,457.3,200.78,456.54Z" transform="translate(-74.908 -374.118)" fill="#f28f8f"/>
      <path id="Path_2940" data-name="Path 2940" d="M181.938,450.8c1.06-4.16,4.44-8.25,7.54-9.12a3,3,0,0,1,2.77.37c2.78,2.58-.46,9.92-4.34,13.3-1.5,1.33-3.18,1.92-4.77,1.22C181.8,455.76,181.268,453.63,181.938,450.8Z" transform="translate(-57.215 -374.118)" opacity="0.1"/>
    </g>
  </g>
</svg>
