<svg xmlns="http://www.w3.org/2000/svg" width="617.111" height="442.037" viewBox="0 0 617.111 442.037">
  <g id="alumni-banner" transform="translate(0.027 0.016)">
    <ellipse id="Ellipse_308" data-name="Ellipse 308" cx="46.658" cy="49.43" rx="46.658" ry="49.43" transform="translate(523.768 146.086)" fill="#fdd089"/>
    <ellipse id="Ellipse_309" data-name="Ellipse 309" cx="155.006" cy="147.938" rx="155.006" ry="147.938" transform="translate(272.607 130.796)" fill="#fdd089"/>
    <path id="Path_3303" data-name="Path 3303" d="M2251.236,1467.634s50.631-24.965,59.339-37.985-4.092-13.759-4.092-13.759,22.594-21.974,19.414-31.225-15.039-.411-15.039-.411,14.686-32.7,7.836-35.947c-12.76-6.055-30.66,28.742-30.66,28.742s3.848-15.1-4.939-14.625c-13.25.739-12.7,34.932-12.7,34.932s-1.5-13.11-9.484-8.851C2246.58,1396.148,2251.236,1467.634,2251.236,1467.634Z" transform="translate(-1800.179 -1049.873)" fill="#355389"/>
    <path id="Path_3304" data-name="Path 3304" d="M2259.26,1383.3c8.666-2.608,10.674,6.993,10.674,6.993s-.5-27.1,12.749-27.825c8.787-.493,4.939,14.625,4.939,14.625s17.9-34.8,30.66-28.742l-67.521,118.759C2250.293,1458.812,2246.787,1387.048,2259.26,1383.3Z" transform="translate(-1799.768 -1049.902)" fill="#466eb6"/>
    <path id="Path_3305" data-name="Path 3305" d="M2258.18,1654s41.409,5.144,52.131.562,3.04-10.245,3.04-10.245,23.02-4.526,24.8-11.588-9.217-6.36-9.217-6.36,22.445-14.424,19.5-19.236c-5.5-8.962-30.8,5.47-30.8,5.47s8.541-7.865,2.859-11.13c-8.565-4.921-22.117,16.629-22.117,16.629s.843-5.3-5.869-5.9C2280.456,1611.146,2258.18,1654,2258.18,1654Z" transform="translate(-1805.814 -1235.934)" fill="#355389"/>
    <path id="Path_3306" data-name="Path 3306" d="M2291.588,1610.764c6.71.588,6.458,7.309,6.458,7.309s13.552-21.55,22.117-16.629c5.682,3.265-2.859,11.13-2.859,11.13s25.3-14.432,30.8-5.47l-90.365,46.64C2260.8,1648.383,2280.334,1609.778,2291.588,1610.764Z" transform="translate(-1805.49 -1235.911)" fill="#13375b"/>
    <path id="Path_3307" data-name="Path 3307" d="M1104.4,1805.738c0-.959-.511-1.738-1.142-1.738H581.65a1.777,1.777,0,0,0,0,3.477h521.608C1103.889,1807.477,1104.4,1806.7,1104.4,1805.738Z" transform="translate(-572.527 -1385.328)" fill="#184655"/>
    <path id="Path_3308" data-name="Path 3308" d="M731.7,1367s-66-32.542-77.348-49.515,5.34-17.941,5.34-17.941-29.452-28.644-25.31-40.7,19.61-.53,19.61-.53-19.152-42.628-10.221-46.868c16.631-7.892,39.962,37.466,39.962,37.466s-5.014-19.711,6.434-19.061c17.273.964,16.56,45.537,16.56,45.537s1.95-17.09,12.36-11.538C737.772,1273.8,731.7,1367,731.7,1367Z" transform="translate(-612.028 -949.119)" fill="#355389"/>
    <path id="Path_3309" data-name="Path 3309" d="M749.776,1259.181c-9.108-5.38-16.056,7.282-16.056,7.282s.875-35.645-16.4-36.61c-11.453-.641-6.439,19.064-6.439,19.064s-23.32-45.357-39.962-37.466l88,154.821C759.546,1355.461,761.873,1266.331,749.776,1259.181Z" transform="translate(-639.176 -949.127)" fill="#466eb6"/>
    <path id="Path_3310" data-name="Path 3310" d="M669.026,1609.911s-53.978,6.7-67.954.729-3.959-13.353-3.959-13.353-30.011-5.9-32.33-15.1,12.01-8.3,12.01-8.3-29.259-18.815-25.411-25.077c7.155-11.681,40.15,7.129,40.15,7.129s-11.13-10.253-3.729-14.506c11.164-6.416,28.832,21.674,28.832,21.674s-1.1-6.924,7.651-7.685C639.99,1554.034,669.026,1609.911,669.026,1609.911Z" transform="translate(-551.06 -1191.637)" fill="#355389"/>
    <path id="Path_3311" data-name="Path 3311" d="M625.2,1548.549c-8.745.768-7.611,12.365-7.611,12.365s-15.635-29.963-28.885-22.1c-7.343,4.359,2.841,14.538,2.841,14.538s-32.046-18.415-39.22-6.734l117.8,60.807C666.139,1600.436,639.87,1547.264,625.2,1548.549Z" transform="translate(-552.013 -1189.448)" fill="#13375b"/>
    <path id="Path_3312" data-name="Path 3312" d="M1258.71,1486.955H973.242c-10.9,0-19.742-7.685-19.742-17.191v-10.221c0-9.495,8.838-17.193,19.742-17.193H1258.71c-13.059,12.428-13.284,31.424-.53,44.085Z" transform="translate(-846.873 -1119.515)" fill="#50bfa5"/>
    <path id="Path_3313" data-name="Path 3313" d="M1642.042,1461.64H1498.391c-9.892,0-17.911,7.685-17.911,17.19h0c0,9.495,8.019,17.193,17.911,17.193h143.664A31.919,31.919,0,0,1,1642.042,1461.64Z" transform="translate(-1234.204 -1133.693)" fill="#fae0b2"/>
    <path id="Path_3314" data-name="Path 3314" d="M1287.762,1601.81H928.142c-11.167,0-20.222,8.517-20.222,19.027v16c0,10.507,9.055,19.027,20.222,19.027h359.62l-.188-.185A37.119,37.119,0,0,1,1287.762,1601.81Z" transform="translate(-813.372 -1236.718)" fill="#b75742"/>
    <path id="Path_3315" data-name="Path 3315" d="M1727.966,1632H1535.719c-11.167,0-20.22,8.52-20.22,19.03h0c0,10.507,9.052,19.027,20.22,19.027h192.244A36.836,36.836,0,0,1,1727.966,1632Z" transform="translate(-1259.943 -1258.907)" fill="#fae0b2"/>
    <path id="Path_3316" data-name="Path 3316" d="M1842.434,1704.18h-14.681a5.713,5.713,0,0,0-5.713,5.713v.511h20.394Z" transform="translate(-1485.25 -1311.96)" fill="#13375b"/>
    <path id="Path_3317" data-name="Path 3317" d="M1845.86,1704.216c3.506,0,8.745,2.965,11.7,6.625l34.8,43.155h20.439l-33.093-41.051c-3.9-4.828-10.8-8.745-15.423-8.745Z" transform="translate(-1502.758 -1311.974)" fill="#355389"/>
    <path id="Path_3318" data-name="Path 3318" d="M941.614,535.858a.829.829,0,0,1-1.473.217l-3.445-4.969h-6.042a.832.832,0,0,1-.662-1.325l3.665-4.8-1.879-5.743a.829.829,0,0,1,1.06-1.041l5.7,2,4.881-3.562a.829.829,0,0,1,1.32.689l-.143,6.039,4.9,3.54a.829.829,0,0,1-.249,1.468l-5.788,1.733Z" transform="translate(-829.475 -438.995)" fill="#f47458"/>
    <path id="Path_3319" data-name="Path 3319" d="M1782.758,253.614c.406-1.041.265-4.77,5.44-8.345,2.12-1.455,3.872-2.7,4.343-4.394.813-2.934-2.274-4.341-5.348-4.327a2.939,2.939,0,0,1-2.939-2.857h0a2.952,2.952,0,0,1,2.814-3.045,19.189,19.189,0,0,1,6.021.689c6.6,1.831,8.583,6.312,7.42,10.462-1.06,3.8-4.1,5.647-6.583,7.221a9.223,9.223,0,0,0-4.534,6.439Zm-3.214,6.527a4.644,4.644,0,1,1,3.188,5.785A4.5,4.5,0,0,1,1779.544,260.141Z" transform="translate(-1453.869 -228.898)" fill="#f7cc7f"/>
    <path id="Path_3320" data-name="Path 3320" d="M2406.754,541.044l2.457,4.078a.62.62,0,0,0,1.11-.093l1.744-4.428,4.638-1.076a.62.62,0,0,0,.265-1.084l-3.673-3.029.411-4.741a.62.62,0,0,0-.954-.578l-4.015,2.552-4.383-1.855a.62.62,0,0,0-.843.729l1.193,4.606-3.122,3.6a.623.623,0,0,0,.432,1.028Z" transform="translate(-1911.103 -448.933)" fill="#f79c8d"/>
    <path id="Path_3321" data-name="Path 3321" d="M1434,89.708l-5.369-3.813,1.489-6.575,1.747.4-1.224,5.409,5.549,3.943-2.857,7.057,6.265,3.381-2.852,6.233-2.141.376,2.666-5.83-6.2-3.347Z" transform="translate(-1050.063 -58.311)" fill="#f48c7f"/>
    <path id="Path_3322" data-name="Path 3322" d="M505.092,222l3.323,2.926,4.137-1.813,3.5,3.546,3.811-3.291,4.129,3.835,3.882-2.594,4.574,3.04-1.15,1.73-3.421-2.274-4.1,2.74-3.967-3.686-3.874,3.347-3.856-3.914-4.041,1.773-3.082-2.714-2.409,1.717-1.206-1.693Z" transform="translate(-368.505 -163.181)" fill="#f7cc7f"/>
    <path id="Path_3323" data-name="Path 3323" d="M2428.755,671.463a11.514,11.514,0,1,1-16.281.339A11.514,11.514,0,0,1,2428.755,671.463Z" transform="translate(-1916.865 -550.557)" fill="#fff3d9"/>
    <path id="Path_3324" data-name="Path 3324" d="M2437.767,690.367l-4.9,1.505-1.537,4.892a.5.5,0,0,1-.885.135L2427.5,692.7l-5.125.05a.5.5,0,0,1-.406-.795l3.08-4.1-1.63-4.857a.5.5,0,0,1,.636-.633l4.85,1.662,4.118-3.053a.5.5,0,0,1,.795.411l-.08,5.125,4.177,2.973a.5.5,0,0,1-.143.88Z" transform="translate(-1926.126 -559.833)" fill="#fed333"/>
    <path id="Path_3325" data-name="Path 3325" d="M1193.391,310.158a8.392,8.392,0,0,0,2.014,15.357,5.6,5.6,0,0,1,3.153,2.284l2.581,3.813a2.433,2.433,0,0,0,3.215.753l2.446-1.386a2.433,2.433,0,0,0,1.007-3.146c-1.953-4.2-2.979-5.6-2.279-8.053A8.4,8.4,0,0,0,1193.391,310.158Z" transform="translate(-1020.116 -286.549)" fill="#f7cc7f"/>
    <path id="Path_3326" data-name="Path 3326" d="M1211.855,340.486c-1.81-3.548-3.877-7.234-4.5-8.265-3.858,1.664-3.888-3.037-1.45-2.017a3.561,3.561,0,0,1,1.59,1.508,10.842,10.842,0,0,0,3.35-2.472,5.143,5.143,0,0,1-.7-2.231c.058-1.026,1.092-1.68,1.855-.986a1.481,1.481,0,0,1,.474,1.06,3.746,3.746,0,0,1-1.166,2.237c1.29,2.875,2.671,5.743,4.107,8.536l-.355.183c-1.415-2.748-2.772-5.565-4.047-8.4a11.267,11.267,0,0,1-3.315,2.419c.8,1.325,2.79,4.921,4.492,8.249Zm-6.691-8.453a2.35,2.35,0,0,0,1.977-.154,3.246,3.246,0,0,0-1.381-1.3c-1.325-.551-1.412,1.041-.591,1.457Zm5.39-5a4.422,4.422,0,0,0,.6,1.879,3.169,3.169,0,0,0,.946-1.834c0-.466-.384-.986-.843-.938-.042.005-.671.493-.694.893Z" transform="translate(-1031.161 -298.801)" fill="#fff"/>
    <path id="Path_3327" data-name="Path 3327" d="M1224.19,367.893c.021.032.045.061.069.093l2.581,3.813a2.433,2.433,0,0,0,3.214.753l2.446-1.386a2.433,2.433,0,0,0,1.007-3.146c-.869-1.855-1.553-3.18-1.985-4.28Z" transform="translate(-1045.83 -326.735)" fill="#96d9c9"/>
    <path id="Path_3328" data-name="Path 3328" d="M1171.071,296.232l-3.445-2.995a.8.8,0,1,1,1.06-1.2l3.432,2.994a.8.8,0,1,1-1.06,1.2Z" transform="translate(-1004.056 -273.885)" fill="#fae0b2"/>
    <path id="Path_3329" data-name="Path 3329" d="M1161.384,344.542l-4.621,1.256a.8.8,0,1,1-.419-1.542l4.622-1.253a.8.8,0,0,1,.419,1.54Z" transform="translate(-995.53 -311.472)" fill="#fae0b2"/>
    <path id="Path_3330" data-name="Path 3330" d="M1178.034,391.208a.795.795,0,0,1-.384-1.06,26.283,26.283,0,0,1,2.52-4.259.8.8,0,0,1,1.291.941,24.343,24.343,0,0,0-2.364,4,.8.8,0,0,1-1.063.382Z" transform="translate(-1011.567 -342.774)" fill="#fae0b2"/>
    <path id="Path_3331" data-name="Path 3331" d="M1216.985,270.366a.8.8,0,0,1-.869-.723,30.441,30.441,0,0,0-1.214-6.159.8.8,0,1,1,1.526-.469,31.965,31.965,0,0,1,1.277,6.482.8.8,0,0,1-.721.869Z" transform="translate(-1038.977 -252.288)" fill="#fae0b2"/>
    <path id="Path_3332" data-name="Path 3332" d="M1247.8,295.457a.795.795,0,0,1,.156-1.118l4.142-3.114a.8.8,0,1,1,.959,1.275l-4.139,3.116a.795.795,0,0,1-1.118-.159Z" transform="translate(-1063.064 -273.319)" fill="#fae0b2"/>
    <path id="Path_3333" data-name="Path 3333" d="M1276.941,339.048a.744.744,0,0,1-.215.048,24.909,24.909,0,0,1-5.35-.156.8.8,0,1,1,.217-1.59,23.275,23.275,0,0,0,5.008.146.8.8,0,0,1,.339,1.545Z" transform="translate(-1080.002 -307.333)" fill="#fae0b2"/>
    <path id="Path_3334" data-name="Path 3334" d="M2150.648,336.13l-2.046,3.779a86.836,86.836,0,0,1-19.266,23.974l-.866.758s1.672,7.629,9.349,6.291h0a130.324,130.324,0,0,1,20.948-24.7l3-2.446Z" transform="translate(-1710.477 -306.442)" fill="#466eb6"/>
    <path id="Path_3335" data-name="Path 3335" d="M2223.181,343.383c-.453.546-3.3-.723-6.36-2.841s-5.2-4.277-4.749-4.826,3.334.726,6.395,2.843S2223.634,342.829,2223.181,343.383Z" transform="translate(-1771.88 -306.045)" fill="#86b1f2"/>
    <path id="Path_3336" data-name="Path 3336" d="M2228.647,348.095h0s-7.054-3.943-8.337-6.095l-.84,1.06a30.869,30.869,0,0,0,2.82,2.181C2225.324,347.34,2228.141,348.606,2228.647,348.095Z" transform="translate(-1777.362 -310.756)" fill="#355389"/>
    <path id="Path_3337" data-name="Path 3337" d="M2178.7,400.541c-.9.3-4.895,1.243-8.427-4.131-.453.575-.917,1.145-1.386,1.712,2.417,3.342,5.067,4.343,6.914,4.579.292.037.678.072.972.082C2177.4,402.02,2178.051,401.27,2178.7,400.541Z" transform="translate(-1740.186 -350.748)" fill="#b75742"/>
    <path id="Path_3338" data-name="Path 3338" d="M1609.854,148.513l-2.465-8.793-1.253,2.676-2.846-.437,4.956,7.476Z" transform="translate(-1178.439 -102.705)" fill="#b75742"/>
    <path id="Path_3339" data-name="Path 3339" d="M1601.521,175.319l-6.9-1.179,1.609,1.879-1.6,1.439,6.675-.554Z" transform="translate(-1172.066 -128.003)" fill="#b75742"/>
    <path id="Path_3340" data-name="Path 3340" d="M2166.569,397.5a3.071,3.071,0,0,1,1.953-3.9,3.172,3.172,0,0,1,4.166,1.481,3.072,3.072,0,0,1-1.953,3.9A3.169,3.169,0,0,1,2166.569,397.5Z" transform="translate(-1738.336 -348.489)" fill="#f47458"/>
    <path id="Path_3341" data-name="Path 3341" d="M2076.889,779.345a14.477,14.477,0,0,0-18.6,3.654,15.04,15.04,0,0,0-11.729,1.3c-6.84,3.975-11.027,15.039-5.467,21.041,1.36,6.185,2.414,12.561,8.565,12.63,3.641,6.673,16.388,7.113,22.92.843,5.713,1.8,11.816-1.479,15.775-6.021.933-1.06,1.723-2.759,2.08-2.984,0,0,14.723-2.729,13.366-16.992C2102.382,777.9,2086.856,767.608,2076.889,779.345Z" transform="translate(-1644.364 -628.467)" fill="#f47458"/>
    <path id="Path_3342" data-name="Path 3342" d="M1948.031,1467.41a83.6,83.6,0,0,0,1.752,12.95c.087.331,1.145,1.638,1.243,1.977-1.59,7.611-6.832,11.557-11.636,14.233,1.431-3.755,4.1-7.926,3.933-8.824a115.035,115.035,0,0,0-3.872-16.295C1943.169,1471.507,1944.759,1469.35,1948.031,1467.41Z" transform="translate(-1571.503 -1137.934)" fill="#f7a491"/>
    <path id="Path_3343" data-name="Path 3343" d="M1936.062,1117.23l22.917,18.5s-11.517,11.4-15.839,15.635-26.065,19.493-26.447,20.466a35.281,35.281,0,0,1,1.431,5.411c.967,7.82,2.213,29.81,2.552,42.853-2.459,2.584-6.741,4.365-9.929,5.178-7.865-16.014-11.925-54.714-11.906-58.411C1898.882,1160.833,1936.062,1117.23,1936.062,1117.23Z" transform="translate(-1541.698 -880.551)" fill="#b75742"/>
    <path id="Path_3344" data-name="Path 3344" d="M2243.641,1239.931c-.9.575-7.934,9.37-10.942,14.257-2.335-2.43-3.519-4.953-6.3-6.871,3.18-3.063,9.749-10.69,10.581-12.678,1.98-4.714,3.207-5.189,3.207-5.189s14.6,9.312,15.314,11.13S2247.247,1237.625,2243.641,1239.931Z" transform="translate(-1782.455 -963.033)" fill="#f7a491"/>
    <path id="Path_3345" data-name="Path 3345" d="M2263.841,1228.818c-1.23-.283,1.357-5.764,1.927-7.033.641-1.426,1.571-1.68,1.789-1.685.594-.013,16.817,10.335,19.3,13.266a3.774,3.774,0,0,1,.458.883c.941,3.553-13.674.745-15.458-1.132C2270.268,1231.468,2269.361,1230.112,2263.841,1228.818Z" transform="translate(-1809.734 -956.161)" fill="#184655"/>
    <path id="Path_3346" data-name="Path 3346" d="M2020.54,1114.364l20.206-8.334c-.079.037.114.856.13.92,1.826,7.7,5.963,4.153,10.009,17.532,2.859,9.453,1.826,43.423,1.826,43.423s17.49-10.8,27.382-18.142c.9-.67,6.418,8.135,6.418,8.135-13.441,22.591-41.075,33.35-43.725,32.312-9.01-3.546-16.721-64.713-16.695-64.708C2024.345,1121.88,2020.54,1114.364,2020.54,1114.364Z" transform="translate(-1631.148 -872.319)" fill="#b75742"/>
    <path id="Path_3347" data-name="Path 3347" d="M2143.88,882.431s24.775-4.993,30.289-5.764,24.743-6.969,25.482-7.234,3.731-10.311,4.77-9.54-1.786,5.035-.458,5.69,12.938-4.129,12.985-3.161c.1,1.815-6.993,3.2-6.792,4.044s7.259-2.16,8.077-.875-6.948,2.189-7.11,2.883,7.436.156,6.983,1.63c-.246.795-6.768.307-6.519,1.261s5.194,2.12,4.825,3.021-4.025-1.556-6.612-1-4.754-.432-8.6,1.688-16.52,11.241-25.4,12.815-28.49,5.107-28.49,5.107Z" transform="translate(-1721.803 -691.377)" fill="#f7a491"/>
    <path id="Path_3348" data-name="Path 3348" d="M1927.359,691.513c-1.537-5.215-2.78-9.747-2.865-10.107-.183-.763,6.575-8.774,5.358-9.235s-3.244,4.264-4.505,3.5-3.644-13.08-4.484-12.593c-1.572.912,1.158,7.6.344,7.894s-2.178-7.253-3.71-7.234,1.98,7.015,1.489,7.526-4.211-6.129-5.194-4.942c-.53.644,3.445,5.83,2.52,6.143s-4.629-3.18-5.173-2.385,3.509,2.512,4.468,4.977,2.968,3.739,3.3,8.117c.135,1.76.109,5.334.265,9.516A40.5,40.5,0,0,0,1927.359,691.513Z" transform="translate(-1550.703 -546.741)" fill="#f7a491"/>
    <path id="Path_3349" data-name="Path 3349" d="M1944.343,1516.48c.609-1.15,4.794,3.328,5.8,4.256a2.615,2.615,0,0,1,1.041,2.268c-.151.583-13.867,14.262-17.59,15.9a1.931,1.931,0,0,1-1.232-.04c-1.831-1.031,2.828-13.1,5.655-15.227C1939.843,1522.281,1941.6,1521.658,1944.343,1516.48Z" transform="translate(-1566.031 -1173.862)" fill="#184655"/>
    <path id="Path_3350" data-name="Path 3350" d="M1889.9,750.445c.769,6.291,1.534,12.582,2.385,18.86,1,7.364,4.457,14.114,8,20.54.959,1.738,9.294,13.642,8.414,15.259,0,0-2.629,4.834-1.956,8.416,4.388,23.32-4.174,41.838-16.814,60.714a78.091,78.091,0,0,0-9.01,16.777c-2.12,5.933-2.043,11.734-2.541,17.871-.7,8.711-1.325,17.429-2,26.145,0,0,19.316,7.256,28.954-.13s24.3,1.707,32.237,3.114,27.369-9.1,31.145-19.189c3.729-9.956.927-31.781.856-32.33.13,1-16.695,6.3-18.452,3.061-1.174-2.157.694-9.206.71-11.816a101.163,101.163,0,0,0-.814-13.465c-1.187-9.291-4.661-17.71-6.755-26.656-1.4-5.973-4.9-14.246-3.119-20.405.981-3.392,27.777-7.155,40.4-10.444a65.6,65.6,0,0,0,22.212-11.077l-4.457-10.637s-19.143,6.381-29,7.47-31.323,7.5-45.084,3.445-20.847-30.085-20.847-30.085l-4.161-19.244Z" transform="translate(-1525.19 -608.167)" fill="#355389"/>
    <path id="Path_3351" data-name="Path 3351" d="M2062.423,895.19s-1.325,6.89-1.1,9.62-1.06,11.49-6.585,11.472-.954-11.164-.414-13.83a106.97,106.97,0,0,0,.734-10.921Z" transform="translate(-1654.296 -714.661)" fill="#f7a491"/>
    <path id="Path_3352" data-name="Path 3352" d="M2060.8,952.711a7.037,7.037,0,0,1-3.935.61,5.065,5.065,0,0,1-3.808-3.36c-1.132,4.131-2.022,9.256,1.717,9.275C2058.17,959.246,2059.969,955.907,2060.8,952.711Z" transform="translate(-1654.327 -757.607)" fill="#fff"/>
    <path id="Path_3353" data-name="Path 3353" d="M2062.88,895.672c.106-2.258.148-4.142.148-4.142l7.367,3.66s-.265,1.41-.551,3.206A6.331,6.331,0,0,1,2062.88,895.672Z" transform="translate(-1662.268 -714.661)" fill="#f47458"/>
    <path id="Path_3354" data-name="Path 3354" d="M2065.608,830.921a9.47,9.47,0,0,1,3.848,5.266c1.012,3.588-.252,12.821-7.632,14.988s-10.507-5.175-8.944-10.884S2057.812,827.367,2065.608,830.921Z" transform="translate(-1654.63 -669.42)" fill="#f7a491"/>
    <path id="Path_3355" data-name="Path 3355" d="M2050.55,852.406c.133,1.537.933,2.716,1.791,2.65s1.444-1.394,1.312-2.931-.93-2.719-1.789-2.637S2050.42,850.867,2050.55,852.406Z" transform="translate(-1653.192 -683.758)" fill="#f7a491"/>
    <path id="Path_3356" data-name="Path 3356" d="M2098.79,831.75s1.251,10.319,4.423,12.206,1.8,6.447,1.8,6.447,2.981-10.6.488-14.024A14.009,14.009,0,0,0,2098.79,831.75Z" transform="translate(-1688.662 -670.723)" fill="#f47458"/>
    <path id="Path_3357" data-name="Path 3357" d="M2106.469,879.037c-.877,1.325-.885,2.915-.024,3.538s2.276.037,3.151-1.3.885-2.915.021-3.538S2107.346,877.7,2106.469,879.037Z" transform="translate(-1693.818 -704.342)" fill="#f7a491"/>
    <path id="Path_3358" data-name="Path 3358" d="M1119.9,731.347s-5.112-6.964-4.195-8.936-.265-5.387-.265-5.387l-3.8-2.364-7.489,7.184v.164s4.592,6.538,5.337,6.7c.3.064.753.17,1.2.265l4.887,6.657Z" transform="translate(-957.601 -584.662)" fill="#f79c8d"/>
    <path id="Path_3359" data-name="Path 3359" d="M1293.527,590.792l-16.764,17.161c-.644.657-.583,1.4.135,1.656l20.328,7.216a2.6,2.6,0,0,0,2.467-.731l16.769-17.159c.647-.66.586-1.4-.135-1.656L1296,590.06A2.63,2.63,0,0,0,1293.527,590.792Z" transform="translate(-1084.144 -493.017)" fill="#355389"/>
    <path id="Path_3360" data-name="Path 3360" d="M1443.8,605.644l-12.665-21.995a1.72,1.72,0,0,1,.625-2.345l22.363-12.943a1.707,1.707,0,0,1,2.337.628l12.664,21.995a1.72,1.72,0,0,1-.625,2.343l-22.366,12.948A1.709,1.709,0,0,1,1443.8,605.644Z" transform="translate(-1197.764 -476.962)" fill="#355389"/>
    <path id="Path_3361" data-name="Path 3361" d="M1465.891,627.446s-1.616-6.89-.628-10.515a13.462,13.462,0,0,1,3.18-6.037,15.387,15.387,0,0,1,7.354-3.358c6.174-.93,14.946,3.617,15.063,11.058l-2.772,2.965Z" transform="translate(-1222.783 -505.838)" fill="#13375b"/>
    <path id="Path_3362" data-name="Path 3362" d="M1233.771,639.828c-2.563,3.146-21.677,5.1-27.337,7.643-13.634,6.122-6.031,29.558,2.828,31,3,.485,10.751-1.757,12.261-.906a14.657,14.657,0,0,0,16.4-.811c5.973-4.19,3.008-7.611,4.942-11.1s6.275.771,8.618-6.752c2.536-8.138,2.6-16.782.292-21.465-3.811-7.754-10.285-8.48-13.78-6.967C1236.959,630.919,1234.33,639.155,1233.771,639.828Z" transform="translate(-1027.306 -522.317)" fill="#b75742"/>
    <path id="Path_3363" data-name="Path 3363" d="M818.757,515.011l-9.985.22-15.065-1.081-10.812-.75-3.265,8.729,32.507,15.139Z" transform="translate(-573.048 -377.36)" fill="#13375b"/>
    <path id="Path_3364" data-name="Path 3364" d="M1559.48,768.836s1.643-2.56.506-4.076a2.091,2.091,0,0,1,.9,1.781A4.029,4.029,0,0,1,1559.48,768.836Z" transform="translate(-1292.269 -621.485)" fill="#f47458"/>
    <path id="Path_3365" data-name="Path 3365" d="M1356.559,762.8l28.62,11.252,14.072,4.828-3.024-16.364c-21.351-1.177-30.152-13.78-34.892-14.472C1355.449,747.174,1356.559,762.8,1356.559,762.8Z" transform="translate(-1143.06 -609.173)" fill="#355389"/>
    <path id="Path_3366" data-name="Path 3366" d="M1100.946,1296.47a71.27,71.27,0,0,1-8.536,8.922c-.265.2-1.855.551-2.12.755-2.836,6.89-.607,13.213,1.942,18.285.856-3.8,1.7-9.01,2.337-9.614a76.49,76.49,0,0,1,11.326-9.858C1102.756,1302.676,1102.618,1300.016,1100.946,1296.47Z" transform="translate(-946.441 -1012.293)" fill="#f7a491"/>
    <path id="Path_3367" data-name="Path 3367" d="M1081.027,1330.509c-2.467-.109-7.25.983-7.269,1.489-.024.607.647,21.846,3.673,24.033,1.821,1.325,2.48-1.911,3.628-6.588C1078.51,1344.374,1079.453,1331,1081.027,1330.509Z" transform="translate(-935.262 -1037.306)" fill="#f47458"/>
    <path id="Path_3368" data-name="Path 3368" d="M1305.432,1345.652c-.384,5.072-1.367,16.366-1.59,17.434a5.125,5.125,0,0,0,.392,1.831c6.161,3.331,12.418,1.659,17.519-.432-3.487-1.145-8.114-2.618-8.808-3.063a4.133,4.133,0,0,1-1.349-3.837c.419-4.15,1.8-8.438.867-13.035C1309.919,1347.438,1308.983,1344.3,1305.432,1345.652Z" transform="translate(-1104.367 -1047.631)" fill="#f7a491"/>
    <path id="Path_3369" data-name="Path 3369" d="M1302.966,1414.13c-.4,2.411-.477,7.783,0,7.844.572.072,20.961-.106,23.688-2.26,1.736-1.373-1.508-2.584-5.79-4.086C1315.763,1417.718,1303.241,1415.715,1302.966,1414.13Z" transform="translate(-1103.489 -1098.773)" fill="#f47458"/>
    <path id="Path_3370" data-name="Path 3370" d="M1290.142,729.746s-10.807-5.864-22.2-.935c-.716.31-2.886,3.18-2.883,4.3,0,1.367,2.226,5,2.226,5l20.164-.973Z" transform="translate(-1075.87 -593.613)" fill="#13375b"/>
    <path id="Path_3371" data-name="Path 3371" d="M1728.737,481.135l1.214.032a1.137,1.137,0,0,0,1.166-1.108l.631-25.3a1.137,1.137,0,0,0-1.108-1.166l-1.214-.029a1.137,1.137,0,0,0-1.166,1.108l-.631,25.3a1.134,1.134,0,0,0,1.108,1.163Z" transform="translate(-1415.858 -392.752)" fill="#13375b"/>
    <path id="Path_3372" data-name="Path 3372" d="M1727.823,509.866c-.05-2.287,2.152-15.015,2.035-15.9s-3.18-7.184-3.445-7.783-1.41-1.251-1.929-.342c-.286.5.435,2.25,1.145,3.739-.724-1.222-2.571-3.509-3.353-3.4-1.51.2.178,4.256,1.325,5.875s-1.2,8.281-1.2,8.281-1.466,1.179-1.924.077.713-4.24-.7-3.381-2.671,4.9-1.969,5.925c.668.978,3.342,7.42,3.591,8.006h0l-2.056,6.312a79.588,79.588,0,0,0,7.82,3.206C1727.688,514.819,1727.823,509.866,1727.823,509.866Z" transform="translate(-1408.489 -416.149)" fill="#f7a491"/>
    <path id="Path_3373" data-name="Path 3373" d="M1403.161,1332.3s-4.81,5.979-6.01,6.715.53,9.423,3.8,9.993c1.839.321,2.862-1.709,2.862-1.709l-.53-2.5,6.871-7.1Z" transform="translate(-1172.677 -1038.628)" fill="#f7a491"/>
    <path id="Path_3374" data-name="Path 3374" d="M1491.859,1333.07s-4.009,6.548-5.1,7.42,1.73,9.275,5.035,9.426c1.855.082,2.621-2.062,2.621-2.062l-.843-2.414,5.912-7.924Z" transform="translate(-1238.64 -1039.194)" fill="#f7a491"/>
    <path id="Path_3375" data-name="Path 3375" d="M1466.978,1360.14a50.713,50.713,0,0,0,3.559,4.115,42.394,42.394,0,0,0,3.71,2.992s2.35,4.282,2.995,5.777c1.431,3.323,3.04,7.03,2.806,8.893-.074.6-1.412,1.23-2.528.885-4.646-1.434-16.526-12.328-18.02-15.253C1457.754,1364.176,1466.978,1360.14,1466.978,1360.14Z" transform="translate(-1218.622 -1059.09)" fill="#07345a"/>
    <path id="Path_3376" data-name="Path 3376" d="M1528.443,974.464c-.432-1.211-.845-2.329-1.245-3.384-4.942,1.081-10.523,2.271-16.266,3.5l-.7,21.1c0-1.63,4.317,33.655,4.317,33.655s-10.15,24.52-17.779,38.955c3.13,3.919,3.959,4.476,8.48,7.155,11.845-14.238,26.982-39.337,27.626-43.669C1533.258,1029.276,1533.592,989,1528.443,974.464Z" transform="translate(-1246.177 -773.131)" fill="#b75742"/>
    <path id="Path_3377" data-name="Path 3377" d="M1416.516,1004.649c1.51,16.43,4.868,47.88,4.587,50.408-.843,3.151-15.166,32.24-17.853,36.474,2.136,3.223,5.279,6.257,8.83,7.219.7.191,24.894-34.521,26.235-37.314,1.521-3.154,4.049-20.365,4.094-41.674l.7-21.1C1433.547,1000.706,1424.75,1002.725,1416.516,1004.649Z" transform="translate(-1177.44 -793.402)" fill="#f47458"/>
    <path id="Path_3378" data-name="Path 3378" d="M1551.333,645.409s26.031-13.051,28.464-15.971c1.656-1.987,14.252-38.976,14.252-38.976.212-2.443-10.022-3.347-10.335-2.862-1.2,1.855-14.212,31.3-14.212,31.3l-29.654,8.525-6.938,2.059Z" transform="translate(-1272.74 -491.18)" fill="#13375b"/>
    <path id="Path_3379" data-name="Path 3379" d="M1375.68,1356.79a50.906,50.906,0,0,0,3.005,4.54,42.613,42.613,0,0,0,3.286,3.445s1.789,4.547,2.237,6.111c1,3.482,2.12,7.685,1.654,9.5-.151.583-1.428,1.7-2.486,1.007-4.073-2.65-14.957-15.1-16.072-18.211C1366.018,1359.61,1375.68,1356.79,1375.68,1356.79Z" transform="translate(-1150.932 -1056.628)" fill="#07345a"/>
    <path id="Path_3380" data-name="Path 3380" d="M1301.244,955.75l7.033.066s-1.874,12.876-1.855,17.114,5.849,39.522,5.443,44.1-11.959,52.7-11.959,52.7l-9.514-.265s1.561-30.91,3.252-37.018,3.045-11.66,3.045-11.66l-10.4-36.649Z" transform="translate(-1091.474 -761.863)" fill="#3c8f7c"/>
    <path id="Path_3381" data-name="Path 3381" d="M1186.595,934.855s-11.867,64.411-15.028,66.732-45.524,36.2-45.524,36.2l-5.212-8.045s18.02-35.041,33.92-36.286c0,0-1-42.135,1.932-48.932s12.553-15.579,12.553-15.579l17.36,3.132Z" transform="translate(-969.861 -742.158)" fill="#50bfa5"/>
    <path id="Path_3382" data-name="Path 3382" d="M1069.917,267.76l.22,4.643-7.409,1.179-.514,6.829-5.4,1.791.906,2.743,7.224-2.4.488-6.469,7.709-1.227-.331-6.988Z" transform="translate(-776.776 -196.814)" fill="#fae0b2"/>
    <path id="Path_3383" data-name="Path 3383" d="M1077.008,196.369l-4.611.469-1.574-7.356-6.826-.148-2.075-5.313-2.682,1.055,2.775,7.1,6.469.14,1.638,7.653,6.938-.708Z" transform="translate(-778.562 -135.265)" fill="#fae0b2"/>
    <path id="Path_3384" data-name="Path 3384" d="M1400.42,736.35c-3.212,25.315-3.066,47.824-4.2,73.309-.53,11.978-.345,29.985-3.283,41.56-1.667,6.559-8.2,12.59-12.744,17.434,0,0,5.954,2.788,6.331,2.915a47.219,47.219,0,0,0,18.02,2.584c8.08-.379,15.916-2.239,24.075-2.671,9.05-.477,16.713,4.622,25.517,2.533,2.756-.655,9.275-24.247,5.3-47.005-6.14-35.266-21.849-79.169-21.849-79.169L1432.231,733Z" transform="translate(-1160.49 -598.142)" fill="#13375b"/>
    <path id="Path_3385" data-name="Path 3385" d="M1469.246,615.53s-4.357-3.67-6.919,1.691a3.118,3.118,0,0,0-3.975,1.529s-4.505-.816-4.82,5.83c0,0-2.29-.167-2.281,2.539a6.656,6.656,0,0,0,1.561,4.333s-1.15,1.089-.3,3.479a3.047,3.047,0,0,0,2.483,2.154s.864,3.469,2.507,4.354a4.988,4.988,0,0,0,3.657.141,2.351,2.351,0,0,0,2.523,1.473c1.757-.382,3.763-2.319,5.83-1.781s7.142-.859,7.142-.859,5.5-3.249,3.093-8.986a4.365,4.365,0,0,0-.307-6.095s1.359-5.4-2.836-8.011S1469.246,615.53,1469.246,615.53Z" transform="translate(-1212.719 -510.9)" fill="#f7cc7f"/>
    <path id="Path_3386" data-name="Path 3386" d="M1503.988,704.145l1.3,5.16s1.993,8.7-1.4,8.864c-2.512.125-8.785-9.5-8.785-9.5l.265-11.9Z" transform="translate(-1244.949 -571.513)" fill="#f7a491"/>
    <path id="Path_3387" data-name="Path 3387" d="M1496.375,701.09a15.1,15.1,0,0,0,9.455,7.42l-1.1-4.375-8.62-7.375Z" transform="translate(-1245.692 -571.505)" fill="#f47458"/>
    <path id="Path_3388" data-name="Path 3388" d="M1451.4,656.371c.228,2.022,1.561,3.53,2.976,3.368s2.385-1.932,2.146-3.954-1.563-3.53-2.979-3.368S1451.165,654.349,1451.4,656.371Z" transform="translate(-1212.801 -538.905)" fill="#f7cc7f"/>
    <path id="Path_3389" data-name="Path 3389" d="M1477.085,627.456c.132,1.163,1.635,1.945,3.355,1.749s3.01-1.3,2.878-2.459-1.632-1.945-3.355-1.749S1476.955,626.3,1477.085,627.456Z" transform="translate(-1231.702 -518.737)" fill="#f7cc7f"/>
    <path id="Path_3390" data-name="Path 3390" d="M1492.164,640.259a7.025,7.025,0,0,1,9.773,4.537,53.386,53.386,0,0,1,1.325,6.659c.8,6.1-1.677,12.423-4.449,12.739s-10.865-2.772-12.142-11.427C1485.894,647.422,1488.012,642.244,1492.164,640.259Z" transform="translate(-1238.637 -529.487)" fill="#f7a491"/>
    <path id="Path_3391" data-name="Path 3391" d="M1484.014,684.818a2.048,2.048,0,1,1-2.271-2.218A2.269,2.269,0,0,1,1484.014,684.818Z" transform="translate(-1233.858 -561.089)" fill="#f7a491"/>
    <path id="Path_3392" data-name="Path 3392" d="M1527.65,621.711c3.119,1.948,4.505,5.3,3.114,7.462s-5.061,2.356-8.183.408-4.505-5.287-3.116-7.46S1524.528,619.763,1527.65,621.711Z" transform="translate(-1262.461 -515.354)" fill="#f7cc7f"/>
    <path id="Path_3393" data-name="Path 3393" d="M1509.633,631.516c.111.988-.986,1.924-2.454,2.093s-2.748-.5-2.862-1.487.988-1.927,2.457-2.093S1509.528,630.533,1509.633,631.516Z" transform="translate(-1251.718 -522.439)" fill="#f7cc7f"/>
    <path id="Path_3394" data-name="Path 3394" d="M1544.86,655.3a2.284,2.284,0,1,1-2.531-2.041A2.284,2.284,0,0,1,1544.86,655.3Z" transform="translate(-1278.173 -539.526)" fill="#f7cc7f"/>
    <path id="Path_3395" data-name="Path 3395" d="M1504.73,754.247c2.032,2.714,4.77,5.947,6.233,5.875,2.168-.106,2.138-3.694,1.834-6.273C1511.161,756.307,1507.229,755.254,1504.73,754.247Z" transform="translate(-1252.027 -613.466)" fill="#fff"/>
    <path id="Path_3396" data-name="Path 3396" d="M1465.428,559.169a10.673,10.673,0,0,1-2.957-.419,6.791,6.791,0,0,1-4.349-3.18,7.03,7.03,0,0,1-.485-5.019.4.4,0,0,1,.771.238,6.42,6.42,0,0,0,.427,4.4,5.981,5.981,0,0,0,3.858,2.78c6.055,1.738,11.011-3.071,11.061-3.119a.4.4,0,0,1,.565.575A13.826,13.826,0,0,1,1465.428,559.169Z" transform="translate(-1217.225 -463.832)" fill="#f7cc7f"/>
    <path id="Path_3397" data-name="Path 3397" d="M1459.116,520.5l-.954,2.687a1.632,1.632,0,0,0-1.489.567,1.541,1.541,0,0,0,0,2.149,1.512,1.512,0,0,0,2.12-.265,1.664,1.664,0,0,0,.39-1.484l2.573-1.325,4.261-2.181-5.3-4.653Z" transform="translate(-1216.385 -438.647)" fill="#f7cc7f"/>
    <path id="Path_3398" data-name="Path 3398" d="M1304.044,598.54a10.683,10.683,0,0,1-2.229,2,6.777,6.777,0,0,1-5.228,1.277,7.059,7.059,0,0,1-4.134-2.873.405.405,0,0,1,.122-.559.4.4,0,0,1,.557.122,6.3,6.3,0,0,0,3.628,2.517,6.009,6.009,0,0,0,4.608-1.158c5.234-3.514,4.77-10.412,4.77-10.483a.4.4,0,1,1,.8-.061A13.843,13.843,0,0,1,1304.044,598.54Z" transform="translate(-1095.957 -492.22)" fill="#f7cc7f"/>
    <path id="Path_3399" data-name="Path 3399" d="M1277.656,593.887l1.431,2.465a1.648,1.648,0,0,0-.53,1.508,1.434,1.434,0,1,0,2.817-.421,1.667,1.667,0,0,0-.877-1.256l.657-2.82,1.092-4.672-7,1.047Z" transform="translate(-1083.359 -492.074)" fill="#f7cc7f"/>
    <path id="Path_3400" data-name="Path 3400" d="M1121.537,742.051l-8.387,6.834s17.98,25.845,21.075,25.564,21.566-16.25,21.582-16.263c-.676.586-.562,5.115-.689,6-2.385,16.766-3.8,17.031-12.288,36.665-7.083,16.385-.835,31.167-12.076,46.64-5.589,7.685-14.575,12.72-22.414,17.8,0,0,9.566,14.67,23.635,14.67s21.383-1.126,30.107,2.822,22.626,1.256,27.128-1.285c3.548-2,6.262-5.83,9.694-8.024-4.8-14.882-7.452-28.967-10.939-44.21-3.249-14.215-8.7-29.847-4.137-44.191,4.333-13.621,9.612-31.686-.829-44.4,0,0-5.152-2.817-16.759-4.72s-30.6,21.158-30.6,21.158Z" transform="translate(-960.681 -600.228)" fill="#466eb6"/>
    <path id="Path_3401" data-name="Path 3401" d="M1269.021,748.922c.249-.228-.461-1.325-.578-1.908.875,1.874,1.707,4.06,2.25,3.6.233-.2-.352-2.984-.371-3.479.392.9.93,3.326,1.807,2.9.53-.265-.021-3.09-.379-4.709.294.978,1.116,4.1,1.418,3.84.657-.554-.795-7.507,0-8.583.321-.419-.66-1.245-1.953-1.651a4.266,4.266,0,0,0-2.457-.09,7.1,7.1,0,0,0-2.793,1.169,3.027,3.027,0,0,0-1,.975,3.8,3.8,0,0,0-.122,3.816C1265.781,746.555,1268.324,749.56,1269.021,748.922Z" transform="translate(-1075.379 -602.329)" fill="#f8a492"/>
    <path id="Path_3402" data-name="Path 3402" d="M1282.683,741.573a8.288,8.288,0,0,0-.721-1.855c-.4-.633-4.59-2.133-6.771-.758s4.82,2.239,4.82,2.239a3.958,3.958,0,0,1,1.325,1.11c.421.655-.069,2.011.564,2.276S1283.07,743.038,1282.683,741.573Z" transform="translate(-1083.007 -602.109)" fill="#f8a492"/>
    <path id="Path_3403" data-name="Path 3403" d="M1549.644,736.64c-.249-.228.461-1.325.578-1.911-.875,1.874-1.707,4.062-2.25,3.6-.233-.2.352-2.981.371-3.477-.392.9-.93,3.326-1.807,2.9-.53-.265.021-3.09.379-4.712-.294.978-1.116,4.1-1.42,3.843-.654-.554.8-7.508,0-8.583-.32-.421.66-1.245,1.953-1.651a4.288,4.288,0,0,1,2.456-.093,7.056,7.056,0,0,1,2.793,1.171,3.026,3.026,0,0,1,1,.975,3.8,3.8,0,0,1,.122,3.816C1552.885,734.284,1550.341,737.289,1549.644,736.64Z" transform="translate(-1281.861 -593.302)" fill="#f8a492"/>
    <path id="Path_3404" data-name="Path 3404" d="M1538.508,729.331a8.241,8.241,0,0,1,.721-1.855c.4-.636,4.59-2.133,6.771-.758s-4.82,2.239-4.82,2.239a3.958,3.958,0,0,0-1.325,1.11c-.421.652.069,2.009-.565,2.274S1538.121,730.794,1538.508,729.331Z" transform="translate(-1276.758 -593.111)" fill="#f8a492"/>
    <path id="Path_3405" data-name="Path 3405" d="M1346,708.069s-.853,6.938-1.913,9.423.845,12.034,6.095,13.886.978-11.04,1.285-13.732a105.617,105.617,0,0,1,2.65-10.526Z" transform="translate(-1133.748 -579.12)" fill="#f7a491"/>
    <path id="Path_3406" data-name="Path 3406" d="M1350.448,769.561c4.015,1.418,2.464-5.782,1.646-10.457l-.016.045c-1.757,4.812-5.366,2.478-7.918-.079C1344.605,762.875,1346.653,768.226,1350.448,769.561Z" transform="translate(-1134.008 -617.303)" fill="#fff"/>
    <path id="Path_3407" data-name="Path 3407" d="M1357.805,711.048c.6-2.16,1.134-3.948,1.134-3.948l-8.135.949s-.175,1.42-.464,3.2A6.278,6.278,0,0,0,1357.805,711.048Z" transform="translate(-1138.551 -579.105)" fill="#f47458"/>
    <path id="Path_3408" data-name="Path 3408" d="M1395.612,673.157c-.6,1.4-1.725,2.242-2.515,1.876s-.946-1.8-.347-3.2,1.725-2.242,2.515-1.876S1396.211,671.757,1395.612,673.157Z" transform="translate(-1169.454 -551.739)" fill="#f7a491"/>
    <path id="Path_3409" data-name="Path 3409" d="M1344.154,639.35a9.08,9.08,0,0,0-5.279,3.652c-2.07,3.034-3.71,12.15,2.65,16.695s11.594-1.309,11.864-7.211S1352.677,638.65,1344.154,639.35Z" transform="translate(-1128.766 -529.277)" fill="#f7a491"/>
    <path id="Path_3410" data-name="Path 3410" d="M1332.052,677.714c.421,1.556-.056,3.05-1.06,3.339s-2.176-.737-2.6-2.292.055-3.047,1.06-3.336S1331.622,676.161,1332.052,677.714Z" transform="translate(-1122.308 -555.788)" fill="#f7a491"/>
    <path id="Path_3411" data-name="Path 3411" d="M1324.765,636.157s13.894-5.6,18.394-2.78c0,0-1.548-7.052-1.548-7.06-.694-3.161-7.783-1.712-9.858-1.394-2.531.387-7.261,1.534-8.289,4.216C1322.759,630.974,1324.765,636.157,1324.765,636.157Z" transform="translate(-1118.686 -518.259)" fill="#13375b"/>
    <path id="Path_3412" data-name="Path 3412" d="M1085.872,641.31l-1.807,4.6c-2.515,12.916-7.015,20.055-18.388,29.921l-.867.978s2.737,8.565,11.029,6.095h0a150.979,150.979,0,0,1,20.14-30.965l3.016-3.18Z" transform="translate(-928.686 -530.75)" fill="#466eb6"/>
    <path id="Path_3413" data-name="Path 3413" d="M1157.345,648.1c-.435.686-3.71-.427-7.338-2.483s-6.227-4.282-5.79-4.966,3.752.427,7.37,2.483S1157.78,647.413,1157.345,648.1Z" transform="translate(-987.015 -530.117)" fill="#86b1f2"/>
    <path id="Path_3414" data-name="Path 3414" d="M1164.195,652.784v-.016s-8.215-3.665-9.89-5.978l-.795,1.325a34.357,34.357,0,0,0,3.363,2.176C1160.448,652.31,1163.71,653.42,1164.195,652.784Z" transform="translate(-993.881 -534.777)" fill="#355389"/>
    <path id="Path_3415" data-name="Path 3415" d="M1130.23,720.48s-1.06.723-.493,1.677,2.719,1.378,2.719,1.378a4.213,4.213,0,0,0-.588,3.416c.591,1.741,2.52-3.776,2.52-3.776l-.064-1.447Z" transform="translate(-976.285 -588.94)" fill="#f79c8d"/>
    <path id="Path_3416" data-name="Path 3416" d="M1115.292,726.309q.962-1.624,1.961-3.225a78.389,78.389,0,0,0-4.587-8.294c-.6,1.06-1.248,2.08-1.956,3.1C1112.032,720.172,1113.9,723.511,1115.292,726.309Z" transform="translate(-962.422 -584.757)" fill="#b75742"/>
    <path id="Path_3417" data-name="Path 3417" d="M1105.3,714.08a5.578,5.578,0,0,0-1.842.265c-.429.265.127,1.073-.429,1.505s-1.669.3-1.59,1.116a3.262,3.262,0,0,1-.8,2.149c-.432.6,1.905,4.123,2.979,4.253s-1.007-4.383-.8-4.3,1.823,3.008,2.464,2.748-1.007-4.855-1.007-4.855,1.609,2.835,2.25,2.449S1105.3,714.08,1105.3,714.08Z" transform="translate(-954.985 -584.236)" fill="#f79c8d"/>
    <path id="Path_3418" data-name="Path 3418" d="M2025.383,650.248a10.7,10.7,0,0,1-2.443-1.746,6.756,6.756,0,0,1-2.4-4.842,7.065,7.065,0,0,1,1.913-4.669.411.411,0,0,1,.578,0,.4.4,0,0,1,0,.572,6.349,6.349,0,0,0-1.675,4.1,6.017,6.017,0,0,0,2.146,4.259c4.593,4.362,11.263,2.411,11.329,2.385a.411.411,0,0,1,.509.265.4.4,0,0,1-.265.5A13.973,13.973,0,0,1,2025.383,650.248Z" transform="translate(-1631.147 -528.958)" fill="#f7cc7f"/>
    <path id="Path_3419" data-name="Path 3419" d="M2030.85,618.129l-2.12,1.937a1.654,1.654,0,0,0-1.59-.191,1.52,1.52,0,0,0-.991,1.908,1.544,1.544,0,0,0,2.019.755,1.662,1.662,0,0,0,1.042-1.131l2.915.034,4.823.053-2.56-6.625Z" transform="translate(-1635.207 -511.316)" fill="#f7cc7f"/>
    <path id="Path_3420" data-name="Path 3420" d="M2097.925,696.94c1.06.837,2.875,3.532,5.2,5.424,1.362,1.108,2.411.827,4.15,1.036,8.252,1,6.018,2.684,7.007,2.849-.281.647-2.852,6.114-3.331,7.216a2.02,2.02,0,0,1-2.321,1.325c-1.707-.236-3.427-.411-5.106-.776-4.309-.933-6.7-3.087-9.792-5.7a2.017,2.017,0,0,1-.594-2.541A69.175,69.175,0,0,1,2097.925,696.94Z" transform="translate(-1684.347 -571.638)" fill="#466eb6"/>
    <path id="Path_3421" data-name="Path 3421" d="M2108.382,696.164q-7.1-5.923-14.2-11.851a9.9,9.9,0,0,0-5.334-2.292c-1.531-.18-16.6-2.051-18.139-2.245a1.5,1.5,0,0,0-1.484.424,1.326,1.326,0,0,0,.215,1.964l14.429,12.079a9.044,9.044,0,0,0,4.794,2.086l18.688,2.279a1.271,1.271,0,0,0,1.624-.8A1.368,1.368,0,0,0,2108.382,696.164Z" transform="translate(-1666.684 -559)" fill="#355389"/>
    <path id="Path_3422" data-name="Path 3422" d="M1721.739,298.69l3.366-1.1,2.366,5.218,5.117-1,2.409,3.617,1.831-1.219-3.222-4.839-4.849.949-2.462-5.43-5.064,1.654Z" transform="translate(-1265.125 -216.755)" fill="#50bfa5"/>
    <path id="Path_3423" data-name="Path 3423" d="M1898.439,1056.75l3.365-1.1,2.364,5.22,5.117-1,2.409,3.615,1.831-1.219-3.222-4.836-4.849.946-2.459-5.427-5.064,1.651Z" transform="translate(-1394.999 -773.929)" fill="#f7cc7f"/>
    <path id="Path_3424" data-name="Path 3424" d="M1501.475,239.178a12.622,12.622,0,1,1-9.868-14.88A12.622,12.622,0,0,1,1501.475,239.178Z" transform="translate(-1231.264 -224.06)" fill="#f7cc7f"/>
    <path id="Path_3425" data-name="Path 3425" d="M1497.283,274a6.749,6.749,0,1,0,13.229,2.679Z" transform="translate(-1246.454 -260.776)" fill="#efefef"/>
    <path id="Path_3426" data-name="Path 3426" d="M828.53,815.029a4.312,4.312,0,0,0-3.368-2.059c-6.874,0-8.422,20.246-8.422,27.337,0,8.09.9,15.049,2.594,20.119,1.564,4.672,3.649,7.245,5.875,7.245,2.361,0,4.521-2.957,6.079-8.326C835.263,845.644,833.8,822.038,828.53,815.029Zm1.389,44.159c-1.325,4.439-3.106,7.089-4.77,7.089s-3.432-2.65-4.77-7.089a78.9,78.9,0,0,1,0-37.762c1.325-4.436,3.106-7.086,4.77-7.086s3.429,2.65,4.77,7.086a78.909,78.909,0,0,1,0,37.762Z" transform="translate(-746.354 -656.92)" fill="#b75742"/>
    <path id="Path_3427" data-name="Path 3427" d="M803.407,881.7c-5.5-9.119-30.9-22.7-42.469-22.7-2.668,0-4.407.731-5.17,2.176-.713,1.349-.474,3.032.71,5,5.512,9.143,30.878,22.753,42.4,22.753,2.692,0,4.449-.745,5.226-2.213C804.825,885.362,804.594,883.671,803.407,881.7Zm-.353,4.152c-.416,1.026-1.855,1.569-4.129,1.569h0c-8.011,0-26.235-6.821-37.728-17.925-4.38-4.24-4.791-6.379-4.367-7.42s1.836-1.561,4.118-1.561c4.264,0,10.929,1.855,17.826,4.929a70.9,70.9,0,0,1,19.909,12.985c4.383,4.221,4.8,6.371,4.37,7.423Z" transform="translate(-701.245 -690.752)" fill="#b75742"/>
    <path id="Path_3428" data-name="Path 3428" d="M803.111,859.99c-.8-1.466-2.531-2.21-5.157-2.21-5.244,0-14.17,3.132-23.288,8.175S758.3,876.8,755.74,881.11c-1.171,1.966-1.4,3.628-.7,4.937.776,1.434,2.494,2.16,5.1,2.16,11.451,0,36.737-13.852,42.278-23.158C803.612,863.045,803.845,861.344,803.111,859.99ZM790.3,874.417c-8.1,5.652-17.569,10.036-25.326,11.724a23.354,23.354,0,0,1-4.852.61h0c-2.051,0-3.389-.469-3.872-1.354s-.265-2.062.628-3.548c2.335-3.922,9.275-9.54,17.683-14.339,9.036-5.146,17.813-8.215,23.479-8.215,2.6,0,4,.684,4.142,2.033C802.469,864.034,797.805,869.175,790.3,874.417Z" transform="translate(-700.713 -689.855)" fill="#b75742"/>
    <path id="Path_3429" data-name="Path 3429" d="M840.85,900.865a4.375,4.375,0,1,1-4.375-4.375A4.375,4.375,0,0,1,840.85,900.865Z" transform="translate(-757.644 -718.307)" fill="#f47458"/>
    <path id="Path_3430" data-name="Path 3430" d="M825.587,826.541a3.283,3.283,0,1,1-3.283-3.281A3.283,3.283,0,0,1,825.587,826.541Z" transform="translate(-748.03 -664.483)" fill="#f47458"/>
    <path id="Path_3431" data-name="Path 3431" d="M866.83,974.925a2.735,2.735,0,1,1-2.735-2.735A2.735,2.735,0,0,1,866.83,974.925Z" transform="translate(-779.15 -773.947)" fill="#f47458"/>
    <path id="Path_3432" data-name="Path 3432" d="M766.21,925.165a2.825,2.825,0,1,1-2.825-2.825A2.825,2.825,0,0,1,766.21,925.165Z" transform="translate(-705.062 -737.307)" fill="#f47458"/>
    <path id="Path_3433" data-name="Path 3433" d="M926.868,878.894a2.324,2.324,0,1,1-2.324-2.324A2.324,2.324,0,0,1,926.868,878.894Z" transform="translate(-823.882 -703.666)" fill="#f47458"/>
    <path id="Path_3434" data-name="Path 3434" d="M796.963,860.554a2.324,2.324,0,1,1-.682-1.644A2.327,2.327,0,0,1,796.963,860.554Z" transform="translate(-728.398 -690.186)" fill="#f47458"/>
    <rect id="Rectangle_1273" data-name="Rectangle 1273" width="11.533" height="1.985" transform="translate(538.391 222.229) rotate(-18.11)" fill="#9bc1f9"/>
    <rect id="Rectangle_1274" data-name="Rectangle 1274" width="12.148" height="1.985" transform="matrix(0.474, -0.881, 0.881, 0.474, 523.838, 207.495)" fill="#9bc1f9"/>
    <rect id="Rectangle_1275" data-name="Rectangle 1275" width="1.985" height="12.68" transform="matrix(0.76, -0.65, 0.65, 0.76, 532.093, 243.56)" fill="#9bc1f9"/>
    <path id="Path_3435" data-name="Path 3435" d="M1916.25,819.11,1896.3,824.5l-15.065-12.521,1.269-1.526,14.273,11.861,17.866-4.826,5.1-18.386-13.181-14.109,1.452-1.354,13.942,14.922Z" transform="translate(-1382.725 -575.986)" fill="#9bc1f9"/>
    <path id="Path_3436" data-name="Path 3436" d="M2424.514,1096.7a4.8,4.8,0,1,1-6.127-2.915A4.8,4.8,0,0,1,2424.514,1096.7Z" transform="translate(-1921.217 -863.111)" fill="#96d9c9"/>
    <path id="Path_3437" data-name="Path 3437" d="M2481.5,1145.435a4.8,4.8,0,1,1-6.127-2.915,4.8,4.8,0,0,1,6.127,2.915Z" transform="translate(-1963.105 -898.935)" fill="#96d9c9"/>
    <path id="Path_3438" data-name="Path 3438" d="M2552.875,1123.717a4.8,4.8,0,1,1-6.124-2.915A4.8,4.8,0,0,1,2552.875,1123.717Z" transform="translate(-2015.563 -882.973)" fill="#96d9c9"/>
    <path id="Path_3439" data-name="Path 3439" d="M2589.424,1167.145a4.8,4.8,0,1,1-6.127-2.915A4.8,4.8,0,0,1,2589.424,1167.145Z" transform="translate(-2042.426 -914.892)" fill="#96d9c9"/>
    <path id="Path_3440" data-name="Path 3440" d="M2628.3,1035.427a4.8,4.8,0,1,1-6.124-2.915,4.8,4.8,0,0,1,6.124,2.915Z" transform="translate(-2071.004 -818.08)" fill="#96d9c9"/>
    <path id="Path_3441" data-name="Path 3441" d="M2551.225,946.757a4.8,4.8,0,1,1-6.124-2.915A4.8,4.8,0,0,1,2551.225,946.757Z" transform="translate(-2014.35 -752.907)" fill="#96d9c9"/>
    <path id="Path_3442" data-name="Path 3442" d="M2576.014,1049.285a4.8,4.8,0,1,1-6.126-2.915A4.8,4.8,0,0,1,2576.014,1049.285Z" transform="translate(-2032.57 -828.265)" fill="#96d9c9"/>
    <path id="Path_3443" data-name="Path 3443" d="M2522.464,994.027a4.8,4.8,0,1,1-6.127-2.915A4.8,4.8,0,0,1,2522.464,994.027Z" transform="translate(-1993.211 -787.651)" fill="#96d9c9"/>
    <path id="Path_3444" data-name="Path 3444" d="M1971.092,638.223l-6.442-1.341,1.367-5.2,1.921.506-.835,3.177,4.394.917Z" transform="translate(-1444.039 -464.296)" fill="#f47458"/>
    <path id="Path_3445" data-name="Path 3445" d="M300.3,873.42l-1.45,4.023-6.728-1.619-2.843,5.618-5.231-.387-.2,2.647,7,.519,2.7-5.324,7,1.683,2.181-6.05Z" transform="translate(-208.649 -641.975)" fill="#50bfa5"/>
    <path id="Path_3446" data-name="Path 3446" d="M322.69,445.77l3.519.363.04,5.732,5.083,1.166.729,4.285,2.17-.371-.978-5.729-4.815-1.105-.042-5.963-5.3-.549Z" transform="translate(-237.197 -326.057)" fill="#9bc1f9"/>
  </g>
</svg>
