<svg xmlns="http://www.w3.org/2000/svg" width="594.83" height="411.305" viewBox="0 0 594.83 411.305">
  <g id="meeting" transform="translate(-70.9 -37.635)">
    <path id="Path_3127" data-name="Path 3127" d="M596.16,229l66-.1c1.69,0,3.05-1.06,3.05-2.35l-.06-39.41v-4.43c0-1.3-1.37-2.34-3-2.34l-66,.1c-1.68,0-3.05,1.05-3.05,2.35l.07,43.84C593.1,227.92,594.47,229,596.16,229Z" transform="translate(0 1.27)" fill="#fff"/>
    <path id="Path_3128" data-name="Path 3128" d="M665.17,189.57v-6.89c0-1.3-1.37-2.34-3-2.34l-66,.1c-1.68,0-3.05,1.05-3.05,2.35v6.59" transform="translate(0 1.27)" fill="#b7d0f9"/>
    <path id="Path_3129" data-name="Path 3129" d="M659,186.22a1.43,1.43,0,0,1,1-2.44h0a1.43,1.43,0,0,1,0,2.86h0A1.42,1.42,0,0,1,659,186.22Zm1-1.85a.84.84,0,0,0,0,1.68h0a.84.84,0,1,0,0-1.68Z" transform="translate(0 1.27)" fill="#fff"/>
    <path id="Path_3130" data-name="Path 3130" d="M654.28,185.22h0a1.43,1.43,0,0,1,1.42-1.43h0a1.43,1.43,0,0,1,0,2.85h0a1.43,1.43,0,0,1-1.42-1.42Zm1.42-.85a.85.85,0,0,0-.83.85.83.83,0,0,0,.84.83h0a.84.84,0,0,0,.84-.84.85.85,0,0,0-.84-.84Z" transform="translate(0 1.27)" fill="#fff"/>
    <path id="Path_3131" data-name="Path 3131" d="M650.1,185.22h0a1.42,1.42,0,0,1,.42-1,1.45,1.45,0,0,1,1-.42,1.43,1.43,0,1,1,0,2.86h0A1.44,1.44,0,0,1,650.1,185.22Zm1.43-.84a.84.84,0,1,0,0,1.68h0a.84.84,0,1,0,0-1.68Z" transform="translate(0 1.27)" fill="#fff"/>
    <path id="Path_3132" data-name="Path 3132" d="M603,198.21h0l52.72-.07a.43.43,0,1,0,0-.84h0l-52.71.06a.48.48,0,0,0-.53.43.49.49,0,0,0,.52.42Z" transform="translate(0 1.27)" fill="#3b3348" opacity="0.63"/>
    <path id="Path_3133" data-name="Path 3133" d="M629.44,216.46h26.35a.43.43,0,1,0,0-.84H629.43a.44.44,0,1,0,0,.85Z" transform="translate(0 1.27)" fill="#3b3348" opacity="0.63"/>
    <path id="Path_3134" data-name="Path 3134" d="M640.45,203.65h15.32a.44.44,0,1,0,0-.85H640.45a.43.43,0,1,0,0,.84Z" transform="translate(0 1.27)" fill="#3b3348" opacity="0.63"/>
    <path id="Path_3135" data-name="Path 3135" d="M603.06,203.69h33.7a.44.44,0,1,0,0-.85h-33.7a.43.43,0,1,0,0,.84Z" transform="translate(0 1.27)" fill="#3b3348" opacity="0.63"/>
    <path id="Path_3136" data-name="Path 3136" d="M626,210.14h29.79a.437.437,0,1,0,0-.85h-29.8a.44.44,0,1,0,0,.85Z" transform="translate(0 1.27)" fill="#3b3348" opacity="0.63"/>
    <path id="Path_3137" data-name="Path 3137" d="M603.06,210.18h19.68a.437.437,0,1,0,0-.85H603.06a.48.48,0,0,0-.53.43.49.49,0,0,0,.53.42Z" transform="translate(0 1.27)" fill="#3b3348" opacity="0.63"/>
    <path id="Path_3138" data-name="Path 3138" d="M601.89,146.06A20.08,20.08,0,0,1,622.19,162l4.57-.93a24.7,24.7,0,0,0-29.14-19.26l1,4.71a20.1,20.1,0,0,1,3.27-.46Z" transform="translate(0 1.27)" fill="#9d9dd9"/>
    <path id="Path_3139" data-name="Path 3139" d="M602.52,190.67a24.2,24.2,0,0,0,5-.51h0a24.2,24.2,0,0,1-5,.51Z" transform="translate(0 1.27)" fill="#fff"/>
    <path id="Path_3140" data-name="Path 3140" d="M582.49,166.81a20.08,20.08,0,0,1,16.09-20.34l-1-4.71a24.7,24.7,0,0,0-19.26,29.14l4.51-.92a20.5,20.5,0,0,1-.34-3.17Z" transform="translate(0 1.27)" fill="#fff"/>
    <path id="Path_3141" data-name="Path 3141" d="M607.5,190.16h0A24.7,24.7,0,0,0,626.76,161l-4.57.93a20.3,20.3,0,0,1,.45,3.51A20.08,20.08,0,0,1,582.87,170l-4.51.92a24.7,24.7,0,0,0,19.33,19.29,25,25,0,0,0,4.83.48,24.2,24.2,0,0,0,4.98-.53Z" transform="translate(0 1.27)" fill="#e5918a"/>
    <path id="Path_3142" data-name="Path 3142" d="M602.54,191.17h0a25.52,25.52,0,0,1-4.93-.49A25.17,25.17,0,0,1,577.87,171l-.1-.49,5.5-1.12.1.49a19.561,19.561,0,1,0,38.33-7.83l-.1-.49,5.55-1.13.1.49a25.18,25.18,0,0,1-19.65,29.73h0A25.409,25.409,0,0,1,602.54,191.17ZM579,171.29a24.17,24.17,0,0,0,23.57,18.88h0a24.149,24.149,0,0,0,4.86-.5h0a24.21,24.21,0,0,0,19-28.06l-3.59.73a20.561,20.561,0,1,1-40.29,8.23Z" transform="translate(0 1.27)" fill="#e5918a"/>
    <path id="Path_3143" data-name="Path 3143" d="M651.5,162.1a1.42,1.42,0,0,1-.83-.27h0L638,152.52l-.5-.29.36-.45a2.67,2.67,0,0,1,2.11-1h22.61a3.18,3.18,0,0,1,2.46,1.17l.33.41-13,9.5A1.37,1.37,0,0,1,651.5,162.1Zm-.23-1.07a.41.41,0,0,0,.47,0l12.13-8.85a2.14,2.14,0,0,0-1.3-.43H640a1.67,1.67,0,0,0-.93.28Z" transform="translate(0 1.27)" fill="#fff"/>
    <path id="Path_3144" data-name="Path 3144" d="M663.47,169.93h-24a2.36,2.36,0,0,1-.87-.17l-.8-.34.73-.55,10-8.89,2.26,1.66a1.16,1.16,0,0,0,1.37,0l2-1.48,10.71,9.49-.95.22A2.292,2.292,0,0,1,663.47,169.93Zm-23.46-1H662.6l-8.44-7.49-1.39,1a2.18,2.18,0,0,1-2.55,0l-1.6-1.17Z" transform="translate(0 1.27)" fill="#fff"/>
    <path id="Path_3145" data-name="Path 3145" d="M638.45,169.91l-.55-.68a2.2,2.2,0,0,1-.63-1.55V153.44a2.43,2.43,0,0,1,.14-.84l.21-.66,11.14,8.19-10.07,9Zm-.18-16.25v14a1.321,1.321,0,0,0,.06.39l8.84-7.87Z" transform="translate(0 1.27)" fill="#fff"/>
    <path id="Path_3146" data-name="Path 3146" d="M664.49,169.76l-.31-.45h0l-10.16-9,11.23-8.18.24.59a3.06,3.06,0,0,1,.24,1.2v13.77a2.22,2.22,0,0,1-.83,1.73Zm-8.88-9.38,8.94,7.93a1.179,1.179,0,0,0,.18-.63V153.91a.909.909,0,0,0,0-.17Z" transform="translate(0 1.27)" fill="#fff"/>
    <path id="Path_3147" data-name="Path 3147" d="M213.09,140.89a12.72,12.72,0,1,1-12.71-12.72,12.72,12.72,0,0,1,12.71,12.72Z" transform="translate(0 1.27)" fill="#b7d0f9"/>
    <rect id="Rectangle_1260" data-name="Rectangle 1260" width="30.32" height="1.96" transform="translate(217.5 134.82)" fill="#e9a7b2"/>
    <rect id="Rectangle_1261" data-name="Rectangle 1261" width="30.32" height="1.96" transform="translate(217.5 140.2)" fill="#e9a7b2"/>
    <rect id="Rectangle_1262" data-name="Rectangle 1262" width="30.32" height="1.96" transform="translate(217.5 146.07)" fill="#e9a7b2"/>
    <path id="Path_3148" data-name="Path 3148" d="M202.32,135.51l.59,2.6a1.2,1.2,0,0,0,.72.83l2.47,1a1.19,1.19,0,0,1,.17,2.12L204,143.4a1.2,1.2,0,0,0-.57.94l-.17,2.65a1.18,1.18,0,0,1-2,.81l-2-1.75a1.18,1.18,0,0,0-1.07-.25l-2.57.65a1.18,1.18,0,0,1-1.38-1.61l1.05-2.44a1.19,1.19,0,0,0-.09-1.1l-1.42-2.24a1.18,1.18,0,0,1,1.1-1.81l2.65.24a1.17,1.17,0,0,0,1-.42l1.7-2a1.18,1.18,0,0,1,2.09.44Z" transform="translate(0 1.27)" fill="#fff"/>
    <rect id="Rectangle_1263" data-name="Rectangle 1263" width="24.97" height="1" transform="translate(162.66 143.36)" fill="#fff"/>
    <path id="Path_3149" data-name="Path 3149" d="M166.25,163.65l-61-.09c-1.56,0-2.82-1-2.82-2.17l.06-36.39v-4.09c0-1.2,1.26-2.17,2.82-2.16l61,.09c1.55,0,2.81,1,2.81,2.17l-.06,40.48C169.07,162.69,167.8,163.65,166.25,163.65Z" transform="translate(0 1.27)" fill="#fff"/>
    <path id="Path_3150" data-name="Path 3150" d="M102.52,127.27v-6.36c0-1.2,1.26-2.17,2.82-2.16l61,.09c1.55,0,2.81,1,2.81,2.17v6.09" transform="translate(0 1.27)" fill="#e9a7b2"/>
    <path id="Path_3151" data-name="Path 3151" d="M107.33,124.56h0a1.32,1.32,0,0,1,0-2.64h0a1.32,1.32,0,1,1,0,2.64Zm0-2.09a.76.76,0,0,0-.77.77.77.77,0,0,0,.77.78h0a.76.76,0,0,0,.55-.23.75.75,0,0,0,.23-.55.78.78,0,0,0-.78-.77Z" transform="translate(0 1.27)" fill="#fff"/>
    <path id="Path_3152" data-name="Path 3152" d="M111.26,124.57h0a1.32,1.32,0,1,1,0-2.64h0a1.32,1.32,0,0,1,1.32,1.32h0A1.32,1.32,0,0,1,111.26,124.57Zm0-2.1a.78.78,0,1,0,0,1.55h0a.76.76,0,0,0,.77-.77.77.77,0,0,0-.77-.78Z" transform="translate(0 1.27)" fill="#fff"/>
    <path id="Path_3153" data-name="Path 3153" d="M115.11,124.57h0a1.32,1.32,0,1,1,1.32-1.31h0a1.32,1.32,0,0,1-1.32,1.31Zm0-2.09a.78.78,0,0,0,0,1.55h0a.78.78,0,0,0,.78-.77A.79.79,0,0,0,115.11,122.48Z" transform="translate(0 1.27)" fill="#fff"/>
    <path id="Path_3154" data-name="Path 3154" d="M159.89,135.25h0l-48.68-.06a.4.4,0,1,1,0-.78h0l48.67.06a.4.4,0,1,1,.01.78Z" transform="translate(0 1.27)" fill="#3b3348" opacity="0.63"/>
    <path id="Path_3155" data-name="Path 3155" d="M135.52,152.1H111.18a.4.4,0,1,1,0-.78h24.34a.4.4,0,1,1,0,.78Z" transform="translate(0 1.27)" fill="#3b3348" opacity="0.63"/>
    <path id="Path_3156" data-name="Path 3156" d="M125.34,140.27H111.2a.4.4,0,1,1,0-.78h14.14a.46.46,0,0,1,.5.39.45.45,0,0,1-.5.39Z" transform="translate(0 1.27)" fill="#3b3348" opacity="0.63"/>
    <path id="Path_3157" data-name="Path 3157" d="M159.87,140.31H128.75a.4.4,0,1,1,0-.78h31.12a.4.4,0,1,1,0,.78Z" transform="translate(0 1.27)" fill="#3b3348" opacity="0.63"/>
    <path id="Path_3158" data-name="Path 3158" d="M138.71,146.26H111.2a.45.45,0,0,1-.5-.39.46.46,0,0,1,.5-.39h27.51a.46.46,0,0,1,.5.39.45.45,0,0,1-.5.39Z" transform="translate(0 1.27)" fill="#3b3348" opacity="0.63"/>
    <path id="Path_3159" data-name="Path 3159" d="M159.87,146.3H141.7a.4.4,0,1,1,0-.78h18.17a.4.4,0,1,1,0,.78Z" transform="translate(0 1.27)" fill="#3b3348" opacity="0.63"/>
    <path id="Path_3160" data-name="Path 3160" d="M173.36,98.44a1.22,1.22,0,0,0,1.44,0L191.9,86a3.61,3.61,0,0,0-2.8-1.34H158.42a3,3,0,0,0-2.34,1.14h.06Z" transform="translate(0 1.27)" fill="#e5918a"/>
    <path id="Path_3161" data-name="Path 3161" d="M175.4,99.28a2.22,2.22,0,0,1-2.65,0l-2.62-1.92-13.2,11.74h0a2.37,2.37,0,0,0,.92.19h32.5a2.35,2.35,0,0,0,.54-.07L177.72,97.59Z" transform="translate(0 1.27)" fill="#e5918a"/>
    <path id="Path_3162" data-name="Path 3162" d="M169.28,96.73,155.59,86.67a3.24,3.24,0,0,0-.15.94v19.31a2.38,2.38,0,0,0,.66,1.64.49.49,0,0,1,.15-.23Z" transform="translate(0 1.27)" fill="#e5918a"/>
    <path id="Path_3163" data-name="Path 3163" d="M191.76,108.66l.07.09a2.36,2.36,0,0,0,.88-1.83V88.24a3.46,3.46,0,0,0-.28-1.37L178.58,97Z" transform="translate(0 1.27)" fill="#e5918a"/>
    <path id="Path_3164" data-name="Path 3164" d="M250.3,85.54H228a1,1,0,0,1,0-2h22.3a1,1,0,0,1,0,2Z" transform="translate(0 1.27)" fill="#3b3348" opacity="0.63"/>
    <path id="Path_3165" data-name="Path 3165" d="M264.88,93.69h-36.1a1,1,0,1,1,0-2h36.1a1,1,0,0,1,0,2Z" transform="translate(0 1.27)" fill="#3b3348" opacity="0.63"/>
    <path id="Path_3166" data-name="Path 3166" d="M216.28,66.67h94.2a9.11,9.11,0,0,1,9.06,9.16V126a1.67,1.67,0,0,1-2.88,1.18l-9-9.44a4.23,4.23,0,0,0-3.06-1.31l-88.33-.1a7.87,7.87,0,0,1-7.83-7.92V74.58a7.87,7.87,0,0,1,7.84-7.91Z" transform="translate(0 1.27)" fill="#fff"/>
    <path id="Path_3167" data-name="Path 3167" d="M295.56,85.54H255.43a1,1,0,0,1,0-2h40.13a1,1,0,0,1,0,2Z" transform="translate(0 1.27)" fill="#3b3348" opacity="0.63"/>
    <path id="Path_3168" data-name="Path 3168" d="M265.47,93.67H225.34a1,1,0,0,1,0-2h40.13a1,1,0,0,1,0,2Z" transform="translate(0 1.27)" fill="#3b3348" opacity="0.63"/>
    <path id="Path_3169" data-name="Path 3169" d="M295.56,93.69h-24a1,1,0,0,1,0-2h24a1,1,0,0,1,0,2Z" transform="translate(0 1.27)" fill="#3b3348" opacity="0.63"/>
    <path id="Path_3170" data-name="Path 3170" d="M250.26,85.57h-24a1,1,0,0,1,0-2h24a1,1,0,1,1,0,2Z" transform="translate(0 1.27)" fill="#3b3348" opacity="0.63"/>
    <path id="Path_3171" data-name="Path 3171" d="M295.56,101.85H257.37a1,1,0,0,1,0-2h38.19a1,1,0,0,1,0,2Z" transform="translate(0 1.27)" fill="#3b3348" opacity="0.63"/>
    <path id="Path_3172" data-name="Path 3172" d="M249.67,113.05" transform="translate(0 1.27)" fill="none" stroke="#243762" stroke-linecap="round" stroke-miterlimit="10" stroke-width="1"/>
    <rect id="Rectangle_1264" data-name="Rectangle 1264" width="11.89" height="35.57" transform="translate(263.34 136.98)" fill="#b7d0f9"/>
    <rect id="Rectangle_1265" data-name="Rectangle 1265" width="11.89" height="51.37" transform="translate(277.98 121.18)" fill="#e9a7b2"/>
    <rect id="Rectangle_1266" data-name="Rectangle 1266" width="11.89" height="63.12" transform="translate(292.98 109.43)" fill="#9d9dd9"/>
    <path id="Path_3173" data-name="Path 3173" d="M71.76,217.56H311.89V371.67A14.32,14.32,0,0,1,297.56,386H86.09a14.32,14.32,0,0,1-14.32-14.32V217.56Z" fill="#fff"/>
    <path id="Path_3174" data-name="Path 3174" d="M307.05,200.12l-128.69-.2a8.44,8.44,0,0,0-1.53.15l-99.93-.15c-3.28,0-6,2-6,4.56v13.43l101.45-.26v.26L313,217.54V204.69C313,202.17,310.34,200.12,307.05,200.12Z" transform="translate(0 1.27)" fill="#b7d0f9"/>
    <path id="Path_3175" data-name="Path 3175" d="M81.59,212a2.635,2.635,0,0,1,0-5.27h0a2.635,2.635,0,0,1,0,5.27Zm0-4.77v.5a1.63,1.63,0,0,0-1.16,2.79,1.67,1.67,0,0,0,2.31,0,1.59,1.59,0,0,0,.48-1.15,1.64,1.64,0,0,0-1.63-1.64Z" transform="translate(0 1.27)" fill="#fff"/>
    <path id="Path_3176" data-name="Path 3176" d="M92.4,212.06a2.64,2.64,0,1,1,0-5.27h0a2.64,2.64,0,0,1,0,5.27Zm0-4.77v.5a1.614,1.614,0,1,1-.03,0Z" transform="translate(0 1.27)" fill="#fff"/>
    <path id="Path_3177" data-name="Path 3177" d="M103,212.07a2.63,2.63,0,0,1,0-5.26h0a2.63,2.63,0,1,1,0,5.26Zm0-4.76v.5a1.63,1.63,0,1,0,1.63,1.63,1.63,1.63,0,0,0-1.63-1.63Z" transform="translate(0 1.27)" fill="#fff"/>
    <rect id="Rectangle_1267" data-name="Rectangle 1267" width="202.68" height="131.01" transform="translate(93.33 237.84)" fill="#f7ece4" opacity="0.81"/>
    <path id="Path_3178" data-name="Path 3178" d="M124.31,248.64l-4.83,1.29a.22.22,0,0,0-.16.2v-2.55A1.61,1.61,0,0,0,117.7,246H103.13a1.62,1.62,0,0,0-1.62,1.62V258.3a1.63,1.63,0,0,0,1.62,1.63H117.7a1.62,1.62,0,0,0,1.62-1.63v-2.55a.2.2,0,0,0,.16.2l4.83,1.29a.2.2,0,0,0,.26-.2v-8.2a.21.21,0,0,0-.26-.2Z" transform="translate(0 1.27)" fill="#fff"/>
    <path id="Path_3179" data-name="Path 3179" d="M230.42,231.08a13.76,13.76,0,0,0,2.68-8.17h0a13.79,13.79,0,0,0-3.5-9.19l3.11-6.55a17.58,17.58,0,0,0-3.18-19.64,11.76,11.76,0,0,0-3.05-12.74,26.78,26.78,0,0,0-15.74-7.17,20.73,20.73,0,0,0-8.38.78,39.09,39.09,0,0,0-15.73-3.28h0a39.34,39.34,0,0,0-39.34,39.34,40,40,0,0,0,.48,6,13.83,13.83,0,0,0-7.71,12.41h0a13.8,13.8,0,0,0,4,9.69,25.3,25.3,0,0,0-11.22,21h0A25.35,25.35,0,0,0,158.16,279h0a25.26,25.26,0,0,0,13.93-4.17,36.47,36.47,0,1,0,58.33-43.75Z" transform="translate(0 1.27)" fill="#33002b"/>
    <path id="Path_3180" data-name="Path 3180" d="M223.72,194.89a1.4,1.4,0,0,0-.17.09c-5.14,2.33-12.5,3.13-22.25-1.74a23.75,23.75,0,0,1-7.08-5.12c-1.9,11.69-9.42,20.86-19.57,22.36l-7.71,1.13a8.86,8.86,0,0,0,6.35,16l3.13-.45v.07a15.44,15.44,0,0,0-.43,3.61l.14,26a15.6,15.6,0,0,0,15.63,15.47h0a15.61,15.61,0,0,0,15.48-15.64v-4.88a24.86,24.86,0,0,0,17-13.73,24.55,24.55,0,0,0,3.4-16.42Z" transform="translate(0 1.27)" fill="#f1cdbe"/>
    <path id="Path_3181" data-name="Path 3181" d="M206.69,249.64h0a24.66,24.66,0,0,1-27.94-20.89l-.27-1.85-2.06.3.56,3.94a24.79,24.79,0,0,0,8.49,15.38,8.761,8.761,0,0,0-.21,1.86c0,5.6,5.22,10.13,11.66,10.13,5.11,0,9.44-2.86,11-6.84a24.87,24.87,0,0,0,16.25-13.53,24.61,24.61,0,0,1-17.48,11.5Z" transform="translate(0 1.27)" fill="#e48c77" opacity="0.32"/>
    <path id="Path_3182" data-name="Path 3182" d="M171.3,236a6.77,6.77,0,1,1,6.77-6.77A6.77,6.77,0,0,1,171.3,236Zm0-11.54a4.755,4.755,0,1,1,0,.03Z" transform="translate(0 1.27)" fill="#fff"/>
    <path id="Path_3183" data-name="Path 3183" d="M169.36,221.75a.52.52,0,0,1-.41-.21.51.51,0,0,1,.12-.7l2.76-2-3.3-3.39a.5.5,0,1,1,.71-.7L173,218.6a.51.51,0,0,1,.14.39.47.47,0,0,1-.21.36l-3.23,2.3A.46.46,0,0,1,169.36,221.75Z" transform="translate(0 1.27)" fill="#e48c77"/>
    <path id="Path_3184" data-name="Path 3184" d="M211.69,239.87a.5.5,0,0,1-.34-.87,4.68,4.68,0,0,1,5.31-.58.5.5,0,0,1-.48.88,3.67,3.67,0,0,0-4.15.44.55.55,0,0,1-.34.13Z" transform="translate(0 1.27)" fill="#e48c77"/>
    <path id="Path_3185" data-name="Path 3185" d="M224.62,206.07a4.38,4.38,0,0,1-1.73.17H221.1c-.54,0-1.16.05-1.78.1a4.15,4.15,0,0,1-1.74-.09c-.47-.19-.67-.75-.13-1.45a4.8,4.8,0,0,1,3.63-1.5,4.69,4.69,0,0,1,3.66,1.33C225.28,205.29,225.09,205.86,224.62,206.07Z" transform="translate(0 1.27)" fill="#33002b"/>
    <path id="Path_3186" data-name="Path 3186" d="M199.5,208.86a4.94,4.94,0,0,0,2-.48c.67-.26,1.34-.51,1.94-.7s1.29-.39,2-.57a4.821,4.821,0,0,0,1.86-.75c.45-.39.45-1.08-.4-1.64a5.56,5.56,0,0,0-4.54-.26,5.39,5.39,0,0,0-3.49,2.85C198.48,208.26,198.91,208.81,199.5,208.86Z" transform="translate(0 1.27)" fill="#33002b"/>
    <path id="Path_3187" data-name="Path 3187" d="M212.81,208.57l.41,5.53a1.78,1.78,0,0,0,1.9,1.64l1.22-.09a1.5,1.5,0,0,1,1.6,1.38h0a4.84,4.84,0,0,1-4.47,5.19l-1.75.13" transform="translate(0 1.27)" fill="#f1cdbe"/>
    <path id="Path_3188" data-name="Path 3188" d="M211.72,222.85a.5.5,0,0,1,0-1l1.75-.13a4.33,4.33,0,0,0,3-1.5,4.25,4.25,0,0,0,1-3.15,1,1,0,0,0-1.07-.92l-1.21.09a2.23,2.23,0,0,1-1.65-.55,2.26,2.26,0,0,1-.79-1.55l-.41-5.53a.5.5,0,0,1,1-.08l.41,5.54a1.27,1.27,0,0,0,.44.87,1.31,1.31,0,0,0,.93.3l1.21-.09a2,2,0,0,1,2.14,1.85,5.324,5.324,0,0,1-4.93,5.71l-1.75.13Z" transform="translate(0 1.27)" fill="#e48c77"/>
    <path id="Path_3189" data-name="Path 3189" d="M203.65,224.05a33.169,33.169,0,0,0,8.73,2.3c4.38.41,1.31,7.82-5.35,7.56S200.06,223.48,203.65,224.05Z" transform="translate(0 1.27)" fill="#fff"/>
    <path id="Path_3190" data-name="Path 3190" d="M219.19,211.53a1.5,1.5,0,1,0,.214-1.134,1.51,1.51,0,0,0-.214,1.134Z" transform="translate(0 1.27)" fill="#33002b"/>
    <path id="Path_3191" data-name="Path 3191" d="M203.73,213.19a1.51,1.51,0,1,0,1.16-1.78A1.51,1.51,0,0,0,203.73,213.19Z" transform="translate(0 1.27)" fill="#33002b"/>
    <path id="Path_3192" data-name="Path 3192" d="M219.38,213.61a.54.54,0,0,1-.37-.16.51.51,0,0,1,0-.7,2.93,2.93,0,0,1,3.47-.21.5.5,0,0,1,.18.68.52.52,0,0,1-.69.19,1.9,1.9,0,0,0-2.27.06.51.51,0,0,1-.32.14Z" transform="translate(0 1.27)" fill="#e48c77"/>
    <path id="Path_3193" data-name="Path 3193" d="M204,215.35a.49.49,0,0,1-.39-.81,2.74,2.74,0,0,1,3.44-.47.5.5,0,1,1-.47.88,1.72,1.72,0,0,0-2.2.23.48.48,0,0,1-.38.17Z" transform="translate(0 1.27)" fill="#e48c77"/>
    <path id="Path_3194" data-name="Path 3194" d="M288,273.56l-.77-15.68s9.88-10.38,9.11-13.6c-.87-3.63-2.17-4.89-3.44-8.42a8.06,8.06,0,0,0-2.12-3.47,7.53,7.53,0,0,0-4.87-1.5c-2.12,0-4.47.35-6.63,0l7.81-16.15a4,4,0,0,0-.43-4.18l-1-1.35a1.53,1.53,0,0,0-2.49.09l-19.55,30.21.36-.2-.88,1a28.31,28.31,0,0,0-3.42,12.19l-.92,10.12.9,38.35-3.8-1.64c-16.54-28.6-28.88-30.25-28.88-30.25,1.12,12.38-1.34,74.21-1.34,74.21l24.14,13.09c19,10.3,42.55-3.48,42-25.07a10.017,10.017,0,0,0-.06-1.34Z" transform="translate(0 1.27)" fill="#f1cdbe"/>
    <path id="Path_3195" data-name="Path 3195" d="M276.94,230.89s-11,20.57,5.77,19.81S297,239.82,297,239.82,288.26,220.88,276.94,230.89Z" transform="translate(0 1.27)" fill="#e48c77" opacity="0.24"/>
    <path id="Path_3196" data-name="Path 3196" d="M262.38,222.29l-3,11a17.53,17.53,0,0,0-.25,8l1.2,5.86a9.82,9.82,0,0,0,6.81,7.45h0A8,8,0,0,0,277.3,245h0a7.73,7.73,0,0,0-8.28-6.43h0l-2.61-7.32.1-.44a10.14,10.14,0,0,0-1.67-8.3l-.45-.63a1.13,1.13,0,0,0-2.01.41Z" transform="translate(0 1.27)" fill="#f1cdbe"/>
    <path id="Path_3197" data-name="Path 3197" d="M290.9,230.2a7.3,7.3,0,0,0-1.18.89c.19-.16.4-.31.6-.47,2.22-1.69-2.85,2.2-5.13,3.81-.79.55-1.55,1.15-2.34,1.72s-1.75,1.13-2.51,1.8c-1.47,1.31-.13,2.54,1.11,3.12a7.22,7.22,0,0,0,5.16.09c1.46-.45,2.84-1.27,4.26-1.84a22.452,22.452,0,0,0,4.38-2.2,4.63,4.63,0,0,0,1.45-1.37c1.19-2-1.05-4.11-2.44-5.08a3.54,3.54,0,0,0-2.47-.8,2.67,2.67,0,0,0-.89.33Z" transform="translate(0 1.27)" fill="#f1cdbe"/>
    <path id="Path_3198" data-name="Path 3198" d="M285.68,224.79a6.678,6.678,0,0,0-1.09.83l.56-.44c2.06-1.57-2.65,2-4.76,3.53-.74.52-1.44,1.07-2.17,1.6s-1.63,1.05-2.33,1.67c-1.37,1.21-.12,2.35,1,2.89a6.7,6.7,0,0,0,4.79.09c1.35-.42,2.63-1.18,4-1.71a20.39,20.39,0,0,0,4.07-2,4.36,4.36,0,0,0,1.33-1.27c1.11-1.81-1-3.82-2.26-4.71a3.24,3.24,0,0,0-2.29-.75A2.53,2.53,0,0,0,285.68,224.79Z" transform="translate(0 1.27)" fill="#f1cdbe"/>
    <path id="Path_3199" data-name="Path 3199" d="M293.89,236.43a6.839,6.839,0,0,0-1.12.82c.18-.16.38-.29.57-.43,2.12-1.55-2.7,2-4.87,3.46-.76.51-1.48,1.05-2.22,1.58a26.437,26.437,0,0,0-2.39,1.63c-1.4,1.2-.05,2.42,1.18,3a7.27,7.27,0,0,0,5,.26c1.41-.39,2.73-1.12,4.1-1.62a20.611,20.611,0,0,0,4.2-2,4.11,4.11,0,0,0,1.36-1.26c1.1-1.83-1.15-4-2.54-4.93a3.7,3.7,0,0,0-2.43-.86,2.629,2.629,0,0,0-.84.35Z" transform="translate(0 1.27)" fill="#f1cdbe"/>
    <path id="Path_3200" data-name="Path 3200" d="M259.89,323.4l-3.23-22.41,3.49,1.51Z" fill="#e48771" opacity="0.33"/>
    <path id="Path_3201" data-name="Path 3201" d="M283.64,235.12a.52.52,0,0,1-.43-.24.51.51,0,0,1,.17-.69l7.41-4.47a.5.5,0,1,1,.52.86l-7.41,4.47A.59.59,0,0,1,283.64,235.12Z" transform="translate(0 1.27)" fill="#e48c77" opacity="0.5"/>
    <path id="Path_3202" data-name="Path 3202" d="M288.27,241.21a.5.5,0,0,1-.25-.93l7.41-4.47a.5.5,0,1,1,.51.85l-7.41,4.47A.5.5,0,0,1,288.27,241.21Z" transform="translate(0 1.27)" fill="#e48c77" opacity="0.5"/>
    <path id="Path_3203" data-name="Path 3203" d="M240.78,305.65h0c7.06-5.22,12.9-9.92,12.9-9.92-13.75-33.2-35.61-33-35.61-33h0a51.82,51.82,0,0,0-13.71-1.45l-43.43.35c-7.91.06-14.84,4.55-18.88,11.3l-26.23,32.8a10.54,10.54,0,0,0,3.71,16.1l1,.46L138.79,331l.58,53.84,97.56-.84L239,351.6l5.39-8.52a24.69,24.69,0,0,0,2.19-21.47Z" transform="translate(0 1.27)" fill="#e5918a"/>
    <path id="Path_3204" data-name="Path 3204" d="M235,289.88l5.77,15.77c7.06-5.22,12.9-9.92,12.9-9.92-13.75-33.2-35.61-33-35.61-33h0C229.11,265.73,234.88,273.66,235,289.88Z" transform="translate(0 1.27)" fill="#cc726d" opacity="0.57"/>
    <path id="Path_3205" data-name="Path 3205" d="M210.61,261.47a28.29,28.29,0,0,0-1-8.69h0a17.431,17.431,0,0,0-17.37,15.944l-.06,0a17.44,17.44,0,0,0-17.37-16,28.159,28.159,0,0,0-1,7.88h-.06L174,265l22.61,56.92a1.35,1.35,0,0,0,2.59-.24l11.91-60.36Z" transform="translate(0 1.27)" fill="#fff"/>
    <path id="Path_3206" data-name="Path 3206" d="M164.88,325.32l-3.18,12.42a3.37,3.37,0,0,1-4.5,2.31l-6.09-2.37-3.41,14.58,6-10.11,5.44,2.39a3.38,3.38,0,0,0,4.74-2.89Z" transform="translate(0 1.27)" fill="#cc726d" opacity="0.71"/>
    <path id="Path_3207" data-name="Path 3207" d="M232.84,384.18,228,370.84a7.18,7.18,0,0,0-5.05-4.53l-8.41-2.07.09-.21-3.37-.59-1.44-.36h-.63L147.4,352.2l1.7-6.91,2.07-8.43L120.5,322.3l-12.65,46A17.35,17.35,0,0,0,122.22,389l83.93-3.3a18.342,18.342,0,0,0,3.43-1.09l1,3.65a19,19,0,0,0,7.33,10.38,1.3,1.3,0,0,0,2-1.25l-2.34-15.83,3.86,13.5a3.82,3.82,0,0,0,2.66,2.65,2.18,2.18,0,0,0,2.78-2.21l-.61-13.37.43,9.37,2.85-.87a5,5,0,0,0,3.3-6.45Z" transform="translate(0 1.27)" fill="#f1cdbe"/>
    <path id="Path_3208" data-name="Path 3208" d="M188.88,376.24a14.55,14.55,0,0,1,1.35-5l-.06-.16-5.88,15.41,11.23-.41-.42-.75h-.08a8.67,8.67,0,0,1-6.14-9.09Z" transform="translate(0 1.27)" fill="#e48c77" opacity="0.32"/>
    <path id="Path_3209" data-name="Path 3209" d="M227.6,391.31a.57.57,0,0,0,.28-.55l-.84-9.71a.58.58,0,1,0-1.15.1l.84,9.71a.59.59,0,0,0,.63.53.62.62,0,0,0,.24-.08Z" transform="translate(0 1.27)" fill="#e48c77"/>
    <path id="Path_3210" data-name="Path 3210" d="M219.69,382.76a.58.58,0,0,0-.43-1.06s-1.15.26-2.43.59a.58.58,0,0,0,.28,1.12c1.27-.32,2.41-.58,2.41-.58Z" transform="translate(0 1.27)" fill="#e48c77"/>
    <path id="Path_3211" data-name="Path 3211" d="M227.71,380.93a.58.58,0,0,0-.42-1.06s-1.15.26-2.43.59a.58.58,0,1,0,.28,1.12c1.27-.32,2.4-.58,2.41-.58Z" transform="translate(0 1.27)" fill="#e48c77"/>
    <path id="Path_3212" data-name="Path 3212" d="M210.37,385.65a.58.58,0,0,0,.26-.67,8.519,8.519,0,0,1-.25-2.09.58.58,0,0,0-1.16,0,9.82,9.82,0,0,0,.3,2.44.57.57,0,0,0,.72.38Z" transform="translate(0 1.27)" fill="#e48c77"/>
    <path id="Path_3213" data-name="Path 3213" d="M147.39,353.46l-15.65-.98,17.35-5.93" fill="#e48c77" opacity="0.32"/>
    <path id="Path_3214" data-name="Path 3214" d="M364.12,63.36h187.7a14.32,14.32,0,0,1,14.32,14.32V215.12H349.79V77.68a14.32,14.32,0,0,1,14.33-14.32Z" transform="translate(915.93 279.74) rotate(180)" fill="#fff"/>
    <path id="Path_3215" data-name="Path 3215" d="M354.59,48.79l115.59-.18a6.771,6.771,0,0,1,1.37.14l89.76-.14c2.94,0,5.34,1.83,5.34,4.1V64.82l-91.12-.24v.24l-126.27-.33V52.91C349.26,50.64,351.64,48.79,354.59,48.79Z" transform="translate(0 1.27)" fill="#e5918a"/>
    <path id="Path_3216" data-name="Path 3216" d="M557.29,59.58a2.425,2.425,0,0,1,0-4.85h0a2.425,2.425,0,0,1,0,4.85Zm0-4.35v.5a1.43,1.43,0,0,0-1,2.43,1.46,1.46,0,0,0,2,0,1.43,1.43,0,0,0-1-2.43Z" transform="translate(0 1.27)" fill="#fff"/>
    <path id="Path_3217" data-name="Path 3217" d="M547.55,59.59a2.42,2.42,0,0,1,0-4.84h0a2.42,2.42,0,0,1,0,4.84Zm0-4.34v.5a1.435,1.435,0,1,0,.03,0Z" transform="translate(0 1.27)" fill="#fff"/>
    <path id="Path_3218" data-name="Path 3218" d="M538,59.61a2.425,2.425,0,1,1,0-4.85h0a2.43,2.43,0,0,1,0,4.85Zm0-4.35v.5a1.43,1.43,0,1,0,1.42,1.42A1.43,1.43,0,0,0,538,55.76Z" transform="translate(0 1.27)" fill="#fff"/>
    <rect id="Rectangle_1268" data-name="Rectangle 1268" width="184.27" height="119.11" transform="translate(362.68 80.19)" fill="#f7ece4" opacity="0.81"/>
    <g id="Group_2264" data-name="Group 2264" opacity="0.65">
      <rect id="Rectangle_1269" data-name="Rectangle 1269" width="32.27" height="32.27" transform="translate(466.25 95.24)" fill="#fff"/>
      <g id="Group_2263" data-name="Group 2263" opacity="0.81">
        <rect id="Rectangle_1270" data-name="Rectangle 1270" width="20.21" height="20.21" transform="translate(472.28 101.27)" fill="#ecf1f7"/>
      </g>
      <path id="Path_3219" data-name="Path 3219" d="M506.7,84.76v19.61h19.61V84.76Zm15,15H511.34V89.4h10.33Z" transform="translate(0 1.27)" fill="#fff"/>
      <path id="Path_3220" data-name="Path 3220" d="M479.48,132.86v20.41h20.4V132.86Zm15.78,15.79H484.1V137.48h11.16Z" transform="translate(0 1.27)" fill="#fff"/>
      <path id="Path_3221" data-name="Path 3221" d="M509,112v46.9h30.12V112Zm26.18,40.77H513V118.09h22.24Z" transform="translate(0 1.27)" fill="#fff"/>
    </g>
    <path id="Path_3222" data-name="Path 3222" d="M423.16,130.7l26.91-4.85c12.65-2.29,29-8.75,40.8-2,6.54,3.74,11.4,9.81,15.64,16C522,162.6,528.86,189,537.7,214.62c0,0-150.91,3.2-152.1-.28a22.87,22.87,0,0,1-.71-12.24l7.58-35.2C388.44,144.27,399.56,135,423.16,130.7Z" transform="translate(0 1.27)" fill="#9d9dd9"/>
    <path id="Path_3223" data-name="Path 3223" d="M500.76,216.59l-14.35-53.06,6.41,52.71Z" fill="#8585c1"/>
    <path id="Path_3224" data-name="Path 3224" d="M522.63,194.6l-12.07,3.12a6.65,6.65,0,0,0-4.6,4.22l-4.35,12.28a4.57,4.57,0,0,0,3,5.91l2.63.76.32-8.59-.46,12.26a2,2,0,0,0,2.59,2h0a3.56,3.56,0,0,0,2.42-2.47l3.44-12.42-2,14.54a1.19,1.19,0,0,0,1.88,1.12h0a17.49,17.49,0,0,0,6.66-9.61l.92-3.36a19.85,19.85,0,0,0,14,.25,7.67,7.67,0,0,0,5-7.85C541.58,201.29,538.18,193.77,522.63,194.6Z" transform="translate(0 1.27)" fill="#b16e5f"/>
    <path id="Path_3225" data-name="Path 3225" d="M506.48,220.69a.54.54,0,0,1-.26-.5l.7-8.91a.54.54,0,0,1,.57-.49.52.52,0,0,1,.49.57l-.69,8.91a.54.54,0,0,1-.58.49.62.62,0,0,1-.23-.07Z" transform="translate(0 1.27)" fill="#955045"/>
    <path id="Path_3226" data-name="Path 3226" d="M513.7,212.76a.53.53,0,0,1-.25-.57.54.54,0,0,1,.64-.41s1,.23,2.23.51a.52.52,0,0,1,.4.64.54.54,0,0,1-.65.39l-2.22-.5a.47.47,0,0,1-.15-.06Z" transform="translate(0 1.27)" fill="#955045"/>
    <path id="Path_3227" data-name="Path 3227" d="M506.3,211.18a.52.52,0,0,1-.25-.57.53.53,0,0,1,.63-.41s1.06.23,2.24.51a.53.53,0,1,1-.25,1l-2.22-.5Z" transform="translate(0 1.27)" fill="#955045"/>
    <path id="Path_3228" data-name="Path 3228" d="M522.29,215.29a.54.54,0,0,1-.24-.61,7.52,7.52,0,0,0,.22-1.91.53.53,0,0,1,1.06,0,8.662,8.662,0,0,1-.25,2.24.55.55,0,0,1-.67.36Z" transform="translate(0 1.27)" fill="#955045"/>
    <path id="Path_3229" data-name="Path 3229" d="M393,164.29s-3.48-9.9-5.91-15.76a12.45,12.45,0,0,0-3.09-8.09l-.64-.74-2-2.23a10.23,10.23,0,0,1-2.18-8.35c1-4.89-8.1-3.17-7.66,3.84s-.73,7.52-.73,7.52-.26.51-1.5,1l-5.89,1.08a28.45,28.45,0,0,0-6,1.1l-16.77,3.06a1.67,1.67,0,0,0-1.12,2.46l.92,1.6a4.34,4.34,0,0,0,4,2.16l10.32-.59a3.54,3.54,0,0,0-1.71,4.23l.19.57a3.48,3.48,0,0,0,4.39,2.22l5.6-1.83-4.07,1.33a2.92,2.92,0,0,0-1.86,3.69l.14.43a4,4,0,0,0,5,2.53l2.95-1-1.13.37a1.26,1.26,0,0,0-.81,1.58,4.32,4.32,0,0,0,5.45,2.76l1.41-.46.6,2.77Z" transform="translate(0 1.27)" fill="#b16e5f"/>
    <path id="Path_3230" data-name="Path 3230" d="M354.73,152.88a.49.49,0,0,1-.49-.41.48.48,0,0,1,.39-.58l8.65-1.69a.51.51,0,0,1,.59.4.5.5,0,0,1-.4.58l-8.65,1.69Z" transform="translate(0 1.27)" fill="#955045"/>
    <path id="Path_3231" data-name="Path 3231" d="M358.52,159.66a.5.5,0,0,1-.11-1l6.53-1.5a.5.5,0,0,1,.23.98l-6.53,1.5Z" transform="translate(0 1.27)" fill="#955045"/>
    <path id="Path_3232" data-name="Path 3232" d="M367.92,176.75l3.27,32.14a7,7,0,0,0,6.8,6.29c11.59.26,35.44.73,35.29.18-.72-2.69-1.41-5.19-2-7.38l-6.8-26.52c-.92-3.6-2.57-10.44-4-16.38a7,7,0,0,0-9.9-4.62l-18.82,9.31A7,7,0,0,0,367.92,176.75Z" transform="translate(0 1.27)" fill="#8585c1"/>
    <path id="Path_3233" data-name="Path 3233" d="M366.12,177.56l3.2,31.51a6.86,6.86,0,0,0,6.67,6.16c11.36.26,34.74.72,34.6.18-.71-2.63-1.39-5.08-1.94-7.23l-6.66-26c-.9-3.52-2.51-10.23-3.93-16a6.86,6.86,0,0,0-9.71-4.53l-18.45,9.13a6.87,6.87,0,0,0-3.78,6.78Z" transform="translate(0 1.27)" fill="#9d9dd9"/>
    <path id="Path_3234" data-name="Path 3234" d="M463.59,82l-2.47-17.74c0-5.37-.51-9.7-2-11.67a34.88,34.88,0,0,0-64.07,23.07L396.14,84a20.89,20.89,0,0,0,1.16,4.64l-4.39,13.83c-2.85,13.38,7.95,21.06,14.41,21.53,9,.66,11.61,7.17,13.77,11.68.73-.16,1.46-.31,2.19-.44l23.77-16.75c.4,0,1.76-20,1.76-20a19.41,19.41,0,0,0,6.29-2c0,1-.11,2-.21,3-1.11,10.35.81,4.84,2.8-5.53A11.87,11.87,0,0,0,463.59,82Z" transform="translate(0 1.27)" fill="#33002b"/>
    <path id="Path_3235" data-name="Path 3235" d="M457.47,97.77l-.19-1.4,3.89-.54A7.81,7.81,0,0,0,467.82,87l-.21-1.51a7.81,7.81,0,0,0-8.81-6.66l-3.87.54-1,1.4V75.88C425.24,78.45,410.69,67,410.69,67v.44c.11,5.93-2.25,12.66-4.08,17l2.53,18.18A22.58,22.58,0,0,0,423,120.36c.6.25,1.21.47,1.83.67a22.633,22.633,0,0,0,2.63,1.13l.72,7c.81,7.73,8.48,13.32,17.05,12.42s14.93-7.95,14.12-15.67l-.11-1.06-2-19.4a22.62,22.62,0,0,0,.23-7.68Z" transform="translate(0 1.27)" fill="#b16e5f"/>
    <path id="Path_3236" data-name="Path 3236" d="M461.53,90a.6.6,0,0,1-.28-.08l-2.7-1.79,2.68-4.09a.5.5,0,0,1,.69-.15.51.51,0,0,1,.15.7l-2.14,3.26,1.88,1.23a.51.51,0,0,1,.14.7A.52.52,0,0,1,461.53,90Z" transform="translate(0 1.27)" fill="#955045"/>
    <path id="Path_3237" data-name="Path 3237" d="M426.94,111a.49.49,0,0,1-.36-.84,4.43,4.43,0,0,1,5-1,.5.5,0,0,1-.41.91,3.46,3.46,0,0,0-3.83.75.49.49,0,0,1-.4.18Z" transform="translate(0 1.27)" fill="#955045" opacity="0.57"/>
    <path id="Path_3238" data-name="Path 3238" d="M439.54,82.32a5.12,5.12,0,0,1-2.25.05c-2.3-.19-1.6-.15-2.3-.19a19.758,19.758,0,0,0-2.31,0,5.31,5.31,0,0,1-2.23-.28c-.59-.29-.8-1-.05-1.91a6.14,6.14,0,0,1,4.82-1.62,6.06,6.06,0,0,1,4.59,2.09C440.45,81.37,440.16,82.09,439.54,82.32Z" transform="translate(0 1.27)" fill="#33002b"/>
    <path id="Path_3239" data-name="Path 3239" d="M410.67,87a5.3,5.3,0,0,0,2.2-.44c.76-.27,1.53-.51,2.2-.7s1.46-.38,2.24-.55a5.09,5.09,0,0,0,2.11-.76c.51-.41.55-1.19-.38-1.88a6.16,6.16,0,0,0-5.06-.51,6,6,0,0,0-4,3C409.56,86.3,410,86.94,410.67,87Z" transform="translate(0 1.27)" fill="#33002b"/>
    <path id="Path_3240" data-name="Path 3240" d="M433,89.4a.5.5,0,0,1-.29-.91,4.2,4.2,0,0,1,4.14-.55.5.5,0,1,1-.44.9,3.25,3.25,0,0,0-3.13.47A.47.47,0,0,1,433,89.4Z" transform="translate(0 1.27)" fill="#33002b"/>
    <path id="Path_3241" data-name="Path 3241" d="M415.53,90.64a1.71,1.71,0,1,0,2.14-1.12A1.71,1.71,0,0,0,415.53,90.64Z" transform="translate(0 1.27)" fill="#33002b"/>
    <path id="Path_3242" data-name="Path 3242" d="M415.63,94a.5.5,0,0,1-.29-.91,4.22,4.22,0,0,1,4.15-.55.5.5,0,1,1-.44.9,3.23,3.23,0,0,0-3.14.47A.47.47,0,0,1,415.63,94Z" transform="translate(0 1.27)" fill="#955045"/>
    <path id="Path_3243" data-name="Path 3243" d="M439.66,94.91a37.679,37.679,0,0,1-6.89,5.08c-3.64,2,.82,6.45,6.44,3.72S442.58,93.11,439.66,94.91Z" transform="translate(0 1.27)" fill="#fff"/>
    <path id="Path_3244" data-name="Path 3244" d="M425.91,99.11a3.48,3.48,0,0,1-3.43-3l-.2-1.38a2.11,2.11,0,0,1,1.78-2.39l.44-.06-.91-6.3a.5.5,0,1,1,1-.14l1.06,7.28-1.44.21a1.106,1.106,0,0,0-.93,1.25l.2,1.38a2.47,2.47,0,0,0,2.81,2.09l2.73-.4a.51.51,0,0,1,.57.42.5.5,0,0,1-.42.57l-2.74.4a2.919,2.919,0,0,1-.52.07Z" transform="translate(0 1.27)" fill="#955045"/>
    <path id="Path_3245" data-name="Path 3245" d="M434.65,121.82h0a22.58,22.58,0,0,1-9.76-.78,22.2,22.2,0,0,0,2.6,1.13A11.09,11.09,0,0,0,448.64,119a22.59,22.59,0,0,0,8.83-21.21l-.19-1.4-3.32.46a22.59,22.59,0,0,1-19.31,24.97Z" transform="translate(0 1.27)" fill="#955045" opacity="0.55"/>
    <path id="Path_3246" data-name="Path 3246" d="M426,127.3l18.52,11a2.17,2.17,0,0,1,1,3L439.55,152a3.56,3.56,0,0,1-5.29.69l-16-14.84a2.43,2.43,0,0,1-.49-.87,6.36,6.36,0,0,1,1.74-6.93l1.66-1.63A3.59,3.59,0,0,1,426,127.3Z" transform="translate(0 1.27)" fill="#8585c1"/>
    <path id="Path_3247" data-name="Path 3247" d="M459.25,123l-13.84,15.14a2.12,2.12,0,0,0,.12,3.09L455,150a3.54,3.54,0,0,0,5.28-.67l10.09-18.23a2.29,2.29,0,0,0,.17-1,7.26,7.26,0,0,0-4.42-6.38l-1.84-.9a3.67,3.67,0,0,0-5.03.18Z" transform="translate(0 1.27)" fill="#8585c1"/>
    <path id="Path_3248" data-name="Path 3248" d="M435.62,150.22a2.44,2.44,0,0,1-2.49-1.84,1.94,1.94,0,0,1,.36-1.52,2.61,2.61,0,0,1,1.78-1,2.51,2.51,0,0,1,2.87,1.82h0a1.91,1.91,0,0,1-.37,1.52,2.6,2.6,0,0,1-1.77,1A2.42,2.42,0,0,1,435.62,150.22Zm0-3.39h-.24a1.59,1.59,0,0,0-1.1.6,1,1,0,0,0-.19.75,1.55,1.55,0,0,0,1.76,1,1.63,1.63,0,0,0,1.1-.6,1,1,0,0,0,.19-.75,1.49,1.49,0,0,0-1.5-1Z" transform="translate(0 1.27)" fill="#dfe0fc"/>
    <path id="Path_3249" data-name="Path 3249" d="M440.68,161.94a.49.49,0,0,1-.49-.41L439,154.79a1.28,1.28,0,0,0-1-.2c-.89.11-1.63-.26-1.74-.86l-1-5.62a.5.5,0,0,1,.4-.58.49.49,0,0,1,.58.4l1,5.62a2.27,2.27,0,0,0,.44.06h.19c1.1-.14,2,.29,2.15,1l1.21,6.74a.5.5,0,0,1-.4.58Z" transform="translate(0 1.27)" fill="#dfe0fc"/>
    <path id="Path_3250" data-name="Path 3250" d="M457.52,147.39a2.45,2.45,0,0,1-2.5-1.84h0a2,2,0,0,1,.37-1.52,2.58,2.58,0,0,1,1.77-1,2.5,2.5,0,0,1,2.87,1.83,2,2,0,0,1-.36,1.52,2.63,2.63,0,0,1-1.78,1Zm0-3.39h-.25a1.59,1.59,0,0,0-1.1.6,1,1,0,0,0-.18.75h0a1.51,1.51,0,0,0,1.75,1,1.54,1.54,0,0,0,1.1-.59,1,1,0,0,0,.19-.76,1.47,1.47,0,0,0-1.49-1Z" transform="translate(0 1.27)" fill="#dfe0fc"/>
    <path id="Path_3251" data-name="Path 3251" d="M457.42,159.78a.51.51,0,0,1-.49-.42l-1.21-6.74a1,1,0,0,1,.2-.79,2.21,2.21,0,0,1,1.53-.77.88.88,0,0,0,.56-.24l-1-5.53a.5.5,0,0,1,.4-.58.49.49,0,0,1,.58.4l1,5.62a.87.87,0,0,1-.17.69,1.85,1.85,0,0,1-1.23.63,1.18,1.18,0,0,0-.88.41l1.22,6.73a.51.51,0,0,1-.41.58Z" transform="translate(0 1.27)" fill="#dfe0fc"/>
    <path id="Path_3252" data-name="Path 3252" d="M488.69,105.59,478.42,90.47a26.559,26.559,0,0,0-.28-6L476.42,74a44,44,0,0,0-50.5-36.25c-17.4,2.86-15.11,35.63-15.22,29.7v-.44s14.55,11.48,43.16,8.92v4.89l1-1.4,3.87-.54a7.81,7.81,0,0,1,8.81,6.66l.21,1.51a7.81,7.81,0,0,1-6.65,8.82l-3.89.54.19,1.4a22.621,22.621,0,0,1-.23,7.63l1.52,14.65a32.832,32.832,0,0,1-.38,9.44h0a29.64,29.64,0,0,0,6.92,25.17h0a3.37,3.37,0,0,0,5.92-2.18c.05-6.26,1-13.13,7.83-15.71C486.7,133.9,497,120.72,488.69,105.59Z" transform="translate(0 1.27)" fill="#33002b"/>
    <path id="Path_3253" data-name="Path 3253" d="M608,243.21H598a5.11,5.11,0,0,1,5.08,5.58v.22L586,426.63H473a7.28,7.28,0,0,1,7.28,7.28v13.76h121.2V433.91a7.26,7.26,0,0,0-5.5-7.05L613,249v-.22a5.11,5.11,0,0,0-5-5.57Z" transform="translate(0 1.27)" fill="#81808e"/>
    <path id="Path_3254" data-name="Path 3254" d="M473.07,426.63H218.34a6.68,6.68,0,0,0-6.68,6.69v14.35H480.35V433.91a7.28,7.28,0,0,0-7.28-7.28Z" transform="translate(0 1.27)" fill="#b4bcc9"/>
    <path id="Path_3255" data-name="Path 3255" d="M603,249v-.22a5.11,5.11,0,0,0-5.08-5.58H333.61a5.1,5.1,0,0,0-5.08,4.61l-17,178.81H586Z" transform="translate(0 1.27)" fill="#d3d6dd"/>
    <path id="Path_3256" data-name="Path 3256" d="M384.75,438.15H319.8a4.29,4.29,0,0,1-4.29-4.29v-7.23h2v7.23a2.3,2.3,0,0,0,2.29,2.29h64.95a2.3,2.3,0,0,0,2.3-2.29v-7.23h2v7.23a4.3,4.3,0,0,1-4.3,4.29Z" transform="translate(0 1.27)" fill="#ecf1f7"/>
    <path id="Path_3257" data-name="Path 3257" d="M585,441.62a4.73,4.73,0,1,1,4.73-4.73,4.73,4.73,0,0,1-4.73,4.73Zm0-7.46a2.73,2.73,0,1,0,2.73,2.73,2.73,2.73,0,0,0-2.73-2.73Z" transform="translate(0 1.27)" fill="#ecf1f7"/>
    <path id="Path_3258" data-name="Path 3258" d="M571.39,413.4H329.2a2.86,2.86,0,0,1-2.92-3.08L340.69,265.8a2.89,2.89,0,0,1,2.92-2.54H585.8a2.85,2.85,0,0,1,2.92,3.07L574.31,410.85a2.89,2.89,0,0,1-2.92,2.55Z" transform="translate(0 1.27)" fill="#fff"/>
    <path id="Path_3259" data-name="Path 3259" d="M339.2,278.39l248.35.66,1.4-12.93c.16-1.49-1.3-2.76-3.15-2.75l-241-.34c-2.32,0-4.13.9-4.13,2.77Z" transform="translate(0 1.27)" fill="#e5918a"/>
    <path id="Path_3260" data-name="Path 3260" d="M588,279.55h-.45l-248.91-.66,1.55-13.15a2.81,2.81,0,0,1,1.43-2.45,6.07,6.07,0,0,1,3.19-.76h0l241,.34h0a3.91,3.91,0,0,1,2.91,1.21,2.67,2.67,0,0,1,.71,2.09Zm-248.24-1.66,247.34.66,1.36-12.49a1.71,1.71,0,0,0-.46-1.31,3,3,0,0,0-2.18-.88h0l-241-.34h0a5.15,5.15,0,0,0-2.67.61,1.86,1.86,0,0,0-.95,1.66Z" transform="translate(0 1.27)" fill="#e5918a"/>
    <path id="Path_3261" data-name="Path 3261" d="M576.05,273.94a2.49,2.49,0,1,1,2.48-2.48A2.49,2.49,0,0,1,576.05,273.94Zm0-4.22a1.74,1.74,0,1,0,1.73,1.74,1.74,1.74,0,0,0-1.73-1.74Z" transform="translate(0 1.27)" fill="#ecf1f7"/>
    <path id="Path_3262" data-name="Path 3262" d="M568.21,273.94a2.49,2.49,0,1,1,2.48-2.48A2.49,2.49,0,0,1,568.21,273.94Zm0-4.22a1.74,1.74,0,1,0,1.73,1.74,1.74,1.74,0,0,0-1.73-1.74Z" transform="translate(0 1.27)" fill="#ecf1f7"/>
    <path id="Path_3263" data-name="Path 3263" d="M561,273.94a2.48,2.48,0,1,1,1.76-.723A2.49,2.49,0,0,1,561,273.94Zm0-4.22a1.74,1.74,0,1,0,1.74,1.74A1.74,1.74,0,0,0,561,269.72Z" transform="translate(0 1.27)" fill="#ecf1f7"/>
    <path id="Path_3264" data-name="Path 3264" d="M576.67,290.61,571.44,292a.22.22,0,0,0-.16.22v-2.76a1.76,1.76,0,0,0-1.76-1.76H553.74a1.76,1.76,0,0,0-1.76,1.76v11.61a1.76,1.76,0,0,0,1.76,1.76h15.78a1.76,1.76,0,0,0,1.76-1.76v-2.76a.21.21,0,0,0,.16.21l5.23,1.4a.22.22,0,0,0,.28-.22v-8.87a.22.22,0,0,0-.28-.22Z" transform="translate(0 1.27)" fill="#9d9dd9"/>
    <path id="Path_3265" data-name="Path 3265" d="M552.48,249.53H532.3a2.39,2.39,0,0,0-1.71.73l-5,5.21a.94.94,0,0,1-1.61-.65V227.09A5.06,5.06,0,0,1,529,222h24.26a4.12,4.12,0,0,1,4.12,4.12v18.46a4.92,4.92,0,0,1-4.9,4.95Z" transform="translate(0 1.27)" fill="#b7d0f9"/>
    <path id="Path_3266" data-name="Path 3266" d="M534.6,236.39a1.73,1.73,0,1,1-1.72-1.72,1.73,1.73,0,0,1,1.72,1.72Z" transform="translate(0 1.27)" fill="#fff"/>
    <path id="Path_3267" data-name="Path 3267" d="M542.7,236.39a1.72,1.72,0,1,1-.507-1.22,1.73,1.73,0,0,1,.507,1.22Z" transform="translate(0 1.27)" fill="#fff"/>
    <path id="Path_3268" data-name="Path 3268" d="M551,236.39a1.72,1.72,0,1,1-.507-1.22,1.73,1.73,0,0,1,.507,1.22Z" transform="translate(0 1.27)" fill="#fff"/>
    <path id="Path_3269" data-name="Path 3269" d="M558.71,389.2l-7.86-31.64h0l-.11-.33-.38-1.54-.15-.13L525.67,278.9c-2-12-14.5-21.25-29.64-21.25H437.08c-26.15,0-47.36,17.43-47.36,38.92l2.42,116.84H526.42l16.78-.32a19.54,19.54,0,0,0,15.51-23.89Z" transform="translate(0 1.27)" fill="#3b3348"/>
    <path id="Path_3270" data-name="Path 3270" d="M452.28,288.54l8-.18c11-.24,19.83-7.9,19.62-17.09l-.28-12.55a4,4,0,0,0-4.05-3.86l-40.09.91a4,4,0,0,0-3.86,4l.28,12.55C432.12,281.55,441.24,288.79,452.28,288.54Z" transform="translate(0 1.27)" fill="#292433" opacity="0.61"/>
    <path id="Path_3271" data-name="Path 3271" d="M490.67,313.06l-3.91.36,20.35,56.35-62.17,18,6.76.88,61.66-14.84Z" fill="#292433" opacity="0.61"/>
    <path id="Path_3272" data-name="Path 3272" d="M445.82,387.56l-16,1.81a8.54,8.54,0,0,0-6.63,4.55l-7.78,14.91a5.89,5.89,0,0,0,2.8,8.1l3.22,1.45,2-10.92L420.6,423a2.6,2.6,0,0,0,2.95,3h0a4.59,4.59,0,0,0,3.54-2.71l6.64-15.25-5.22,18.21a1.54,1.54,0,0,0,2.21,1.77h0A22.57,22.57,0,0,0,441,417l1.77-4.13a25.62,25.62,0,0,0,21.18,1.89,6.27,6.27,0,0,0,4-4.57C469.35,403.69,469.62,389.63,445.82,387.56Z" transform="translate(0 1.27)" fill="#e8a396"/>
    <path id="Path_3273" data-name="Path 3273" d="M420.48,418a.67.67,0,0,1-.25-.69l2.5-11.26a.69.69,0,1,1,1.34.29l-2.5,11.26a.69.69,0,0,1-.82.53.749.749,0,0,1-.27-.13Z" transform="translate(0 1.27)" fill="#e48c77"/>
    <path id="Path_3274" data-name="Path 3274" d="M431.13,409.15a.68.68,0,0,1-.22-.78.69.69,0,0,1,.89-.4s1.31.48,2.77,1a.68.68,0,0,1,.38.89.7.7,0,0,1-.89.39c-1.44-.57-2.74-1.05-2.75-1.05a.64.64,0,0,1-.18-.05Z" transform="translate(0 1.27)" fill="#e48c77"/>
    <path id="Path_3275" data-name="Path 3275" d="M422,405.79a.67.67,0,0,1-.22-.77.69.69,0,0,1,.89-.41s1.31.49,2.76,1.06a.682.682,0,0,1-.5,1.27c-1.45-.56-2.75-1-2.75-1a.54.54,0,0,1-.18-.15Z" transform="translate(0 1.27)" fill="#e48c77"/>
    <path id="Path_3276" data-name="Path 3276" d="M441.65,413.94a.69.69,0,0,1-.2-.82,9.612,9.612,0,0,0,.62-2.41.7.7,0,0,1,.77-.61.68.68,0,0,1,.6.76,11.4,11.4,0,0,1-.73,2.82.69.69,0,0,1-.91.34Z" transform="translate(0 1.27)" fill="#e48c77"/>
    <path id="Path_3277" data-name="Path 3277" d="M495.32,190.81a16.51,16.51,0,0,0-8.82-10.47c-3.84-10.9-13.29-12.05-13.29-12.05h0c-3.27-8.27-12.53-19.14-25.36-20.26-9.34-.81-14,3.14-17,4.28-7.25-4.06-14.39-4.26-19.6,1.3-7.64,8.17-4.54,15.55-2.52,18.7a23.133,23.133,0,0,0,2.93,4.27,13.78,13.78,0,0,0,3,4.63,15.55,15.55,0,0,0-.65,2.85l-.73,5.8A15.86,15.86,0,0,0,427,207.59h0a15.87,15.87,0,0,0,17.72-13.74l.73-5.8a3.686,3.686,0,0,1,.06-.81,11.18,11.18,0,0,0,8.56-5.82h7.56a59,59,0,0,0,3.27,16.72,10.43,10.43,0,0,1,7.45-2.13l2,.2a8.14,8.14,0,0,0,14.2,5.46,10.26,10.26,0,0,1,1.56,6.56h0a10.4,10.4,0,0,1-11.43,9.24l-2.23-.23-2.31-.23.13,12.87s.36-.26,1-.75C480,225.42,500.7,207.92,495.32,190.81Z" transform="translate(0 1.27)" fill="#33002b"/>
    <path id="Path_3278" data-name="Path 3278" d="M476.4,217.28l2.23.23a10.4,10.4,0,0,0,11.43-9.24h0a10.38,10.38,0,0,0-9.3-11.36l-2.09-.21h-.06l-2.26,20.59Z" transform="translate(0 1.27)" fill="none"/>
    <path id="Path_3279" data-name="Path 3279" d="M480.76,196.91l-2.09-.21h-.06l-3.28-.33-3-.31a10.43,10.43,0,0,0-7.45,2.13,59,59,0,0,1-3.27-16.72h-7.56a11.25,11.25,0,0,1-17.05,3.3,11.489,11.489,0,0,1-2.3-2.6l-1.34-.07a13.87,13.87,0,0,1-12.75,2.68l-3.42,33a29.917,29.917,0,0,0-.13,3.4l-.13,1.18c-.08.77-.13,1.54-.15,2.3v2.25a9.025,9.025,0,0,0,.13,1.13c.04.38.07.73.12,1.09s.17.85.26,1.27.11.59.18.89c.12.47.27.94.41,1.4.07.23.13.46.21.69.17.51.38,1,.58,1.51.07.18.13.35.21.52.23.54.5,1.07.77,1.59.06.12.11.24.18.36a17.678,17.678,0,0,0,1,1.65,1.592,1.592,0,0,1,.13.22c.38.57.77,1.13,1.19,1.67a.606.606,0,0,0,.07.1c.44.57.9,1.12,1.38,1.66h0a29.271,29.271,0,0,0,11.05,7.6l.32,14A19.21,19.21,0,0,0,454.63,283l2.56-.05A19.22,19.22,0,0,0,476,263.34l-.78-34.17-.16.14-.81.61-.13-12.87,2.31.23,2.23.23a10.4,10.4,0,0,0,11.43-9.24h0a10.38,10.38,0,0,0-9.33-11.36Z" transform="translate(0 1.27)" fill="#e8a396"/>
    <path id="Path_3280" data-name="Path 3280" d="M474.09,217.05l2.31.23-3.2-.32-.67,6.5A27.83,27.83,0,0,1,417,221.21l-.13,1.18c-.08.77-.13,1.54-.15,2.3v2.25a9.025,9.025,0,0,0,.13,1.13c.04.38.07.73.12,1.09s.17.85.26,1.27.11.59.18.89c.12.47.27.94.41,1.4.07.23.13.46.21.69.17.51.38,1,.58,1.51.07.18.13.35.21.52.23.54.5,1.07.77,1.59.06.12.11.24.18.36a17.678,17.678,0,0,0,1,1.65,1.586,1.586,0,0,1,.13.22c.38.57.77,1.13,1.19,1.67a.608.608,0,0,0,.07.1c.44.57.9,1.12,1.38,1.66h0a29.27,29.27,0,0,0,11.05,7.6h0l.48.2v.7c0,5.71,5.22,10.35,11.65,10.35s11.65-4.64,11.65-10.35a9.89,9.89,0,0,0-.09-1.23A27.62,27.62,0,0,0,475,229.31l-.81.61Z" transform="translate(0 1.27)" fill="#e48c77" opacity="0.46"/>
    <path id="Path_3281" data-name="Path 3281" d="M416.78,225.56v-.87A8.413,8.413,0,0,0,416.78,225.56Z" transform="translate(0 1.27)" fill="#e48c77" opacity="0.46"/>
    <path id="Path_3282" data-name="Path 3282" d="M416.94,228.07c0-.38-.1-.75-.13-1.13C416.84,227.32,416.9,227.69,416.94,228.07Z" transform="translate(0 1.27)" fill="#e48c77" opacity="0.46"/>
    <ellipse id="Ellipse_307" data-name="Ellipse 307" cx="1.7" cy="1.69" rx="1.7" ry="1.69" transform="translate(440.29 205.85)" fill="#211f20"/>
    <path id="Path_3283" data-name="Path 3283" d="M421.81,205a1.69,1.69,0,1,0,.6-1.153,1.7,1.7,0,0,0-.6,1.153Z" transform="translate(0 1.27)" fill="#211f20"/>
    <path id="Path_3284" data-name="Path 3284" d="M433.68,236.51a.47.47,0,0,1-.39-.19,4.12,4.12,0,0,0-4.41-1.38.49.49,0,0,1-.63-.31.5.5,0,0,1,.31-.64,5.21,5.21,0,0,1,5.52,1.72.51.51,0,0,1-.09.7A.5.5,0,0,1,433.68,236.51Z" transform="translate(0 1.27)" fill="#e2806d"/>
    <path id="Path_3285" data-name="Path 3285" d="M441.35,197.5a7.42,7.42,0,0,0,2.77,1.23c1,.3,2.07.64,2.95,1s1.9.72,2.89,1.15a7.36,7.36,0,0,0,2.92.81c.88,0,1.53-.85,1-2.3a8.451,8.451,0,0,0-5.16-4.47c-2.94-1.07-5.56-.65-6.78.16S440.69,196.9,441.35,197.5Z" transform="translate(0 1.27)" fill="#33002b"/>
    <path id="Path_3286" data-name="Path 3286" d="M417.43,196.42a7.43,7.43,0,0,0,3,.35h3.11c.94,0,2,.13,3.11.24a7.2,7.2,0,0,0,3-.09c.83-.31,1.2-1.27.3-2.51s-3.16-2.58-6.28-2.72-5.5,1-6.42,2.17S416.62,196,417.43,196.42Z" transform="translate(0 1.27)" fill="#33002b"/>
    <path id="Path_3287" data-name="Path 3287" d="M482.71,211.13a.55.55,0,0,1-.25-.07l-3.74-2.18,3.43-5.64a.48.48,0,0,1,.68-.17.49.49,0,0,1,.17.68l-2.9,4.78,2.86,1.66a.51.51,0,0,1,.18.69.5.5,0,0,1-.43.25Z" transform="translate(0 1.27)" fill="#e2806d"/>
    <path id="Path_3288" data-name="Path 3288" d="M435.11,218.18h-.41a5.78,5.78,0,0,1-4.72-2.34,3.68,3.68,0,0,1-.41-3.44l4.16-11a.5.5,0,0,1,.65-.29.49.49,0,0,1,.29.64l-4.17,11a2.73,2.73,0,0,0,.31,2.53,4.83,4.83,0,0,0,3.92,1.89,16.789,16.789,0,0,0,3.13-.23.5.5,0,0,1,.57.41.49.49,0,0,1-.41.57,18,18,0,0,1-2.91.26Z" transform="translate(0 1.27)" fill="#e2806d"/>
    <path id="Path_3289" data-name="Path 3289" d="M440.27,225.9a12.49,12.49,0,0,1-6.71-2.27.5.5,0,0,1-.15-.69.51.51,0,0,1,.69-.15c2.85,1.84,5.52,2.48,7.93,1.9A8.75,8.75,0,0,0,447.1,221a.5.5,0,0,1,.86.5,9.64,9.64,0,0,1-5.69,4.16A9,9,0,0,1,440.27,225.9Z" transform="translate(0 1.27)" fill="#e2806d"/>
    <path id="Path_3290" data-name="Path 3290" d="M439.87,209.17a.5.5,0,0,1-.3-.9c2.18-1.59,4-.67,4.59,0a.5.5,0,1,1-.74.67c-.13-.14-1.31-1.31-3.26.11A.52.52,0,0,1,439.87,209.17Z" transform="translate(0 1.27)" fill="#e2806d"/>
    <path id="Path_3291" data-name="Path 3291" d="M421.17,207.88a.5.5,0,0,1-.29-.9c2.17-1.58,3.95-.67,4.59,0a.5.5,0,1,1-.74.68h0c-.13-.14-1.32-1.32-3.27.1A.52.52,0,0,1,421.17,207.88Z" transform="translate(0 1.27)" fill="#e2806d"/>
    <path id="Path_3292" data-name="Path 3292" d="M413.7,264.53a.9.9,0,0,0,.9-.91v-1.54c0-.68,1-1.45,2.42-1.45h.83c2.09,0,3.73-1.27,3.73-2.9v-.86c0-1.6-1.61-2.86-3.66-2.86H416.7c-1.23,0-2.1-.64-2.1-1.22,0-1,1.37-1.86,3-1.86h5.53a.91.91,0,0,0,0-1.82H417.6c-2.7,0-4.81,1.62-4.81,3.68,0,1.7,1.72,3,3.91,3h1.22c1.05,0,1.84.55,1.84,1v.86c0,.51,1-.47-1.91,1.09H417c-2.37,0-4.23,1.43-4.23,3.26v1.54a.9.9,0,0,0,.93.99Z" transform="translate(0 1.27)" fill="#fff"/>
    <path id="Path_3293" data-name="Path 3293" d="M404.65,264.77a.91.91,0,0,0,.91-.91v-.93c0-.18.43-.52,1.1-.52h.51a2.38,2.38,0,0,0,2.61-2.11v-.52a2.35,2.35,0,0,0-2.58-2.09h-.73c-.58,0-.91-.29-.91-.38,0-.31.57-.77,1.45-.77h3.35a.91.91,0,1,0,0-1.81H407c-1.83,0-3.27,1.13-3.27,2.58a2.48,2.48,0,0,0,2.73,2.2h.73a.91.91,0,0,1,.76.28v.51a1,1,0,0,1-.79.3h-.51c-1.63,0-2.92,1-2.92,2.33v.93a.91.91,0,0,0,.92.91Z" transform="translate(0 1.27)" fill="#fff"/>
    <path id="Path_3294" data-name="Path 3294" d="M425,309.8H403a10.13,10.13,0,0,1-10.13-10.14v7.43A10.13,10.13,0,0,0,403,317.22h22a10.14,10.14,0,0,0,10.13-10.13v-7.43A10.14,10.14,0,0,1,425,309.8Z" transform="translate(0 1.27)" fill="#99b4dd"/>
    <path id="Path_3295" data-name="Path 3295" d="M429.09,267.56H400.58a7.7,7.7,0,0,0-7.7,7.7v24.4A10.13,10.13,0,0,0,403,309.8h22a10.14,10.14,0,0,0,10.13-10.14V273.58a6,6,0,0,0-6.04-6.02Z" transform="translate(0 1.27)" fill="#b7d0f9"/>
    <path id="Path_3296" data-name="Path 3296" d="M365.18,415.67a52.59,52.59,0,0,0,10.57,1c4.69.07,9.53-.1,13.78-2.07a19.2,19.2,0,0,0,9.71-11.18c1.87-5.31,1-10.67.73-16.16-.16-3.42-.43-6.84-.65-10.25q-.85-13.2-1.69-26.38-1.45-22.83-2.92-45.66c0-.18-.2-3.67-.24-3.67l-29.2.06-6.57,28.4q-5.19,22.38-10.36,44.77c-.71,3.06-1.47,6.12-2.15,9.18-2.58,11.59,2.69,25.21,13.92,30.31A25.278,25.278,0,0,0,365.18,415.67Z" transform="translate(0 1.27)" fill="#292433" opacity="0.61"/>
    <path id="Path_3297" data-name="Path 3297" d="M361.89,415.67a52.559,52.559,0,0,0,10.56,1c4.69.07,9.54-.1,13.79-2.07A19.23,19.23,0,0,0,396,403.41c1.86-5.31,1-10.67.73-16.16-.16-3.42-.44-6.84-.66-10.25l-1.68-26.38q-1.47-22.83-2.92-45.66c0-.18-.21-3.67-.24-3.67l-29.21.06-6.57,28.4L345,374.52c-.7,3.06-1.46,6.12-2.14,9.18-2.58,11.59,2.69,25.21,13.92,30.31a25.28,25.28,0,0,0,5.11,1.66Z" transform="translate(0 1.27)" fill="#3b3348"/>
    <path id="Path_3298" data-name="Path 3298" d="M387.32,273.17a27.43,27.43,0,0,1,18.29,1,5.88,5.88,0,0,1,1.16.57c2.17,2.3.77,7.16-2.39,7.48-.9.09-9.21-3-9.21-3s5.35.73,8.45,4a7.43,7.43,0,0,1,1.06,8.46l-.53,1-.3-.36a12.25,12.25,0,0,0-7.18-4.24l-3.26-.6s11.19,2.07,11,7.63-2.59,5.14-2.59,5.14-4.65-4.63-10-3.41c0,0,15.21,1.78,12,10.06-2.55,6.61-13.19,7.28-17.38,7.28-1,0-20.48-1.3-24-5h0a9.16,9.16,0,0,1-2.33-8.14l1.18-5.77a26.16,26.16,0,0,1,18.3-19.82Z" transform="translate(0 1.27)" fill="#e8a396"/>
    <path id="Path_3299" data-name="Path 3299" d="M389,297.81a9.92,9.92,0,0,1,3.33-.59,12.5,12.5,0,0,1,3.39.42,14.787,14.787,0,0,1,1.62.57c.27.12.54.22.79.35l.76.41a5.55,5.55,0,0,1,.74.44l.72.47c.46.34.91.71,1.36,1.07h.05a.52.52,0,0,0,.73-.09.51.51,0,0,0-.09-.73h0c-.48-.36-1-.75-1.46-1.1l-.77-.49a6.739,6.739,0,0,0-.79-.45l-.82-.42c-.27-.14-.56-.24-.84-.36a15.586,15.586,0,0,0-1.75-.58,13.65,13.65,0,0,0-3.66-.39,10.71,10.71,0,0,0-3.63.72.4.4,0,0,0,.29.74Z" transform="translate(0 1.27)" fill="#e48771"/>
    <path id="Path_3300" data-name="Path 3300" d="M392.11,287.84a9.77,9.77,0,0,1,3.4.2,12.629,12.629,0,0,1,3.22,1.21,13.73,13.73,0,0,1,1.45.93c.23.18.47.34.68.53l.65.57a5,5,0,0,1,.61.61l.59.62c.37.44.71.91,1.07,1.36h0a.523.523,0,0,0,.82-.65h0c-.39-.47-.77-.94-1.18-1.39l-.64-.65a6.557,6.557,0,0,0-.67-.62l-.7-.59c-.24-.19-.5-.36-.75-.54a15.5,15.5,0,0,0-1.57-.94,13.251,13.251,0,0,0-3.46-1.19,10.751,10.751,0,0,0-3.67-.1.31.31,0,1,0,.09.61Z" transform="translate(0 1.27)" fill="#e48771"/>
    <path id="Path_3301" data-name="Path 3301" d="M392.38,279.7a10,10,0,0,1,3.41-.06,12.65,12.65,0,0,1,3.3,1,12.226,12.226,0,0,1,1.51.82c.24.16.49.3.72.47l.69.52a7,7,0,0,1,.66.56l.63.58c.41.41.78.85,1.18,1.27h0a.53.53,0,0,0,.74,0,.51.51,0,0,0,0-.74h0c-.42-.43-.84-.88-1.28-1.3l-.69-.6a7.7,7.7,0,0,0-.71-.57l-.75-.53c-.25-.17-.52-.32-.78-.48a13.937,13.937,0,0,0-1.64-.82,13.122,13.122,0,0,0-3.54-.93,10.571,10.571,0,0,0-3.67.18.31.31,0,0,0-.23.37.3.3,0,0,0,.37.23Z" transform="translate(0 1.27)" fill="#e48771"/>
  </g>
</svg>
