<svg xmlns="http://www.w3.org/2000/svg" width="452" height="438.312" viewBox="0 0 452 438.312">
  <g id="ilustrasi" transform="translate(-50 -171.844)">
    <path id="Path_2068" data-name="Path 2068" d="M0,0,278.662,81.277" transform="translate(79.027 465.723)" fill="none"/>
    <ellipse id="Floor" cx="226" cy="130.482" rx="226" ry="130.482" transform="translate(50 349.193)" fill="#fff"/>
    <path id="Shadow" d="M322.563,322.671c-14.82-8.556-14.82-22.436,0-30.992s38.848-8.556,53.668,0,14.82,22.436,0,30.992S337.383,331.189,322.563,322.671Z" transform="translate(83.229 202.277)" fill="#e0e0e0"/>
    <path id="Shadow-2" data-name="Shadow" d="M53.047,335.455l-39.021-22.5c-2.2-1.266-2.2-3.328,0-4.595L240.813,177.444a8.815,8.815,0,0,1,7.961,0l38.982,22.5c2.2,1.276,2.2,3.328,0,4.595L61.028,335.455A8.758,8.758,0,0,1,53.047,335.455Z" transform="translate(51.32 190.674)" fill="#e0e0e0"/>
    <path id="path13" d="M181.325,293.336l33.515-19.386c3.453-1.986,5.18-4.6,5.18-7.213v-4.662l-34.771-19.606a7.386,7.386,0,0,1-3.338-5.755V195.372L123.4,229.194v41.313a7.386,7.386,0,0,0,3.338,5.755l29.582,17.045c6.9,4.009,18.1,4.009,25.007.029Z" transform="translate(63.166 192.688)" fill="#adeaff"/>
    <g id="g17" transform="translate(186.617 388.061)" opacity="0.6">
      <path id="path15" d="M181.325,293.336l33.515-19.386c3.453-1.986,5.18-4.6,5.18-7.213v-4.662l-34.771-19.606a7.386,7.386,0,0,1-3.338-5.755V195.372L123.4,229.194v41.313a7.386,7.386,0,0,0,3.338,5.755l29.582,17.045c6.9,4.009,18.1,4.009,25.007.029Z" transform="translate(-123.398 -195.372)"/>
    </g>
    <path id="path19" d="M137.434,275.182v4.643L126.7,273.647a7.386,7.386,0,0,1-3.328-5.755V226.55l11.184-6.4c.23,2.878.489,5.755.719,8.633l-7.827,4.527V265.59a7.347,7.347,0,0,0,3.338,5.755Z" transform="translate(113.139 195.332)" opacity="0.3"/>
    <path id="path21" d="M127.038,267.539a7.367,7.367,0,0,0,3.338,5.755l25.534,14.714c6.906,3.99,18.11,3.99,25.026,0l33.572-19.376c6.916-3.981,6.916-10.455,0-14.436l-25.544-14.724a7.357,7.357,0,0,1-3.338-5.755V201.43l-58.512,33.822Z" transform="translate(63.553 193.334)" fill="#adeaff"/>
    <path id="path23" d="M127.038,267.539a7.367,7.367,0,0,0,3.338,5.755l25.534,14.714c6.906,3.99,18.11,3.99,25.026,0l33.572-19.376c6.916-3.981,6.916-10.455,0-14.436l-25.544-14.724a7.357,7.357,0,0,1-3.338-5.755V201.43l-58.512,33.822Z" transform="translate(63.488 193.334)" opacity="0.3"/>
    <path id="path25" d="M195.705,243.415h0l-6.791-3.923a7.357,7.357,0,0,1-3.338-5.755V201.43l-58.512,33.822v32.287a7.367,7.367,0,0,0,3.338,5.755l6.714,3.837Z" transform="translate(63.492 193.334)" opacity="0.5"/>
    <path id="path27" d="M215.6,255.688v4.662c0,2.619-1.736,5.218-5.18,7.223l-33.572,19.366a25.044,25.044,0,0,1-11.942,2.964v-4.643a25.045,25.045,0,0,0,11.942-2.964l33.572-19.386C213.864,260.878,215.6,258.259,215.6,255.688Z" transform="translate(67.594 199.123)" fill="#adeaff"/>
    <path id="path29" d="M215.6,255.688v4.662c0,2.619-1.736,5.218-5.18,7.223l-33.572,19.366a25.044,25.044,0,0,1-11.942,2.964v-4.643a25.045,25.045,0,0,0,11.942-2.964l33.572-19.386C213.864,260.878,215.6,258.259,215.6,255.688Z" transform="translate(67.648 199.123)" opacity="0.5"/>
    <path id="path31" d="M42.491,329.154a8.969,8.969,0,0,0,8.067-.144L276.932,198.317a9.228,9.228,0,0,0,4.173-7.223V7.971A8.949,8.949,0,0,0,277.2.892a8.921,8.921,0,0,0-8.077.153L42.75,131.738a9.208,9.208,0,0,0-4.163,7.223V322.084a8.94,8.94,0,0,0,3.9,7.069Z" transform="translate(54.117 171.844)" fill="#adeaff"/>
    <path id="path33" d="M49.806,328.529l226.374-130.7a9.2,9.2,0,0,0,4.173-7.223V7.481c0-2.657-1.87-3.741-4.173-2.408L49.806,135.728a9.228,9.228,0,0,0-4.173,7.223V326.112c.019,2.667,1.89,3.741,4.173,2.417Z" transform="translate(54.869 172.324)" fill="#adeaff"/>
    <path id="path35" d="M49.806,328.529l226.374-130.7a9.2,9.2,0,0,0,4.173-7.223V7.481c0-2.657-1.87-3.741-4.173-2.408L49.806,135.728a9.228,9.228,0,0,0-4.173,7.223V326.112c.019,2.667,1.89,3.741,4.173,2.417Z" transform="translate(54.869 172.324)" opacity="0.5"/>
    <path id="path37" d="M49.964,303.937a9.036,9.036,0,0,1-7.472-.154,8.969,8.969,0,0,1-3.914-7.089V279.957l7.818,4.527v16.671c0,2.446,1.544,3.549,3.568,2.782Z" transform="translate(54.115 201.713)" fill="#adeaff"/>
    <path id="path39" d="M49.964,303.937a9.036,9.036,0,0,1-7.472-.154,8.969,8.969,0,0,1-3.914-7.089V279.957l7.818,4.527v16.671c0,2.446,1.544,3.549,3.568,2.782Z" transform="translate(54.115 201.713)" opacity="0.5"/>
    <path id="path41" d="M45.643,297.133V313.8c0,2.657,1.87,3.731,4.173,2.408L276.18,185.519a9.228,9.228,0,0,0,4.173-7.223V161.586Z" transform="translate(54.869 189.084)" fill="#adeaff"/>
    <path id="path43" d="M45.651,297.1v16.7c0,2.657,1.87,3.731,4.173,2.408L276.179,185.519a9.227,9.227,0,0,0,4.173-7.223V161.586Z" transform="translate(54.871 189.084)" opacity="0.3"/>
    <path id="path45" d="M52.715,291.735V144.352a5.516,5.516,0,0,1,2.494-4.336L269.276,16.432c1.381-.8,2.5-.153,2.5,1.448V165.263a5.525,5.525,0,0,1-2.5,4.336L55.219,293.184C53.847,293.98,52.715,293.337,52.715,291.735Z" transform="translate(55.625 173.561)" fill="#27debf"/>
    <path id="path47" d="M52.715,291.735V144.352a5.516,5.516,0,0,1,2.494-4.336L269.276,16.432c1.381-.8,2.5-.153,2.5,1.448V165.263a5.525,5.525,0,0,1-2.5,4.336L55.219,293.184C53.847,293.98,52.715,293.337,52.715,291.735Z" transform="translate(55.625 173.561)" fill="#263238"/>
    <path id="path49" d="M152.057,227.675a8.633,8.633,0,0,0-3.914,6.772c0,2.494,1.755,3.511,3.914,2.264a8.633,8.633,0,0,0,3.914-6.782c.01-2.494-1.736-3.5-3.914-2.254Z" transform="translate(65.805 196.078)" fill="#27debf"/>
    <path id="path51" d="M47.682,126.346a8.9,8.9,0,0,0-1.237,4.125v170.9l-7.866-4.547V125.962a8.566,8.566,0,0,1,1.228-4.125Z" transform="translate(54.115 184.842)" opacity="0.7"/>
    <path id="path53" d="M280.954,7.28c-.307-2.149-2.034-2.935-4.144-1.727L50.436,136.208a8.633,8.633,0,0,0-2.878,3.137l-7.827-4.518a8.719,8.719,0,0,1,2.954-3.089L269.06,1.045a8.94,8.94,0,0,1,8.086-.153,9.026,9.026,0,0,1,3.808,6.388Z" transform="translate(54.238 171.844)" opacity="0.3"/>
    <path id="path57" d="M289.812,26.96a2.053,2.053,0,0,0-2.12.163L74.085,150.468a6.436,6.436,0,0,0-2.926,5.065V302.014a2.878,2.878,0,0,0,1.237,2.542c.47.259,2.983,1.717,3.731,2.12a1.659,1.659,0,0,0,1.688-.1l213.6-123.345a6.436,6.436,0,0,0,2.878-5.055V30.931a2.014,2.014,0,0,0-.9-1.918C292.911,28.734,290.349,27.286,289.812,26.96Z" transform="translate(57.592 174.697)" fill="#adeaff"/>
    <path id="path59" d="M76.416,306.129c-.815,0-1.487-1.007-1.487-2.245V157.394a6.053,6.053,0,0,1,2.686-4.643L291.28,29.406a2.283,2.283,0,0,1,1.065-.336c.71,0,1.132.6,1.132,1.611v147.2a6.043,6.043,0,0,1-2.676,4.643L77.174,305.918a1.43,1.43,0,0,1-.758.211Z" transform="translate(57.994 174.945)" fill="#fafafa"/>
    <path id="path61" d="M292.367,29.558h0c.566,0,.652.71.652,1.132V177.929a5.477,5.477,0,0,1-2.446,4.23L76.986,305.543a.96.96,0,0,1-.489.153c-.537,0-1.007-.825-1.007-1.765V157.44a5.506,5.506,0,0,1,2.446-4.23L291.542,29.874a1.64,1.64,0,0,1,.825-.278m0-.959a2.791,2.791,0,0,0-1.3.4L77.417,152.385a6.455,6.455,0,0,0-2.878,5.055V303.893c0,1.477.825,2.724,1.966,2.724a1.919,1.919,0,0,0,.959-.278L291.053,183.032a6.436,6.436,0,0,0,2.878-5.055V30.728c0-1.324-.652-2.091-1.611-2.091Z" transform="translate(57.953 174.898)" fill="#e0e0e0"/>
    <path id="path63" d="M72.388,291.226l3.587,2.034a2.983,2.983,0,0,1-1.074-2.494V153.876l-3.741-2.2V288.693a2.878,2.878,0,0,0,1.228,2.532Z" transform="translate(57.592 188.027)" fill="#f0f0f0"/>
    <path id="path65" d="M293.979,30.709c0-1.851-1.314-2.6-2.878-1.669L77.417,152.385a6.455,6.455,0,0,0-2.878,5.055v9.592L293.979,40.3Z" transform="translate(57.953 174.898)" fill="#adeaff"/>
    <g id="g69" transform="translate(129.607 201.434)" opacity="0.4">
      <path id="path67" d="M291.34,29.243,77.695,152.588a5.966,5.966,0,0,0-2.053,2.168l-3.7-2.149a5.756,5.756,0,0,1,2.034-2.139L287.609,27.123a2.072,2.072,0,0,1,2.12-.173c.528.326,2.945,1.707,3.568,2.034a2.11,2.11,0,0,0-1.957.259Z" transform="translate(-71.939 -26.737)" fill="#fff"/>
    </g>
    <path id="path71" d="M71.159,152.873v-9.506a5.956,5.956,0,0,1,.892-2.878l3.722,2.139a5.861,5.861,0,0,0-.873,2.878V155.1Z" transform="translate(57.586 186.832)" opacity="0.15"/>
    <path id="path75" d="M244.661,130.338,116.731,204.2a4.71,4.71,0,0,0-2.139,3.693v36.68a4.71,4.71,0,0,0,2.139,3.693l3.731,2.149a4.738,4.738,0,0,0,4.278,0l127.911-73.859a4.729,4.729,0,0,0,2.139-3.7V136.17a4.729,4.729,0,0,0-2.139-3.7l-3.741-2.149a4.71,4.71,0,0,0-4.249.019Z" transform="translate(62.227 185.695)" fill="#adeaff"/>
    <path id="path77" d="M254.729,135.83c-.144-1.113-1.046-1.516-2.12-.892L124.679,208.8a4.269,4.269,0,0,0-1.506,1.6l-8.009-4.595a4.46,4.46,0,0,1,1.5-1.573L244.6,130.372a4.71,4.71,0,0,1,4.269,0l3.741,2.149a4.8,4.8,0,0,1,2.12,3.309Z" transform="translate(62.307 185.699)" fill="#fff" opacity="0.5"/>
    <path id="path79" d="M124.376,243.263a4.8,4.8,0,0,1-3.9-.173l-3.741-2.149a4.71,4.71,0,0,1-2.139-3.693v-36.68a4.47,4.47,0,0,1,.633-2.12l8.009,4.633a4.3,4.3,0,0,0-.633,2.1v36.68c0,1.218.767,1.784,1.775,1.4Z" transform="translate(62.227 193.016)" fill="#263238"/>
    <path id="path81" d="M123.966,208.336,251.9,134.477c1.18-.681,2.139-.125,2.139,1.237v36.68a4.729,4.729,0,0,1-2.139,3.7L123.985,249.956c-1.18.681-2.139.134-2.139-1.228V212.058a4.729,4.729,0,0,1,2.12-3.722Z" transform="translate(63 186.16)" fill="#adeaff"/>
    <path id="path83" d="M210.68,147.979l-94,54.282a4.46,4.46,0,0,0-1.5,1.573l8.009,4.633a4.268,4.268,0,0,1,1.506-1.6l94-54.272Z" transform="translate(62.289 187.631)" fill="#455a64"/>
    <path id="path85" d="M217.971,152.148l-94,54.272a4.729,4.729,0,0,0-2.139,3.7V246.8c0,1.362.959,1.918,2.139,1.228l94-54.272Z" transform="translate(62.998 188.076)" fill="#37474f"/>
    <path id="path87" d="M143.7,199.908,192.244,171.9c2-1.161,3.635-.336,3.635,1.842a7.827,7.827,0,0,1-3.635,6.053l-48.507,28c-2,1.161-3.635.336-3.645-1.842a7.8,7.8,0,0,1,3.607-6.043Z" transform="translate(64.945 190.127)" fill="#adeaff"/>
    <path id="path89" d="M152.727,205.533a.106.106,0,0,1,.144,0,.326.326,0,0,1,.058.211v5.468a8.182,8.182,0,0,1-.134,1.564,6.09,6.09,0,0,1-.4,1.381,4.9,4.9,0,0,1-.671,1.132,3.376,3.376,0,0,1-.959.8,1.669,1.669,0,0,1-.959.288.959.959,0,0,1-.671-.355,2.062,2.062,0,0,1-.4-.959,6.715,6.715,0,0,1-.125-1.42v-5.352a.739.739,0,0,1,.058-.288.345.345,0,0,1,.144-.192l.6-.345a.1.1,0,0,1,.144,0,.355.355,0,0,1,.058.221v5.4a3.636,3.636,0,0,0,.086.882.959.959,0,0,0,.23.5.412.412,0,0,0,.355.153,1.017,1.017,0,0,0,.46-.144,1.918,1.918,0,0,0,.46-.384,1.985,1.985,0,0,0,.364-.566,3.836,3.836,0,0,0,.24-.767,5.19,5.19,0,0,0,.086-.959v-5.429a.739.739,0,0,1,.058-.288.345.345,0,0,1,.144-.192Z" transform="translate(65.854 193.77)" fill="#fafafa"/>
    <path id="path91" d="M155.95,210.677a.384.384,0,0,0,0-.211.211.211,0,0,0-.182-.067,1.917,1.917,0,0,0-.355,0l-.547.105a1.141,1.141,0,0,1-.547,0,.719.719,0,0,1-.355-.269,1.324,1.324,0,0,1-.182-.5,4,4,0,0,1-.048-.71,3.339,3.339,0,0,1,.106-.844,4,4,0,0,1,.3-.863,3.731,3.731,0,0,1,.489-.767,2.4,2.4,0,0,1,.643-.566,1.66,1.66,0,0,1,.662-.23.806.806,0,0,1,.489.105.815.815,0,0,1,.317.374,1.439,1.439,0,0,1,.125.556.518.518,0,0,1-.058.288.326.326,0,0,1-.144.182l-.576.336q-.115.067-.173,0l-.125-.1a.317.317,0,0,0-.173-.067.786.786,0,0,0-.345.125,1.477,1.477,0,0,0-.393.345.854.854,0,0,0-.173.528.605.605,0,0,0,0,.221.192.192,0,0,0,.163.1,1.3,1.3,0,0,0,.317,0l.537-.106a.907.907,0,0,1,.959.249,2.034,2.034,0,0,1,.278,1.18,3.366,3.366,0,0,1-.115.844,4.381,4.381,0,0,1-.326.873,3.838,3.838,0,0,1-.528.777,2.714,2.714,0,0,1-.7.585,1.525,1.525,0,0,1-.7.24.854.854,0,0,1-.508-.134.959.959,0,0,1-.326-.422,1.4,1.4,0,0,1-.115-.576.518.518,0,0,1,.058-.288.345.345,0,0,1,.144-.192l.576-.336q.115-.058.173,0l.125.134a.345.345,0,0,0,.2.106.643.643,0,0,0,.374-.134,2.453,2.453,0,0,0,.24-.153,1.6,1.6,0,0,0,.221-.221.957.957,0,0,0,.163-.259.566.566,0,0,0,.038-.24Z" transform="translate(66.391 193.795)" fill="#fafafa"/>
    <path id="path93" d="M157.5,208.311a9.5,9.5,0,0,1,.125-1.477,7.264,7.264,0,0,1,.374-1.362,5.2,5.2,0,0,1,.576-1.1,2.465,2.465,0,0,1,.767-.719,1.1,1.1,0,0,1,.758-.163.959.959,0,0,1,.576.4,2.254,2.254,0,0,1,.374.863,5.2,5.2,0,0,1,.134,1.218v.614a.633.633,0,0,1-.067.288.412.412,0,0,1-.134.182l-2.5,1.448a1.458,1.458,0,0,0,.067.5.624.624,0,0,0,.192.278.364.364,0,0,0,.278.086.959.959,0,0,0,.326-.105,1.612,1.612,0,0,0,.384-.317,1.534,1.534,0,0,0,.249-.365,2.552,2.552,0,0,1,.134-.221.615.615,0,0,1,.144-.125l.595-.345a.134.134,0,0,1,.153,0,.317.317,0,0,1,0,.23,1.974,1.974,0,0,1-.115.547,4.1,4.1,0,0,1-.326.758,4.406,4.406,0,0,1-.537.787,2.657,2.657,0,0,1-.729.623,1.161,1.161,0,0,1-.767.182.873.873,0,0,1-.576-.4,2.543,2.543,0,0,1-.374-.959,7.157,7.157,0,0,1-.077-1.343Zm1.842-3.06a1.228,1.228,0,0,0-.374.326,2.044,2.044,0,0,0-.259.441,3.036,3.036,0,0,0-.163.5,2.813,2.813,0,0,0-.067.46l1.688-.959a2.781,2.781,0,0,0-.058-.393.681.681,0,0,0-.134-.317.365.365,0,0,0-.24-.154.585.585,0,0,0-.393.1Z" transform="translate(66.803 193.553)" fill="#fafafa"/>
    <path id="path95" d="M163.721,202.854a1.525,1.525,0,0,0-.652.719,3.318,3.318,0,0,0-.2,1.276v3.463a.768.768,0,0,1-.058.288.365.365,0,0,1-.144.182l-.566.336a.106.106,0,0,1-.144,0,.355.355,0,0,1-.058-.221v-6.206a.768.768,0,0,1,.058-.288.393.393,0,0,1,.144-.192l.566-.326a.106.106,0,0,1,.144,0,.326.326,0,0,1,.058.211v.307a4.574,4.574,0,0,1,.422-.729,1.745,1.745,0,0,1,.576-.508l.345-.192a.086.086,0,0,1,.134,0,.307.307,0,0,1,.067.221v.863a.633.633,0,0,1-.067.288.413.413,0,0,1-.134.182Z" transform="translate(67.273 193.281)" fill="#fafafa"/>
    <path id="path97" d="M170.347,202.836a.106.106,0,0,1,.144,0,.355.355,0,0,1,.058.221v.959a.768.768,0,0,1-.058.288.365.365,0,0,1-.144.182l-3.281,1.918a.105.105,0,0,1-.144,0,.326.326,0,0,1-.058-.211V197.56a.69.69,0,0,1,.058-.278.345.345,0,0,1,.144-.192l.6-.355a.106.106,0,0,1,.144,0,.336.336,0,0,1,.058.221v7.3Z" transform="translate(67.803 192.83)" fill="#fafafa"/>
    <path id="path99" d="M172.854,195.851a1.285,1.285,0,0,1,.739-.2.882.882,0,0,1,.585.288,1.842,1.842,0,0,1,.384.71,4.107,4.107,0,0,1,.173,1.046c0,.086,0,.182,0,.307v1.094a6.848,6.848,0,0,1-.173,1.247,6.14,6.14,0,0,1-.384,1.141,4.346,4.346,0,0,1-.585.959,2.609,2.609,0,0,1-.739.652,1.2,1.2,0,0,1-.748.2.873.873,0,0,1-.576-.288,1.736,1.736,0,0,1-.384-.7,4.03,4.03,0,0,1-.173-1.046,2.528,2.528,0,0,1,0-.288v-.739a2.992,2.992,0,0,1,0-.317,6.09,6.09,0,0,1,.163-1.247,6.013,6.013,0,0,1,.393-1.151,4.462,4.462,0,0,1,.576-.959,2.551,2.551,0,0,1,.748-.71Zm.9,2.475a1.987,1.987,0,0,0-.106-.623.643.643,0,0,0-.211-.307.365.365,0,0,0-.278-.058.671.671,0,0,0-.307.115,1.16,1.16,0,0,0-.307.24,1.458,1.458,0,0,0-.278.374,2.1,2.1,0,0,0-.211.556,4.086,4.086,0,0,0-.115.748v1.2a2.187,2.187,0,0,0,.115.624.547.547,0,0,0,.211.307.364.364,0,0,0,.278.067.9.9,0,0,0,.307-.125,1.6,1.6,0,0,0,.307-.23,1.8,1.8,0,0,0,.278-.384,2.331,2.331,0,0,0,.211-.556,3.263,3.263,0,0,0,.105-.748,2.015,2.015,0,0,0,0-.259v-.681A2.015,2.015,0,0,0,173.755,198.326Z" transform="translate(68.24 192.717)" fill="#fafafa"/>
    <path id="path101" d="M177.2,201.8a1.552,1.552,0,0,0,.326-.269,2.447,2.447,0,0,0,.3-.451,3.079,3.079,0,0,0,.221-.595,2.973,2.973,0,0,0,.086-.729v-.489a2.724,2.724,0,0,1-.163.345,2.159,2.159,0,0,1-.23.4,3.015,3.015,0,0,1-.326.384,1.688,1.688,0,0,1-.412.317.882.882,0,0,1-.681.134.959.959,0,0,1-.518-.393,2.878,2.878,0,0,1-.336-.806,5.41,5.41,0,0,1-.134-1.094c0-.134,0-.288,0-.47v-.47a8.1,8.1,0,0,1,.134-1.257,8.25,8.25,0,0,1,.336-1.189,4.64,4.64,0,0,1,.518-.959,2.292,2.292,0,0,1,.681-.652,1.1,1.1,0,0,1,.412-.153.729.729,0,0,1,.326,0,.528.528,0,0,1,.23.125.9.9,0,0,1,.163.173v-.336a.738.738,0,0,1,.058-.288.345.345,0,0,1,.144-.192l.566-.326a.1.1,0,0,1,.144,0,.355.355,0,0,1,.067.221v6.244a6.58,6.58,0,0,1-.508,2.724,3.434,3.434,0,0,1-1.4,1.631,1.612,1.612,0,0,1-.71.23,1.026,1.026,0,0,1-.566-.153,1.218,1.218,0,0,1-.384-.46,1.919,1.919,0,0,1-.153-.691.518.518,0,0,1,.058-.288.393.393,0,0,1,.144-.192l.508-.288h.182a.958.958,0,0,1,.125.163.47.47,0,0,0,.269.221.777.777,0,0,0,.528-.125Zm-.9-4.652v.748a1.631,1.631,0,0,0,.307,1.074.47.47,0,0,0,.614,0,1.621,1.621,0,0,0,.624-.739,3.568,3.568,0,0,0,.288-1.276v-1.017a1.487,1.487,0,0,0-.288-.959.48.48,0,0,0-.624-.048,1.64,1.64,0,0,0-.614.748,3.577,3.577,0,0,0-.307,1.468Z" transform="translate(68.707 192.385)" fill="#fafafa"/>
    <path id="path103" d="M180.832,189a.105.105,0,0,1,.144,0,.326.326,0,0,1,.058.211v1.046a.768.768,0,0,1-.058.288.546.546,0,0,1-.144.192l-.643.365a.1.1,0,0,1-.144,0,.355.355,0,0,1-.067-.221v-.978a.7.7,0,0,1,.067-.288.345.345,0,0,1,.144-.192Zm.163,9.007a.767.767,0,0,1-.058.288.5.5,0,0,1-.144.182l-.566.336a.105.105,0,0,1-.144,0,.288.288,0,0,1-.067-.221V192.39a.633.633,0,0,1,.067-.288.326.326,0,0,1,.144-.182l.566-.336a.105.105,0,0,1,.144,0,.336.336,0,0,1,.058.221Z" transform="translate(69.201 192.006)" fill="#fafafa"/>
    <path id="path105" d="M185.833,195.073a.768.768,0,0,1-.058.288.393.393,0,0,1-.144.192l-.576.326a.1.1,0,0,1-.134,0,.278.278,0,0,1-.048-.23v-3.386a2.484,2.484,0,0,0-.2-1.161c-.144-.24-.355-.278-.652-.106a1.564,1.564,0,0,0-.623.844,3.952,3.952,0,0,0-.23,1.41v3.357a.7.7,0,0,1-.058.288.345.345,0,0,1-.144.192l-.566.326a.1.1,0,0,1-.144,0,.355.355,0,0,1-.058-.221v-6.206a.768.768,0,0,1,.058-.288.345.345,0,0,1,.144-.192l.566-.326a.105.105,0,0,1,.144,0,.355.355,0,0,1,.058.221v.307a4.939,4.939,0,0,1,.46-.835,1.919,1.919,0,0,1,.623-.585,1.046,1.046,0,0,1,.758-.192.806.806,0,0,1,.5.393,2.494,2.494,0,0,1,.269.844,8.327,8.327,0,0,1,.077,1.141Z" transform="translate(69.439 192.018)" fill="#fafafa"/>
    <path id="path107" d="M230.137,171.385l-9.324,5.381,1.448-13.064c-1.113-.595-1.832-2.043-1.832-4.125,0-3.712,2.264-8.019,5.045-9.592s5.036.106,5.036,3.837a12.681,12.681,0,0,1-1.822,6.225Z" transform="translate(73.518 187.783)" fill="#455a64"/>
    <path id="polygon109" d="M220.776,175.1l9.324-5.381-8.2-4.729Z" transform="translate(73.555 189.447)" fill="#37474f"/>
    <path id="path111" d="M225.4,149.952a10.983,10.983,0,0,0-4.3,5.707l7.511,4.336h0a12.681,12.681,0,0,0,1.822-6.225C230.438,150.058,228.184,148.35,225.4,149.952Z" transform="translate(73.59 187.777)" fill="#37474f"/>
    <path id="path113" d="M186.961,110.71c-3.194-1.851-7.6-1.583-12.47,1.218-9.717,5.621-17.611,19.309-17.611,30.5,0,5.64,1.986,9.592,5.189,11.424.835.47,5.362,3.108,6.206,3.6,3.185,1.842,7.587,1.573,12.47-1.228,9.726-5.621,17.611-19.28,17.611-30.5,0-5.611-1.976-9.592-5.161-11.4" transform="translate(66.738 183.529)" fill="#adeaff"/>
    <path id="path115" d="M180.142,115.205c-9.726,5.611-17.611,19.271-17.611,30.5s7.885,15.779,17.611,10.168,17.621-19.28,17.611-30.5S189.849,109.584,180.142,115.205Z" transform="translate(67.34 183.879)" fill="#adeaff"/>
    <path id="path117" d="M189.09,138.107v1.324a28.249,28.249,0,0,1-9.717,10.187c-3.789,2.187-7.213,2.417-9.726,1.026v-2.657a17.266,17.266,0,0,1,7.933-13.765l2.561-1.468c2.264-1.314,4.47-1.477,6.2-.48S189.09,135.411,189.09,138.107Z" transform="translate(68.1 185.887)" fill="#27debf"/>
    <path id="path119" d="M186.714,110.708l6.235,3.616c-3.185-1.851-7.587-1.583-12.47,1.228-6.369,3.674-11.952,10.8-15.04,18.436l-6.244-3.616c3.1-7.674,8.633-14.762,15.04-18.446C179.127,109.174,183.491,108.857,186.714,110.708Z" transform="translate(66.984 183.531)" fill="#fff" opacity="0.4"/>
    <path id="path121" d="M168.063,154.136l-5.976-3.463c-3.2-1.823-5.2-5.755-5.2-11.415l6.244,3.626C163.133,148.362,165.013,152.247,168.063,154.136Z" transform="translate(66.738 186.701)" opacity="0.2"/>
    <path id="path123" d="M159.46,128.364l6.244,3.616a32.728,32.728,0,0,0-2.571,12.067h0l-6.254-3.626A32.834,32.834,0,0,1,159.46,128.364Z" transform="translate(66.738 185.539)" opacity="0.1"/>
    <path id="path125" d="M176.784,133.431a3.309,3.309,0,0,1-1.688-.441,4.144,4.144,0,0,1-1.842-3.837,10.973,10.973,0,0,1,5.026-8.71h0a3.77,3.77,0,0,1,6.072,3.5,10.964,10.964,0,0,1-5.036,8.71,5.074,5.074,0,0,1-2.532.777Z" transform="translate(68.482 184.607)" fill="#fff"/>
    <path id="path127" d="M186.336,132.273c-1.727-.959-3.933-.835-6.2.48l-2.561,1.468a17.266,17.266,0,0,0-7.923,13.726V150.6c2.513,1.391,5.938,1.161,9.726-1.026a28.249,28.249,0,0,0,9.707-10.148v-1.285c0-2.734-.959-4.854-2.753-5.87Z" transform="translate(68.1 185.889)" fill="#fff"/>
    <path id="path131" d="M362.913,285.5s1.276-11.2,6.849-19.894,13.228-14.12,20.374-14.686,12.921,6,5.276,10.551-21.227,9.113-27.481,25.995Z" transform="translate(88.719 198.609)" fill="#64dbb2"/>
    <path id="path133" d="M362.913,285.5s1.276-11.2,6.849-19.894,13.228-14.12,20.374-14.686,12.921,6,5.276,10.551-21.227,9.113-27.481,25.995Z" transform="translate(88.719 198.609)" opacity="0.1"/>
    <path id="path135" d="M364.841,282.262h-.077a.374.374,0,0,1-.211-.489c7.539-18.57,21.889-26.321,28.431-27.817a.379.379,0,1,1,.173.739c-6.408,1.477-20.479,9.093-27.894,27.376a.393.393,0,0,1-.422.192Z" transform="translate(88.891 198.938)" fill="#fff"/>
    <path id="path137" d="M402.907,280.662c-.643,1.458-2.235,2.216-3.712,2.81s-3.089,1.237-3.894,2.619c-1.611,2.782,1.036,6.714-.691,9.41a5,5,0,0,1-3.405,1.976,32.861,32.861,0,0,1-3.348.3,12.309,12.309,0,0,1-1.592-.125,7.328,7.328,0,0,0-4.614.489c-2.216,1.247-2.878,4.048-4.24,6.2a10.551,10.551,0,0,1-7.453,4.681c-.959.134-2.878.307-3.837-.259a.8.8,0,0,1-.211-.134h0c-.134-.163-.317-.365-.393-.47a.419.419,0,0,1,0-.067c-.393-1.439.249-2.945.278-4.441v-.269c-.067-1.736-.115-3.453-.153-5.189-.077-3.185-.115-6.369-.1-9.592,0-2.072-.23-4.336.652-6.283.959-2.149,3.376-2.2,4.288-4.3.365-.835.556-1.736.911-2.58a7.405,7.405,0,0,1,6.312-4.412c4.211-.211,7.99,3.194,12.192,2.878,1.084-.086,2.149-.422,3.223-.614,3.405-.643,7.348.336,9.266,3.213a4.412,4.412,0,0,1,.518,4.163Z" transform="translate(88.982 200.758)" fill="#64dbb2"/>
    <path id="path139" d="M365.147,300.924h0a.355.355,0,0,1-.249-.393c5.813-21.822,28.776-24.94,34.177-24.585a.365.365,0,0,1-.048.719c-5.266-.384-27.75,2.705-33.438,24.047a.355.355,0,0,1-.441.211Z" transform="translate(88.93 201.281)" fill="#fff"/>
    <path id="path141" d="M389.77,289.058a.422.422,0,0,1-.192-.106,19.117,19.117,0,0,0-15.645-4.4.364.364,0,0,1-.4-.307.355.355,0,0,1,.3-.4,19.846,19.846,0,0,1,16.307,4.6.355.355,0,0,1,0,.508.365.365,0,0,1-.365.105Z" transform="translate(89.852 202.098)" fill="#fff"/>
    <path id="path151" d="M337.706,171.966c-4.029,6.82-7.9,12.729-10.628,15.568-5.17,2.408-17.314,6.1-22.062,6.714a3.5,3.5,0,0,1-2.379-.556c-1.87-1.228-3.319-1.429-5.285-2.11-1.544-.528-2.2-1.266-2.484-.959a1.755,1.755,0,0,0,.163,2.446,12.967,12.967,0,0,0,2.456,1.8,14.388,14.388,0,0,1-6.427.115c-4.125-1.074-6.043.844-3.29,5.352.959,1.6,4.911,4.153,12.863,3.463a68.1,68.1,0,0,0,8.441-.959c7.616-1.621,16.086-3.2,21.3-4.8a13.524,13.524,0,0,0,5.055-3.5c8.758-9.995,11.664-17.1,15.5-23.577l-.326-10.551c-6.216-.2-9.535,5.851-12.9,11.549Z" transform="translate(80.564 188.957)" fill="#ffa8a7"/>
    <path id="path153" d="M347.44,160.244a9.985,9.985,0,0,0-9.5,4.057c-4.259,5.458-11.8,18.561-11.8,18.561s2.465,6.571,9.122,7.674l10.743-14.465S351.028,166.124,347.44,160.244Z" transform="translate(84.797 188.93)" fill="#455a64"/>
    <rect id="rect155" width="6.973" height="12.431" transform="translate(448.389 496.469)" fill="#ffa8a7"/>
    <path id="polygon157" d="M345.148,280.841V294l-6.964.249-.355-13.16Z" transform="translate(86.043 201.807)" fill="#ffa8a7"/>
    <path id="path159" d="M370.713,196.1c0,6.935-1.017,62.732-1.017,62.732.163,2,1.918,5.669,1.564,13.333-.528,10.407-1.228,37.764-1.228,37.764a8.863,8.863,0,0,1-7.76.153s-5.659-38.368-6.906-48.642c-1.084-9.007-3.837-38.867-3.837-38.867l-3.779,35.241a42.912,42.912,0,0,1,.863,11.511c-.326,4.8-2.571,29.62-2.571,29.62a9.19,9.19,0,0,1-8.048.643s-3.971-37.409-4.048-41.8c-.1-4.988,2.321-61.792,2.321-61.792Z" transform="translate(85.629 192.754)" fill="#37474f"/>
    <path id="path161" d="M361.046,301.427v-1.036c-.671.3-2.216,6.456-4.978,9.084-2.206,2.091-5.2,4.508-5.966,6.83s4.173,3.76,6.235,3.386c2.388-.441,6.523-2.2,7.559-3.837s1.525-4.019,2.369-5.209,2.791-2.513,3.242-3.894a8.492,8.492,0,0,0-.393-3.837c-.393-1.429-.671-2.7-1.093-2.571v.787a5.362,5.362,0,0,1-3.492,1.228c-1.017.086-3.492-.125-3.482-.93Z" transform="translate(87.344 203.887)" fill="#263238"/>
    <path id="path163" d="M339.679,290.978c-.365,0-.662.547-1.458,1.448a15.155,15.155,0,0,1-4.1,3.069c-2.609,1.362-7.674,3.453-9.985,4.537-1.439.671-1.362,2.475.115,3.5s5.065,1.775,9.362.767c2.35-.547,5.391-2.8,7.328-2.676s5.535.1,6.964-.959.854-3.2.451-5.084c-.441-2.053-.959-5.247-1.64-5.1v.71c-.835,1.314-5.161,1.861-7,.882Z" transform="translate(84.473 202.834)" fill="#263238"/>
    <path id="path165" d="M350.736,220.568a25.534,25.534,0,0,1-9.717-5.755s1.918,3.645,7.444,7.05L347.3,253.335Z" transform="translate(86.383 194.762)" fill="#263238"/>
    <path id="path167" d="M366.677,161.313s5.755,1.324,5.343,11.722l-1.2,16.556v24.844c-5.122,5.755-27.817,5.381-35.635-.47,0,0,.883-29.4,1.41-40.709.374-8.048,2.225-12.1,10.129-12.978l9.717.422Z" transform="translate(85.762 188.943)" fill="#575988"/>
    <path id="path169" d="M359.072,142.693a10.609,10.609,0,0,1-10.379,10.81c-5.755,0-9.132-4.978-10.379-10.81-2.292-10.676,4.643-10.81,10.379-10.81a10.6,10.6,0,0,1,10.379,10.81Z" transform="translate(86.047 185.914)" fill="#263238"/>
    <path id="path171" d="M362.212,145.612s-1.592,7.789-2.235,9.065a3.386,3.386,0,0,1-1.918,1.64l.115-5.477Z" transform="translate(88.201 187.379)" fill="#263238"/>
    <path id="path173" d="M360.1,135.516s1.141-.278,2.36,1.611c1.036,1.621,1.276,5.276-.355,9.592l-3,.355Z" transform="translate(88.313 186.301)" fill="#263238"/>
    <path id="path175" d="M361,137.123l3.683.067A1.736,1.736,0,0,0,363,135.272,2.043,2.043,0,0,0,361,137.123Z" transform="translate(88.516 186.275)" fill="#263238"/>
    <path id="path177" d="M361.475,136.468l2.724-2.619a1.755,1.755,0,0,0-2.58-.106A2.014,2.014,0,0,0,361.475,136.468Z" transform="translate(88.516 186.059)" fill="#263238"/>
    <path id="path179" d="M360.346,147.5c.6.374,1.458-.825,2.206-1.631s3.069-1.573,4.278,1.074-.854,5.266-2.58,6.129c-3.1,1.535-4.077-.7-4.077-.7l-.249,12.335c-4.364,6.715-14.244,6.5-10.686-.326v-3.751a20.143,20.143,0,0,1-4.432.24c-2.417-.393-3.933-2.379-4.662-5.1-1.18-4.374-1.631-7.9-.633-16.5,1.094-9.429,11.626-9.525,17.266-5.8S360.346,147.5,360.346,147.5Z" transform="translate(86.164 185.84)" fill="#ffa8a7"/>
    <path id="path181" d="M347.52,138.289c2.513-.249,5-.758,7.52-.959a5.16,5.16,0,0,1,1.631.077c1.918.528,1.688,2.772,2,4.336.528,2.705.959,7.28,1.976,7.3.307,0,1.458-1.976,2.206-2.686a3.99,3.99,0,0,0,.671-2.062c.192-1.122.288-2.254.374-3.386.077-.959.173-1.918.173-2.878a13.548,13.548,0,0,0-.259-3.233,5.651,5.651,0,0,0-1.343-2.417l-.192-.211a12.729,12.729,0,0,0-4.5-3.031,27.165,27.165,0,0,0-7.616-1.65,77.516,77.516,0,0,1-7.76-.959.9.9,0,0,0-.451,0,.71.71,0,0,0-.364.576,3.2,3.2,0,0,0,1.295,3.165c-1.736.134-3.731-.767-5.4-1.218a1.094,1.094,0,0,0-.854,0,.844.844,0,0,0-.336.489,3.088,3.088,0,0,0-.048,1.391,7.941,7.941,0,0,0,1.5,3.837,9.468,9.468,0,0,0,5.18,3.4,15.117,15.117,0,0,0,4.6.125Z" transform="translate(85.867 185.34)" fill="#263238"/>
    <path id="path183" d="M348.256,158.259s5.391-1.132,7.271-2.177a6.35,6.35,0,0,0,2.609-2.686,8.969,8.969,0,0,1-1.487,3.165c-1.372,1.842-8.393,3.194-8.393,3.194Z" transform="translate(87.156 188.209)" fill="#f28f8f"/>
    <path id="path185" d="M349.426,144.772a1.113,1.113,0,0,0,1.074,1.161,1.17,1.17,0,1,0-1.074-1.161Z" transform="translate(87.279 187.164)" fill="#263238"/>
    <path id="path187" d="M351.03,140.484l2.3,1.333a1.468,1.468,0,0,0-.537-1.918,1.257,1.257,0,0,0-1.765.585Z" transform="translate(87.451 186.752)" fill="#263238"/>
    <path id="path189" d="M348.927,151.679l-2.465.959a1.285,1.285,0,0,0,1.679.844,1.439,1.439,0,0,0,.787-1.8Z" transform="translate(86.965 188.027)" fill="#f28f8f"/>
    <path id="path191" d="M340.489,141.557l2.11-1.688a1.247,1.247,0,0,0-1.832-.288,1.5,1.5,0,0,0-.278,1.976Z" transform="translate(86.299 186.705)" fill="#263238"/>
    <path id="path193" d="M341.3,144.477a1.084,1.084,0,1,0,1.084-1.17,1.122,1.122,0,0,0-1.084,1.17Z" transform="translate(86.414 187.133)" fill="#263238"/>
    <path id="polygon195" d="M342.917,149.487l4-5.938-.125,6.83Z" transform="translate(86.586 187.158)" fill="#f28f8f"/>
    <path id="polyline197" d="M263.376,195.777l6.014-3.472,2.379-2.887-6,3.472-2.388,2.887" transform="translate(78.1 192.053)" fill="#adeaff"/>
    <path id="polyline199" d="M263.376,195.777l6.014-3.472,2.379-2.887-6,3.472-2.388,2.887" transform="translate(78.1 192.053)" opacity="0.4"/>
    <path id="polyline201" d="M278.154,204.455l6.014-3.472,5.017-4.441-6,3.472-5.026,4.441" transform="translate(79.676 192.813)" fill="#adeaff"/>
    <path id="polyline203" d="M278.154,204.455l6.014-3.472,5.017-4.441-6,3.472-5.026,4.441" transform="translate(79.676 192.813)" opacity="0.4"/>
    <path id="path205" d="M332.209,219.577a12.681,12.681,0,0,1,2.484,6.532,12.854,12.854,0,0,1-2.484-6.532Zm13.976.182c-2.024-13.774-9.419-27.386-18.225-32.479-4.23-2.446-8.144-2.532-11.28-.7l-5.659,3.271a2.488,2.488,0,0,0-.317.182c-.249.144-.5.3-.729.46a9.818,9.818,0,0,0-1.3,1.074,1.771,1.771,0,0,1-.192.182,7.6,7.6,0,0,0-.518.576,9.191,9.191,0,0,0-.6.739,13.613,13.613,0,0,0-1.1,1.7,9.876,9.876,0,0,0-.489.959l-49.419-28.527-6,3.463v3.837l.508.3.48.269v.815l-.959.566v2.235l7.261,15.347,7.175,4.153,2.388-2.878,6.331,3.837,3.635,6.225,4.009,2.312,5.017-4.451,6.158,3.568,2.072,8.537,10.331,5.957a56.3,56.3,0,0,0,1.919,6.417c.067.221.153.432.24.671,3.434,9.026,8.892,16.748,15.05,20.307a16.31,16.31,0,0,0,2.312,1.113,12.813,12.813,0,0,0,1.295.432,9.928,9.928,0,0,0,1.151.259,10.215,10.215,0,0,0,3.664,0l.5-.125a4.485,4.485,0,0,0,.7-.2l.537-.211a4,4,0,0,0,.547-.249l.518-.269.249-.153a.4.4,0,0,0,.125-.067c1.372-.787,4.748-2.743,5.669-3.261,4.566-2.647,7.52-9.343,7.52-18.81a49.342,49.342,0,0,0-.556-7.376Z" transform="translate(76.709 189.682)" fill="#64dbb2"/>
    <path id="path207" d="M330.455,230.849c-2.379-1.362-4.3-5.429-4.3-9.084s1.918-5.5,4.3-4.134,4.288,5.439,4.288,9.093S332.824,232.183,330.455,230.849Zm9.726-7.971c-2.024-13.755-9.419-27.366-18.225-32.46-4.086-2.36-7.866-2.532-10.935-.9a2.486,2.486,0,0,0-.317.182c-.249.144-.5.3-.729.46a9.819,9.819,0,0,0-1.3,1.074,1.772,1.772,0,0,1-.192.182,7.566,7.566,0,0,0-.518.575,9.181,9.181,0,0,0-.6.739,13.613,13.613,0,0,0-1.1,1.7,9.885,9.885,0,0,0-.489.959,23.46,23.46,0,0,0-1.918,5.842l-53.514-30.906v3.837l.508.3.48.269v.815l-.959.566v2.235l7.261,15.347,7.175,4.153,2.388-2.878,6.331,3.837,3.635,6.225,4.01,2.312,5.017-4.451,6.158,3.568,2.072,8.537,10.331,5.957a56.3,56.3,0,0,0,1.918,6.417c.067.221.154.432.24.671,3.434,9.026,8.892,16.748,15.05,20.307a16.3,16.3,0,0,0,2.312,1.113,12.813,12.813,0,0,0,1.295.432,9.927,9.927,0,0,0,1.151.259,10.217,10.217,0,0,0,3.664,0l.5-.125a4.488,4.488,0,0,0,.7-.2l.537-.211a4,4,0,0,0,.547-.249l.518-.269.249-.153a.4.4,0,0,0,.125-.067c4.374-2.763,7.184-9.352,7.184-18.6A50.954,50.954,0,0,0,340.181,222.878Z" transform="translate(76.707 190.016)" fill="#64dbb2"/>
    <path id="path209" d="M327.433,222.2c0,3.655-1.918,5.506-4.288,4.134s-4.3-5.429-4.3-9.084,1.918-5.5,4.3-4.125a6.082,6.082,0,0,1,1.755,1.6,12.834,12.834,0,0,0,2.484,6.542,7.755,7.755,0,0,1,.048.93Z" transform="translate(84.008 194.533)" opacity="0.4"/>
    <path id="path211" d="M340.882,225.293c0,9.467-2.954,16.163-7.52,18.81-.959.518-4.3,2.475-5.669,3.261,4.374-2.763,7.185-9.352,7.185-18.6a50.95,50.95,0,0,0-.547-7.3c-2.024-13.755-9.419-27.366-18.225-32.46-4.086-2.36-7.866-2.532-10.935-.9l5.659-3.271c3.137-1.832,7.05-1.746,11.28.7,8.815,5.093,16.211,18.7,18.225,32.479A49.349,49.349,0,0,1,340.882,225.293Z" transform="translate(82.549 191.428)" fill="#fff" opacity="0.4"/>
    <path id="path213" d="M332.706,224.843c0,9.247-2.81,15.837-7.185,18.6,1.372-.787,4.748-2.743,5.669-3.261,4.566-2.647,7.52-9.343,7.52-18.81v-1.046l-6.062,3.463A7.874,7.874,0,0,1,332.706,224.843Z" transform="translate(84.73 195.35)" fill="#64dbb2"/>
    <path id="path215" d="M332.706,224.843c0,9.247-2.81,15.837-7.185,18.6,1.372-.787,4.748-2.743,5.669-3.261,4.566-2.647,7.52-9.343,7.52-18.81v-1.046l-6.062,3.463A7.874,7.874,0,0,1,332.706,224.843Z" transform="translate(84.721 195.35)" opacity="0.1"/>
    <path id="polygon217" d="M304.067,206.679l-53.735-31.031.988-.566v-.815l52.747,30.455Z" transform="translate(76.707 190.436)" opacity="0.15"/>
    <path id="polygon219" d="M304.067,206.6,250.332,175.57l.988-.566v-.01l52.747,30.455Z" transform="translate(76.707 190.514)" opacity="0.15"/>
    <ellipse id="ellipse221" cx="14.187" cy="26.551" rx="14.187" ry="26.551" transform="matrix(0.956, -0.293, 0.293, 0.956, 377.299, 388.154)" fill="none" stroke="#000" stroke-miterlimit="10" stroke-width="0.867" opacity="0.15"/>
    <path id="path223" d="M305.756,195.7a23.464,23.464,0,0,0-1.918,5.842l-53.514-30.906,6-3.463Z" transform="translate(76.717 189.68)" fill="#fff" opacity="0.4"/>
    <path id="path225" d="M367.4,199.26c2.8-5.3,6-17.266,7.6-23.232,2.264-8.537-1.4-13.909-5.554-14.129-2.609.4-11.175,31.548-11.175,31.548-.959.758-13.976,7.367-18.158,9.026a3.328,3.328,0,0,1-2.321,0c-2-.739-3.376-.595-5.343-.8-1.544-.153-2.321-.7-2.513-.374a1.746,1.746,0,0,0,.748,2.273,12.605,12.605,0,0,0,2.686,1.17,16.221,16.221,0,0,1-5.189.71c-4.029-.1-5.477,1.659-2.35,5.755,1.918,2.551,5.093,3.357,12.182.911,2.034-.71,4.8-2.081,7.376-3.012,5.314-1.918,6.714-2.139,10.762-3.52C362.043,203.6,366.149,201.619,367.4,199.26Z" transform="translate(84.582 189.117)" fill="#ffa8a7"/>
    <path id="path227" d="M364.477,161.214c2.446.336,4.8.892,6.244,2.878s2.609,4.8,1.189,12.47a118.852,118.852,0,0,1-4.355,15.8s-5.688,2.436-11.75-3.741l4.163-16.1s.71-10.551,4.508-11.309Z" transform="translate(87.961 189.043)" fill="#455a64"/>
  </g>
</svg>
